<?xml version="1.0" encoding="utf-8"?>
<!-- Generator: Adobe Illustrator 21.0.0, SVG Export Plug-In . SVG Version: 6.00 Build 0)  -->
<svg version="1.1" id="Layer_1" xmlns="http://www.w3.org/2000/svg" xmlns:xlink="http://www.w3.org/1999/xlink" x="0px" y="0px"
	 viewBox="0 0 600.9 423.5" style="enable-background:new 0 0 600.9 423.5;" xml:space="preserve">
<style type="text/css">
	.st0{fill:#FFFFFF;}
	.st1{clip-path:url(#SVGID_2_);fill:none;stroke:#CCCCCC;stroke-linecap:round;stroke-linejoin:round;stroke-miterlimit:10;}
	.st2{fill:#262626;}
	.st3{clip-path:url(#SVGID_4_);fill:none;stroke:#CCCCCC;stroke-linecap:round;stroke-linejoin:round;stroke-miterlimit:10;}
	.st4{clip-path:url(#SVGID_6_);fill:none;stroke:#CCCCCC;stroke-linecap:round;stroke-linejoin:round;stroke-miterlimit:10;}
	.st5{clip-path:url(#SVGID_8_);fill:none;stroke:#CCCCCC;stroke-linecap:round;stroke-linejoin:round;stroke-miterlimit:10;}
	.st6{clip-path:url(#SVGID_10_);fill:none;stroke:#CCCCCC;stroke-linecap:round;stroke-linejoin:round;stroke-miterlimit:10;}
	.st7{clip-path:url(#SVGID_12_);fill:none;stroke:#CCCCCC;stroke-linecap:round;stroke-linejoin:round;stroke-miterlimit:10;}
	.st8{clip-path:url(#SVGID_14_);fill:none;stroke:#CCCCCC;stroke-linecap:round;stroke-linejoin:round;stroke-miterlimit:10;}
	.st9{clip-path:url(#SVGID_16_);fill:none;stroke:#CCCCCC;stroke-linecap:round;stroke-linejoin:round;stroke-miterlimit:10;}
	.st10{clip-path:url(#SVGID_18_);fill:none;stroke:#CCCCCC;stroke-linecap:round;stroke-linejoin:round;stroke-miterlimit:10;}
	.st11{clip-path:url(#SVGID_20_);fill:none;stroke:#CCCCCC;stroke-linecap:round;stroke-linejoin:round;stroke-miterlimit:10;}
	.st12{clip-path:url(#SVGID_22_);fill:none;stroke:#CCCCCC;stroke-linecap:round;stroke-linejoin:round;stroke-miterlimit:10;}
	.st13{clip-path:url(#SVGID_24_);fill:none;stroke:#CCCCCC;stroke-linecap:round;stroke-linejoin:round;stroke-miterlimit:10;}
	.st14{clip-path:url(#SVGID_26_);fill:none;stroke:#CCCCCC;stroke-linecap:round;stroke-linejoin:round;stroke-miterlimit:10;}
	.st15{clip-path:url(#SVGID_28_);fill:none;stroke:#CCCCCC;stroke-linecap:round;stroke-linejoin:round;stroke-miterlimit:10;}
	.st16{clip-path:url(#SVGID_30_);fill:none;stroke:#CCCCCC;stroke-linecap:round;stroke-linejoin:round;stroke-miterlimit:10;}
	.st17{clip-path:url(#SVGID_32_);fill:#262626;}
	
		.st18{clip-path:url(#SVGID_34_);fill:none;stroke:#4C72B0;stroke-width:2.5;stroke-linecap:round;stroke-linejoin:round;stroke-miterlimit:10;}
	.st19{fill:none;stroke:#CCCCCC;stroke-width:1.25;stroke-linecap:square;stroke-miterlimit:10;}
	.st20{opacity:0.8;fill:#FFFFFF;}
	.st21{opacity:0.8;fill:none;stroke:#CCCCCC;stroke-miterlimit:10;}
	.st22{fill:none;stroke:#4C72B0;stroke-width:2.5;stroke-linecap:round;stroke-linejoin:round;stroke-miterlimit:10;}
	.st23{clip-path:url(#SVGID_36_);fill:none;stroke:#CCCCCC;stroke-linecap:round;stroke-linejoin:round;stroke-miterlimit:10;}
	.st24{clip-path:url(#SVGID_38_);fill:none;stroke:#CCCCCC;stroke-linecap:round;stroke-linejoin:round;stroke-miterlimit:10;}
	.st25{clip-path:url(#SVGID_40_);fill:none;stroke:#CCCCCC;stroke-linecap:round;stroke-linejoin:round;stroke-miterlimit:10;}
	.st26{clip-path:url(#SVGID_42_);fill:none;stroke:#CCCCCC;stroke-linecap:round;stroke-linejoin:round;stroke-miterlimit:10;}
	.st27{clip-path:url(#SVGID_44_);fill:none;stroke:#CCCCCC;stroke-linecap:round;stroke-linejoin:round;stroke-miterlimit:10;}
	.st28{clip-path:url(#SVGID_46_);fill:none;stroke:#CCCCCC;stroke-linecap:round;stroke-linejoin:round;stroke-miterlimit:10;}
	.st29{clip-path:url(#SVGID_48_);fill:none;stroke:#CCCCCC;stroke-linecap:round;stroke-linejoin:round;stroke-miterlimit:10;}
	.st30{clip-path:url(#SVGID_50_);fill:none;stroke:#CCCCCC;stroke-linecap:round;stroke-linejoin:round;stroke-miterlimit:10;}
	.st31{clip-path:url(#SVGID_52_);fill:none;stroke:#CCCCCC;stroke-linecap:round;stroke-linejoin:round;stroke-miterlimit:10;}
	.st32{clip-path:url(#SVGID_54_);fill:none;stroke:#CCCCCC;stroke-linecap:round;stroke-linejoin:round;stroke-miterlimit:10;}
	.st33{clip-path:url(#SVGID_56_);fill:none;stroke:#CCCCCC;stroke-linecap:round;stroke-linejoin:round;stroke-miterlimit:10;}
	.st34{clip-path:url(#SVGID_58_);fill:#262626;}
	
		.st35{clip-path:url(#SVGID_60_);fill:none;stroke:#4C72B0;stroke-width:2.5;stroke-linecap:round;stroke-linejoin:round;stroke-miterlimit:10;}
</style>
<rect x="39.7" y="0.7" class="st0" width="558" height="176.4"/>
<g>
	<defs>
		<rect id="SVGID_1_" x="39.7" y="0.7" width="558" height="176.4"/>
	</defs>
	<clipPath id="SVGID_2_">
		<use xlink:href="#SVGID_1_"  style="overflow:visible;"/>
	</clipPath>
	<line class="st1" x1="39.7" y1="177.1" x2="39.7" y2="0.7"/>
</g>
<path class="st2" d="M33.5,190.5c0,1.3,0.1,2.2,0.5,2.6c0.3,0.4,0.7,0.6,1.1,0.6c0.4,0,0.8-0.2,1.1-0.6s0.5-1.3,0.5-2.6
	c0-1.3-0.2-2.2-0.5-2.6c-0.3-0.4-0.7-0.6-1.1-0.6c-0.5,0-0.8,0.2-1.1,0.6C33.7,188.4,33.5,189.3,33.5,190.5 M32.6,190.5
	c0-0.9,0.1-1.7,0.3-2.2c0.2-0.6,0.5-1,0.8-1.3c0.4-0.3,0.9-0.5,1.4-0.5c0.4,0,0.8,0.1,1.1,0.3c0.3,0.2,0.6,0.4,0.8,0.7
	s0.4,0.7,0.5,1.2c0.1,0.5,0.2,1.1,0.2,1.9c0,0.9-0.1,1.7-0.3,2.2c-0.2,0.6-0.5,1-0.8,1.3s-0.9,0.5-1.4,0.5c-0.8,0-1.4-0.3-1.8-0.8
	C32.8,193.1,32.6,192,32.6,190.5"/>
<polyline class="st2" points="39.2,194.4 39.2,193.3 40.3,193.3 40.3,194.4 39.2,194.4 "/>
<path class="st2" d="M42.7,190.5c0,1.3,0.1,2.2,0.5,2.6c0.3,0.4,0.7,0.6,1.1,0.6c0.4,0,0.8-0.2,1.1-0.6s0.5-1.3,0.5-2.6
	c0-1.3-0.2-2.2-0.5-2.6c-0.3-0.4-0.7-0.6-1.1-0.6c-0.5,0-0.8,0.2-1.1,0.6C42.9,188.4,42.7,189.3,42.7,190.5 M41.7,190.5
	c0-0.9,0.1-1.7,0.3-2.2c0.2-0.6,0.5-1,0.8-1.3c0.4-0.3,0.9-0.5,1.4-0.5c0.4,0,0.8,0.1,1.1,0.3c0.3,0.2,0.6,0.4,0.8,0.7
	s0.4,0.7,0.5,1.2c0.1,0.5,0.2,1.1,0.2,1.9c0,0.9-0.1,1.7-0.3,2.2c-0.2,0.6-0.5,1-0.8,1.3s-0.9,0.5-1.4,0.5c-0.8,0-1.4-0.3-1.8-0.8
	C42,193.1,41.7,192,41.7,190.5"/>
<g>
	<defs>
		<rect id="SVGID_3_" x="39.7" y="0.7" width="558" height="176.4"/>
	</defs>
	<clipPath id="SVGID_4_">
		<use xlink:href="#SVGID_3_"  style="overflow:visible;"/>
	</clipPath>
	<line class="st3" x1="109" y1="177.1" x2="109" y2="0.7"/>
</g>
<path class="st2" d="M102.8,190.5c0,1.3,0.1,2.2,0.5,2.6c0.3,0.4,0.7,0.6,1.1,0.6c0.4,0,0.8-0.2,1.1-0.6s0.5-1.3,0.5-2.6
	c0-1.3-0.2-2.2-0.5-2.6c-0.3-0.4-0.7-0.6-1.1-0.6c-0.5,0-0.8,0.2-1.1,0.6C103,188.4,102.8,189.3,102.8,190.5 M101.8,190.5
	c0-0.9,0.1-1.7,0.3-2.2c0.2-0.6,0.5-1,0.8-1.3c0.4-0.3,0.9-0.5,1.4-0.5c0.4,0,0.8,0.1,1.1,0.3c0.3,0.2,0.6,0.4,0.8,0.7
	c0.2,0.3,0.4,0.7,0.5,1.2c0.1,0.5,0.2,1.1,0.2,1.9c0,0.9-0.1,1.7-0.3,2.2c-0.2,0.6-0.5,1-0.8,1.3c-0.4,0.3-0.9,0.5-1.4,0.5
	c-0.8,0-1.4-0.3-1.8-0.8C102.1,193.1,101.8,192,101.8,190.5"/>
<polyline class="st2" points="108.5,194.4 108.5,193.3 109.6,193.3 109.6,194.4 108.5,194.4 "/>
<path class="st2" d="M111,192.4l1-0.1c0.1,0.5,0.2,0.9,0.5,1.1c0.3,0.3,0.6,0.4,1,0.4c0.5,0,0.9-0.2,1.2-0.5
	c0.3-0.4,0.5-0.8,0.5-1.4c0-0.5-0.2-1-0.5-1.3c-0.3-0.3-0.7-0.5-1.2-0.5c-0.3,0-0.6,0.1-0.8,0.2c-0.3,0.1-0.5,0.3-0.6,0.5l-0.9-0.1
	l0.8-4h3.9v0.9h-3.1l-0.4,2.1c0.5-0.3,1-0.5,1.5-0.5c0.7,0,1.3,0.2,1.7,0.7c0.5,0.5,0.7,1.1,0.7,1.8c0,0.7-0.2,1.3-0.6,1.8
	c-0.5,0.6-1.2,0.9-2.1,0.9c-0.7,0-1.3-0.2-1.7-0.6C111.3,193.6,111,193,111,192.4"/>
<g>
	<defs>
		<rect id="SVGID_5_" x="39.7" y="0.7" width="558" height="176.4"/>
	</defs>
	<clipPath id="SVGID_6_">
		<use xlink:href="#SVGID_5_"  style="overflow:visible;"/>
	</clipPath>
	<line class="st4" x1="178.2" y1="177.1" x2="178.2" y2="0.7"/>
</g>
<path class="st2" d="M174.7,194.4h-1v-6.2c-0.2,0.2-0.5,0.5-0.9,0.7c-0.4,0.2-0.7,0.4-1,0.5v-0.9c0.5-0.3,1-0.6,1.4-0.9
	c0.4-0.4,0.7-0.7,0.9-1.1h0.6V194.4"/>
<polyline class="st2" points="177.7,194.4 177.7,193.3 178.8,193.3 178.8,194.4 177.7,194.4 "/>
<path class="st2" d="M181.2,190.5c0,1.3,0.1,2.2,0.5,2.6c0.3,0.4,0.7,0.6,1.1,0.6c0.4,0,0.8-0.2,1.1-0.6s0.5-1.3,0.5-2.6
	c0-1.3-0.2-2.2-0.5-2.6c-0.3-0.4-0.7-0.6-1.1-0.6c-0.5,0-0.8,0.2-1.1,0.6C181.4,188.4,181.2,189.3,181.2,190.5 M180.2,190.5
	c0-0.9,0.1-1.7,0.3-2.2c0.2-0.6,0.5-1,0.8-1.3c0.4-0.3,0.9-0.5,1.4-0.5c0.4,0,0.8,0.1,1.1,0.3c0.3,0.2,0.6,0.4,0.8,0.7
	s0.4,0.7,0.5,1.2c0.1,0.5,0.2,1.1,0.2,1.9c0,0.9-0.1,1.7-0.3,2.2c-0.2,0.6-0.5,1-0.8,1.3c-0.4,0.3-0.9,0.5-1.4,0.5
	c-0.8,0-1.4-0.3-1.8-0.8C180.5,193.1,180.2,192,180.2,190.5"/>
<g>
	<defs>
		<rect id="SVGID_7_" x="39.7" y="0.7" width="558" height="176.4"/>
	</defs>
	<clipPath id="SVGID_8_">
		<use xlink:href="#SVGID_7_"  style="overflow:visible;"/>
	</clipPath>
	<line class="st5" x1="247.5" y1="177.1" x2="247.5" y2="0.7"/>
</g>
<path class="st2" d="M243.9,194.4h-1v-6.2c-0.2,0.2-0.6,0.5-0.9,0.7s-0.7,0.4-1,0.5v-0.9c0.5-0.3,1-0.6,1.4-0.9
	c0.4-0.4,0.7-0.7,0.9-1.1h0.6V194.4"/>
<polyline class="st2" points="247,194.4 247,193.3 248.1,193.3 248.1,194.4 247,194.4 "/>
<path class="st2" d="M249.5,192.4l1-0.1c0.1,0.5,0.2,0.9,0.5,1.1c0.3,0.3,0.6,0.4,1,0.4c0.5,0,0.9-0.2,1.2-0.5
	c0.3-0.4,0.5-0.8,0.5-1.4c0-0.5-0.2-1-0.5-1.3c-0.3-0.3-0.7-0.5-1.2-0.5c-0.3,0-0.6,0.1-0.8,0.2c-0.3,0.1-0.5,0.3-0.6,0.5l-0.9-0.1
	l0.8-4h3.9v0.9h-3.1l-0.4,2.1c0.5-0.3,1-0.5,1.5-0.5c0.7,0,1.3,0.2,1.7,0.7c0.5,0.5,0.7,1.1,0.7,1.8c0,0.7-0.2,1.3-0.6,1.8
	c-0.5,0.6-1.2,0.9-2.1,0.9c-0.7,0-1.3-0.2-1.7-0.6C249.8,193.6,249.5,193,249.5,192.4"/>
<g>
	<defs>
		<rect id="SVGID_9_" x="39.7" y="0.7" width="558" height="176.4"/>
	</defs>
	<clipPath id="SVGID_10_">
		<use xlink:href="#SVGID_9_"  style="overflow:visible;"/>
	</clipPath>
	<line class="st6" x1="316.7" y1="177.1" x2="316.7" y2="0.7"/>
</g>
<path class="st2" d="M314.6,193.5v0.9h-5.2c0-0.2,0-0.5,0.1-0.7c0.1-0.4,0.3-0.7,0.6-1c0.3-0.3,0.7-0.7,1.3-1.2
	c0.9-0.7,1.4-1.2,1.7-1.7c0.3-0.4,0.5-0.8,0.5-1.2c0-0.4-0.1-0.7-0.4-1c-0.3-0.3-0.6-0.4-1.1-0.4c-0.5,0-0.8,0.1-1.1,0.4
	c-0.3,0.3-0.4,0.7-0.4,1.2l-1-0.1c0.1-0.7,0.3-1.3,0.8-1.7c0.4-0.4,1-0.6,1.8-0.6s1.4,0.2,1.8,0.6s0.7,0.9,0.7,1.6
	c0,0.3-0.1,0.6-0.2,0.9c-0.1,0.3-0.3,0.6-0.6,1c-0.3,0.3-0.8,0.8-1.5,1.4c-0.6,0.5-1,0.8-1.1,1c-0.2,0.2-0.3,0.4-0.4,0.5H314.6"/>
<polyline class="st2" points="316.2,194.4 316.2,193.3 317.3,193.3 317.3,194.4 316.2,194.4 "/>
<path class="st2" d="M319.7,190.5c0,1.3,0.1,2.2,0.5,2.6c0.3,0.4,0.7,0.6,1.1,0.6c0.4,0,0.8-0.2,1.1-0.6c0.3-0.4,0.5-1.3,0.5-2.6
	c0-1.3-0.2-2.2-0.5-2.6c-0.3-0.4-0.7-0.6-1.1-0.6c-0.5,0-0.8,0.2-1.1,0.6C319.9,188.4,319.7,189.3,319.7,190.5 M318.7,190.5
	c0-0.9,0.1-1.7,0.3-2.2c0.2-0.6,0.5-1,0.8-1.3c0.4-0.3,0.9-0.5,1.4-0.5c0.4,0,0.8,0.1,1.1,0.3c0.3,0.2,0.6,0.4,0.8,0.7
	c0.2,0.3,0.4,0.7,0.5,1.2c0.1,0.5,0.2,1.1,0.2,1.9c0,0.9-0.1,1.7-0.3,2.2c-0.2,0.6-0.5,1-0.8,1.3c-0.4,0.3-0.9,0.5-1.4,0.5
	c-0.8,0-1.4-0.3-1.8-0.8C319,193.1,318.7,192,318.7,190.5"/>
<g>
	<defs>
		<rect id="SVGID_11_" x="39.7" y="0.7" width="558" height="176.4"/>
	</defs>
	<clipPath id="SVGID_12_">
		<use xlink:href="#SVGID_11_"  style="overflow:visible;"/>
	</clipPath>
	<line class="st7" x1="386" y1="177.1" x2="386" y2="0.7"/>
</g>
<path class="st2" d="M383.9,193.5v0.9h-5.2c0-0.2,0-0.5,0.1-0.7c0.1-0.4,0.3-0.7,0.6-1c0.3-0.3,0.7-0.7,1.3-1.2
	c0.9-0.7,1.4-1.2,1.7-1.7c0.3-0.4,0.5-0.8,0.5-1.2c0-0.4-0.1-0.7-0.4-1c-0.3-0.3-0.6-0.4-1.1-0.4c-0.5,0-0.8,0.1-1.1,0.4
	c-0.3,0.3-0.4,0.7-0.4,1.2l-1-0.1c0.1-0.7,0.3-1.3,0.8-1.7c0.4-0.4,1-0.6,1.8-0.6s1.4,0.2,1.8,0.6s0.7,0.9,0.7,1.6
	c0,0.3-0.1,0.6-0.2,0.9c-0.1,0.3-0.3,0.6-0.6,1c-0.3,0.3-0.8,0.8-1.5,1.4c-0.6,0.5-1,0.8-1.1,1c-0.2,0.2-0.3,0.4-0.4,0.5H383.9"/>
<polyline class="st2" points="385.5,194.4 385.5,193.3 386.6,193.3 386.6,194.4 385.5,194.4 "/>
<path class="st2" d="M388,192.4l1-0.1c0.1,0.5,0.2,0.9,0.5,1.1c0.3,0.3,0.6,0.4,1,0.4c0.5,0,0.9-0.2,1.2-0.5
	c0.3-0.4,0.5-0.8,0.5-1.4c0-0.5-0.2-1-0.5-1.3c-0.3-0.3-0.7-0.5-1.2-0.5c-0.3,0-0.6,0.1-0.8,0.2c-0.3,0.1-0.5,0.3-0.6,0.5l-0.9-0.1
	l0.8-4h3.9v0.9h-3.1l-0.4,2.1c0.5-0.3,1-0.5,1.5-0.5c0.7,0,1.3,0.2,1.7,0.7c0.5,0.5,0.7,1.1,0.7,1.8c0,0.7-0.2,1.3-0.6,1.8
	c-0.5,0.6-1.2,0.9-2.1,0.9c-0.7,0-1.3-0.2-1.7-0.6C388.3,193.6,388,193,388,192.4"/>
<g>
	<defs>
		<rect id="SVGID_13_" x="39.7" y="0.7" width="558" height="176.4"/>
	</defs>
	<clipPath id="SVGID_14_">
		<use xlink:href="#SVGID_13_"  style="overflow:visible;"/>
	</clipPath>
	<line class="st8" x1="455.2" y1="177.1" x2="455.2" y2="0.7"/>
</g>
<path class="st2" d="M448.1,192.3l1-0.1c0.1,0.6,0.3,0.9,0.6,1.2c0.3,0.2,0.6,0.4,1,0.4c0.5,0,0.8-0.2,1.1-0.5
	c0.3-0.3,0.5-0.7,0.5-1.2c0-0.4-0.2-0.8-0.4-1.1s-0.7-0.4-1.1-0.4c-0.2,0-0.4,0-0.7,0.1l0.1-0.8c0.1,0,0.1,0,0.2,0
	c0.4,0,0.8-0.1,1.1-0.3c0.3-0.2,0.5-0.6,0.5-1c0-0.4-0.1-0.6-0.4-0.9s-0.6-0.4-0.9-0.4s-0.7,0.1-0.9,0.4c-0.3,0.2-0.4,0.6-0.5,1.1
	l-1-0.2c0.1-0.6,0.4-1.2,0.8-1.5c0.4-0.4,0.9-0.5,1.6-0.5c0.4,0,0.8,0.1,1.2,0.3c0.4,0.2,0.6,0.4,0.8,0.7c0.2,0.3,0.3,0.7,0.3,1
	c0,0.4-0.1,0.7-0.3,0.9c-0.2,0.3-0.5,0.5-0.8,0.7c0.5,0.1,0.8,0.3,1.1,0.7c0.3,0.3,0.4,0.8,0.4,1.3c0,0.7-0.3,1.3-0.8,1.7
	c-0.5,0.5-1.1,0.7-1.9,0.7c-0.7,0-1.3-0.2-1.7-0.6C448.4,193.5,448.1,193,448.1,192.3"/>
<polyline class="st2" points="454.7,194.4 454.7,193.3 455.8,193.3 455.8,194.4 454.7,194.4 "/>
<path class="st2" d="M458.2,190.5c0,1.3,0.1,2.2,0.5,2.6c0.3,0.4,0.7,0.6,1.1,0.6c0.4,0,0.8-0.2,1.1-0.6c0.3-0.4,0.5-1.3,0.5-2.6
	c0-1.3-0.2-2.2-0.5-2.6c-0.3-0.4-0.7-0.6-1.1-0.6c-0.5,0-0.8,0.2-1.1,0.6C458.4,188.4,458.2,189.3,458.2,190.5 M457.2,190.5
	c0-0.9,0.1-1.7,0.3-2.2c0.2-0.6,0.5-1,0.8-1.3c0.4-0.3,0.9-0.5,1.4-0.5c0.4,0,0.8,0.1,1.1,0.3c0.3,0.2,0.6,0.4,0.8,0.7
	s0.4,0.7,0.5,1.2c0.1,0.5,0.2,1.1,0.2,1.9c0,0.9-0.1,1.7-0.3,2.2c-0.2,0.6-0.5,1-0.8,1.3c-0.4,0.3-0.9,0.5-1.4,0.5
	c-0.8,0-1.4-0.3-1.8-0.8C457.5,193.1,457.2,192,457.2,190.5"/>
<g>
	<defs>
		<rect id="SVGID_15_" x="39.7" y="0.7" width="558" height="176.4"/>
	</defs>
	<clipPath id="SVGID_16_">
		<use xlink:href="#SVGID_15_"  style="overflow:visible;"/>
	</clipPath>
	<line class="st9" x1="524.5" y1="177.1" x2="524.5" y2="0.7"/>
</g>
<path class="st2" d="M517.3,192.3l1-0.1c0.1,0.6,0.3,0.9,0.6,1.2c0.3,0.2,0.6,0.4,1,0.4c0.5,0,0.8-0.2,1.1-0.5
	c0.3-0.3,0.5-0.7,0.5-1.2c0-0.4-0.2-0.8-0.4-1.1c-0.3-0.3-0.7-0.4-1.1-0.4c-0.2,0-0.4,0-0.7,0.1l0.1-0.8c0.1,0,0.1,0,0.2,0
	c0.4,0,0.8-0.1,1.1-0.3s0.5-0.6,0.5-1c0-0.4-0.1-0.6-0.4-0.9s-0.5-0.4-0.9-0.4s-0.7,0.1-0.9,0.4c-0.3,0.2-0.4,0.6-0.5,1.1l-1-0.2
	c0.1-0.6,0.4-1.2,0.8-1.5c0.4-0.4,0.9-0.5,1.6-0.5c0.4,0,0.8,0.1,1.2,0.3c0.4,0.2,0.6,0.4,0.8,0.7c0.2,0.3,0.3,0.7,0.3,1
	c0,0.4-0.1,0.7-0.3,0.9c-0.2,0.3-0.5,0.5-0.8,0.7c0.5,0.1,0.8,0.3,1.1,0.7c0.3,0.3,0.4,0.8,0.4,1.3c0,0.7-0.3,1.3-0.8,1.7
	c-0.5,0.5-1.1,0.7-1.9,0.7c-0.7,0-1.3-0.2-1.7-0.6C517.6,193.5,517.4,193,517.3,192.3"/>
<polyline class="st2" points="524,194.4 524,193.3 525.1,193.3 525.1,194.4 524,194.4 "/>
<path class="st2" d="M526.5,192.4l1-0.1c0.1,0.5,0.2,0.9,0.5,1.1c0.3,0.3,0.6,0.4,1,0.4c0.5,0,0.9-0.2,1.2-0.5
	c0.3-0.4,0.5-0.8,0.5-1.4c0-0.5-0.2-1-0.5-1.3s-0.7-0.5-1.2-0.5c-0.3,0-0.6,0.1-0.8,0.2c-0.3,0.1-0.5,0.3-0.6,0.5l-0.9-0.1l0.8-4
	h3.9v0.9h-3.1l-0.4,2.1c0.5-0.3,1-0.5,1.5-0.5c0.7,0,1.3,0.2,1.7,0.7c0.5,0.5,0.7,1.1,0.7,1.8c0,0.7-0.2,1.3-0.6,1.8
	c-0.5,0.6-1.2,0.9-2.1,0.9c-0.7,0-1.3-0.2-1.7-0.6C526.8,193.6,526.5,193,526.5,192.4"/>
<g>
	<defs>
		<rect id="SVGID_17_" x="39.7" y="0.7" width="558" height="176.4"/>
	</defs>
	<clipPath id="SVGID_18_">
		<use xlink:href="#SVGID_17_"  style="overflow:visible;"/>
	</clipPath>
	<line class="st10" x1="593.7" y1="177.1" x2="593.7" y2="0.7"/>
</g>
<path class="st2" d="M589.6,191.7v-3.6l-2.5,3.6H589.6 M589.6,194.4v-1.9h-3.4v-0.9l3.6-5.1h0.8v5.1h1.1v0.9h-1.1v1.9H589.6"/>
<polyline class="st2" points="593.2,194.4 593.2,193.3 594.3,193.3 594.3,194.4 593.2,194.4 "/>
<path class="st2" d="M596.7,190.5c0,1.3,0.1,2.2,0.5,2.6c0.3,0.4,0.7,0.6,1.1,0.6c0.4,0,0.8-0.2,1.1-0.6s0.5-1.3,0.5-2.6
	c0-1.3-0.2-2.2-0.5-2.6c-0.3-0.4-0.7-0.6-1.1-0.6c-0.5,0-0.8,0.2-1.1,0.6C596.9,188.4,596.7,189.3,596.7,190.5 M595.7,190.5
	c0-0.9,0.1-1.7,0.3-2.2c0.2-0.6,0.5-1,0.8-1.3c0.4-0.3,0.9-0.5,1.4-0.5c0.4,0,0.8,0.1,1.1,0.3c0.3,0.2,0.6,0.4,0.8,0.7
	s0.4,0.7,0.5,1.2c0.1,0.5,0.2,1.1,0.2,1.9c0,0.9-0.1,1.7-0.3,2.2c-0.2,0.6-0.5,1-0.8,1.3c-0.4,0.3-0.9,0.5-1.4,0.5
	c-0.8,0-1.4-0.3-1.8-0.8C596,193.1,595.7,192,595.7,190.5"/>
<path class="st2" d="M237.8,208.3h1.8c0.6,0,1,0,1.3-0.2c0.3-0.1,0.6-0.3,0.8-0.5c0.3-0.3,0.5-0.6,0.6-1.1c0.1-0.5,0.2-1,0.2-1.7
	c0-0.9-0.2-1.6-0.4-2.1c-0.3-0.5-0.6-0.8-1.1-1c-0.3-0.1-0.8-0.2-1.5-0.2h-1.8V208.3 M236.7,209.3v-8.6h3c0.7,0,1.2,0,1.5,0.1
	c0.5,0.1,0.9,0.3,1.3,0.6c0.5,0.4,0.8,0.9,1,1.5c0.2,0.6,0.3,1.3,0.3,2c0,0.7-0.1,1.2-0.2,1.7c-0.2,0.5-0.3,0.9-0.6,1.2
	c-0.2,0.3-0.5,0.6-0.8,0.8c-0.3,0.2-0.6,0.3-1,0.4c-0.4,0.1-0.9,0.1-1.4,0.1H236.7"/>
<path class="st2" d="M245.2,209.3v-6.2h1.1v6.2H245.2 M245.2,202v-1.2h1.1v1.2H245.2"/>
<path class="st2" d="M247.4,207.5l1-0.2c0,0.4,0.2,0.7,0.5,1s0.6,0.3,1.1,0.3c0.5,0,0.8-0.1,1.1-0.3c0.2-0.2,0.3-0.4,0.3-0.7
	c0-0.2-0.1-0.4-0.3-0.6c-0.1-0.1-0.5-0.2-1.1-0.4c-0.8-0.2-1.3-0.4-1.6-0.5c-0.3-0.1-0.5-0.3-0.7-0.6s-0.2-0.5-0.2-0.8
	c0-0.3,0.1-0.5,0.2-0.8c0.1-0.2,0.3-0.4,0.5-0.6c0.2-0.1,0.4-0.2,0.7-0.3c0.3-0.1,0.6-0.1,0.9-0.1c0.5,0,0.9,0.1,1.3,0.2
	s0.6,0.3,0.8,0.6c0.2,0.2,0.3,0.6,0.4,1l-1,0.1c0-0.3-0.2-0.6-0.4-0.7c-0.2-0.2-0.5-0.3-0.9-0.3c-0.5,0-0.8,0.1-1,0.2
	c-0.2,0.2-0.3,0.3-0.3,0.6c0,0.1,0,0.3,0.1,0.4c0.1,0.1,0.2,0.2,0.4,0.3c0.1,0,0.4,0.1,0.9,0.3c0.7,0.2,1.3,0.4,1.6,0.5
	c0.3,0.1,0.5,0.3,0.7,0.6s0.3,0.5,0.3,0.9s-0.1,0.7-0.3,1s-0.5,0.5-0.9,0.7s-0.8,0.3-1.3,0.3c-0.8,0-1.4-0.2-1.8-0.5
	C247.8,208.7,247.5,208.2,247.4,207.5"/>
<path class="st2" d="M256.2,208.4l0.2,0.9c-0.3,0-0.6,0.1-0.8,0.1c-0.4,0-0.7-0.1-0.9-0.2c-0.2-0.1-0.4-0.3-0.4-0.5
	c-0.1-0.2-0.1-0.6-0.1-1.2v-3.6h-0.8v-0.8h0.8v-1.5l1-0.6v2.2h1.1v0.8h-1.1v3.6c0,0.3,0,0.5,0.1,0.6c0,0.1,0.1,0.2,0.2,0.2
	c0.1,0,0.2,0.1,0.4,0.1C255.8,208.4,256,208.4,256.2,208.4"/>
<path class="st2" d="M261.2,206.2c-0.4,0.2-1,0.3-1.7,0.4c-0.4,0.1-0.7,0.1-0.9,0.2c-0.2,0.1-0.3,0.2-0.4,0.3
	c-0.1,0.2-0.1,0.3-0.1,0.5c0,0.3,0.1,0.5,0.3,0.7c0.2,0.2,0.5,0.3,0.9,0.3c0.4,0,0.8-0.1,1.1-0.3c0.3-0.2,0.6-0.4,0.7-0.7
	c0.1-0.2,0.2-0.6,0.2-1.1V206.2 M261.2,208.6c-0.4,0.3-0.8,0.6-1.1,0.7c-0.4,0.1-0.8,0.2-1.2,0.2c-0.7,0-1.2-0.2-1.6-0.5
	c-0.4-0.3-0.6-0.8-0.6-1.3c0-0.3,0.1-0.6,0.2-0.8c0.1-0.3,0.3-0.5,0.6-0.6c0.2-0.1,0.5-0.3,0.8-0.3c0.2,0,0.5-0.1,0.9-0.2
	c0.9-0.1,1.5-0.2,1.9-0.4c0-0.1,0-0.2,0-0.3c0-0.4-0.1-0.7-0.3-0.9c-0.3-0.2-0.7-0.4-1.2-0.4c-0.5,0-0.9,0.1-1.1,0.3
	c-0.2,0.2-0.4,0.5-0.5,0.9l-1-0.1c0.1-0.4,0.3-0.8,0.5-1.1c0.2-0.3,0.5-0.5,0.9-0.6s0.9-0.2,1.4-0.2c0.5,0,1,0.1,1.3,0.2
	s0.6,0.3,0.7,0.5s0.3,0.4,0.3,0.7c0,0.2,0.1,0.5,0.1,1v1.4c0,1,0,1.6,0.1,1.9c0,0.3,0.1,0.5,0.3,0.7h-1.1
	C261.3,209.1,261.3,208.9,261.2,208.6"/>
<path class="st2" d="M263.9,209.3v-6.2h0.9v0.9c0.5-0.7,1.1-1,2-1c0.4,0,0.7,0.1,1,0.2c0.3,0.1,0.6,0.3,0.7,0.5
	c0.2,0.2,0.3,0.5,0.3,0.8c0,0.2,0.1,0.5,0.1,1v3.8h-1.1v-3.8c0-0.4,0-0.7-0.1-1c-0.1-0.2-0.2-0.4-0.4-0.5c-0.2-0.1-0.5-0.2-0.7-0.2
	c-0.5,0-0.9,0.1-1.2,0.4c-0.3,0.3-0.5,0.8-0.5,1.6v3.4H263.9"/>
<path class="st2" d="M274.6,207.1l1,0.1c-0.1,0.7-0.4,1.3-0.9,1.7c-0.5,0.4-1,0.6-1.7,0.6c-0.9,0-1.5-0.3-2.1-0.8
	c-0.5-0.6-0.8-1.3-0.8-2.4c0-0.7,0.1-1.3,0.3-1.8c0.2-0.5,0.6-0.9,1-1.1c0.5-0.3,0.9-0.4,1.5-0.4c0.7,0,1.2,0.2,1.7,0.5
	s0.7,0.8,0.8,1.5l-1,0.2c-0.1-0.4-0.3-0.7-0.5-0.9c-0.3-0.2-0.6-0.3-0.9-0.3c-0.5,0-1,0.2-1.3,0.6s-0.5,1-0.5,1.8
	c0,0.8,0.2,1.5,0.5,1.8c0.3,0.4,0.7,0.6,1.3,0.6c0.4,0,0.8-0.1,1-0.4S274.5,207.6,274.6,207.1"/>
<path class="st2" d="M277.3,205.6h3.5c0-0.5-0.2-0.9-0.4-1.2c-0.3-0.4-0.8-0.6-1.3-0.6c-0.5,0-0.9,0.2-1.2,0.5
	C277.5,204.7,277.4,205.1,277.3,205.6 M280.8,207.3l1.1,0.1c-0.2,0.6-0.5,1.1-1,1.5c-0.5,0.3-1.1,0.5-1.8,0.5
	c-0.9,0-1.6-0.3-2.2-0.8c-0.5-0.6-0.8-1.3-0.8-2.4c0-1,0.3-1.9,0.8-2.4c0.5-0.6,1.2-0.9,2.1-0.9c0.8,0,1.5,0.3,2,0.9
	c0.5,0.6,0.8,1.4,0.8,2.4c0,0.1,0,0.2,0,0.3h-4.6c0,0.7,0.2,1.2,0.6,1.6s0.8,0.5,1.3,0.5c0.4,0,0.7-0.1,1-0.3
	C280.4,208.1,280.6,207.8,280.8,207.3"/>
<path class="st2" d="M286.8,209.3v-5.4h-0.9v-0.8h0.9v-0.7c0-0.4,0-0.7,0.1-0.9c0.1-0.3,0.3-0.5,0.5-0.7c0.3-0.2,0.6-0.3,1.1-0.3
	c0.3,0,0.6,0,1,0.1l-0.2,0.9c-0.2,0-0.4,0-0.6,0c-0.3,0-0.6,0.1-0.7,0.2c-0.1,0.1-0.2,0.4-0.2,0.8v0.6h1.2v0.8h-1.2v5.4H286.8"/>
<path class="st2" d="M289.9,209.3v-6.2h0.9v0.9c0.2-0.4,0.5-0.7,0.7-0.9c0.2-0.1,0.4-0.2,0.7-0.2c0.4,0,0.7,0.1,1.1,0.3l-0.4,1
	c-0.3-0.1-0.5-0.2-0.8-0.2c-0.2,0-0.4,0.1-0.6,0.2c-0.2,0.1-0.3,0.3-0.4,0.6c-0.1,0.4-0.2,0.8-0.2,1.2v3.3H289.9"/>
<path class="st2" d="M294.6,206.2c0,0.8,0.2,1.4,0.5,1.8c0.3,0.4,0.8,0.6,1.3,0.6c0.5,0,1-0.2,1.3-0.6c0.3-0.4,0.5-1,0.5-1.8
	c0-0.8-0.2-1.3-0.5-1.8c-0.4-0.4-0.8-0.6-1.3-0.6c-0.5,0-1,0.2-1.3,0.6C294.7,204.8,294.6,205.4,294.6,206.2 M293.5,206.2
	c0-1.2,0.3-2,1-2.6c0.5-0.5,1.2-0.7,2-0.7c0.9,0,1.5,0.3,2.1,0.8c0.5,0.6,0.8,1.3,0.8,2.3c0,0.8-0.1,1.4-0.4,1.9
	c-0.2,0.5-0.6,0.8-1.1,1.1c-0.5,0.2-1,0.4-1.5,0.4c-0.9,0-1.6-0.3-2.1-0.8C293.7,208.1,293.5,207.3,293.5,206.2"/>
<path class="st2" d="M300.5,209.3v-6.2h0.9v0.9c0.2-0.3,0.4-0.5,0.8-0.7c0.3-0.2,0.7-0.3,1.1-0.3c0.5,0,0.8,0.1,1.1,0.3
	c0.3,0.2,0.5,0.5,0.6,0.8c0.5-0.7,1.1-1.1,1.9-1.1c0.6,0,1.1,0.2,1.4,0.5s0.5,0.9,0.5,1.6v4.3h-1.1v-3.9c0-0.4,0-0.7-0.1-0.9
	s-0.2-0.3-0.4-0.5c-0.2-0.1-0.4-0.2-0.6-0.2c-0.4,0-0.8,0.2-1.1,0.4c-0.3,0.3-0.4,0.8-0.4,1.4v3.6h-1.1v-4c0-0.5-0.1-0.8-0.3-1.1
	c-0.2-0.2-0.5-0.3-0.8-0.3c-0.3,0-0.6,0.1-0.8,0.2c-0.3,0.2-0.4,0.4-0.5,0.7c-0.1,0.3-0.2,0.7-0.2,1.3v3.2H300.5"/>
<path class="st2" d="M314.8,206.3c0,0.8,0.2,1.4,0.5,1.8c0.3,0.4,0.7,0.6,1.2,0.6c0.5,0,0.9-0.2,1.2-0.6c0.3-0.4,0.5-1,0.5-1.8
	c0-0.8-0.2-1.4-0.5-1.8c-0.3-0.4-0.7-0.6-1.2-0.6s-0.9,0.2-1.2,0.6C315,204.9,314.8,205.5,314.8,206.3 M313.9,211.7v-8.6h1v0.8
	c0.2-0.3,0.5-0.6,0.8-0.7c0.3-0.2,0.6-0.2,1-0.2c0.5,0,1,0.1,1.4,0.4c0.4,0.3,0.7,0.7,0.9,1.2c0.2,0.5,0.3,1,0.3,1.6
	c0,0.6-0.1,1.2-0.3,1.7c-0.2,0.5-0.6,0.9-1,1.2c-0.4,0.3-0.9,0.4-1.4,0.4c-0.4,0-0.7-0.1-0.9-0.2c-0.3-0.1-0.5-0.3-0.7-0.6v3H313.9"
	/>
<path class="st2" d="M321.2,206.2c0,0.8,0.2,1.4,0.5,1.8c0.3,0.4,0.8,0.6,1.3,0.6c0.5,0,1-0.2,1.3-0.6c0.3-0.4,0.5-1,0.5-1.8
	c0-0.8-0.2-1.3-0.5-1.8c-0.4-0.4-0.8-0.6-1.3-0.6c-0.5,0-1,0.2-1.3,0.6C321.4,204.8,321.2,205.4,321.2,206.2 M320.2,206.2
	c0-1.2,0.3-2,1-2.6c0.5-0.5,1.2-0.7,2-0.7c0.9,0,1.5,0.3,2.1,0.8c0.5,0.6,0.8,1.3,0.8,2.3c0,0.8-0.1,1.4-0.4,1.9
	c-0.2,0.5-0.6,0.8-1.1,1.1c-0.5,0.2-1,0.4-1.5,0.4c-0.9,0-1.6-0.3-2.1-0.8C320.4,208.1,320.2,207.3,320.2,206.2"/>
<path class="st2" d="M327.2,209.3v-6.2h0.9v0.9c0.2-0.4,0.5-0.7,0.7-0.9c0.2-0.1,0.4-0.2,0.7-0.2c0.4,0,0.7,0.1,1.1,0.3l-0.4,1
	c-0.3-0.1-0.5-0.2-0.8-0.2c-0.2,0-0.4,0.1-0.6,0.2c-0.2,0.1-0.3,0.3-0.4,0.6c-0.1,0.4-0.2,0.8-0.2,1.2v3.3H327.2"/>
<path class="st2" d="M332,205.6h3.5c0-0.5-0.2-0.9-0.4-1.2c-0.3-0.4-0.8-0.6-1.3-0.6c-0.5,0-0.9,0.2-1.2,0.5
	C332.2,204.7,332,205.1,332,205.6 M335.5,207.3l1.1,0.1c-0.2,0.6-0.5,1.1-1,1.5c-0.5,0.3-1.1,0.5-1.8,0.5c-0.9,0-1.6-0.3-2.2-0.8
	c-0.5-0.6-0.8-1.3-0.8-2.4c0-1,0.3-1.9,0.8-2.4c0.5-0.6,1.2-0.9,2.1-0.9c0.8,0,1.5,0.3,2,0.9c0.5,0.6,0.8,1.4,0.8,2.4
	c0,0.1,0,0.2,0,0.3h-4.6c0,0.7,0.2,1.2,0.6,1.6s0.8,0.5,1.3,0.5c0.4,0,0.7-0.1,1-0.3C335.1,208.1,335.3,207.8,335.5,207.3"/>
<path class="st2" d="M345.3,207.1l1,0.1c-0.1,0.7-0.4,1.3-0.9,1.7c-0.5,0.4-1,0.6-1.7,0.6c-0.9,0-1.5-0.3-2.1-0.8
	c-0.5-0.6-0.8-1.3-0.8-2.4c0-0.7,0.1-1.3,0.3-1.8c0.2-0.5,0.6-0.9,1-1.1c0.5-0.3,0.9-0.4,1.5-0.4c0.7,0,1.2,0.2,1.7,0.5
	s0.7,0.8,0.8,1.5l-1,0.2c-0.1-0.4-0.3-0.7-0.5-0.9c-0.3-0.2-0.6-0.3-0.9-0.3c-0.5,0-1,0.2-1.3,0.6s-0.5,1-0.5,1.8
	c0,0.8,0.2,1.5,0.5,1.8c0.3,0.4,0.7,0.6,1.3,0.6c0.4,0,0.8-0.1,1-0.4S345.2,207.6,345.3,207.1"/>
<path class="st2" d="M348,205.6h3.5c0-0.5-0.2-0.9-0.4-1.2c-0.3-0.4-0.8-0.6-1.3-0.6c-0.5,0-0.9,0.2-1.2,0.5
	C348.2,204.7,348.1,205.1,348,205.6 M351.5,207.3l1.1,0.1c-0.2,0.6-0.5,1.1-1,1.5c-0.5,0.3-1.1,0.5-1.8,0.5c-0.9,0-1.6-0.3-2.2-0.8
	c-0.5-0.6-0.8-1.3-0.8-2.4c0-1,0.3-1.9,0.8-2.4c0.5-0.6,1.2-0.9,2.1-0.9c0.8,0,1.5,0.3,2,0.9c0.5,0.6,0.8,1.4,0.8,2.4
	c0,0.1,0,0.2,0,0.3H348c0,0.7,0.2,1.2,0.6,1.6s0.8,0.5,1.3,0.5c0.4,0,0.7-0.1,1-0.3C351.1,208.1,351.3,207.8,351.5,207.3"/>
<path class="st2" d="M353.9,209.3v-6.2h0.9v0.9c0.5-0.7,1.1-1,2-1c0.4,0,0.7,0.1,1,0.2c0.3,0.1,0.6,0.3,0.7,0.5
	c0.2,0.2,0.3,0.5,0.3,0.8c0,0.2,0.1,0.5,0.1,1v3.8h-1.1v-3.8c0-0.4,0-0.7-0.1-1c-0.1-0.2-0.2-0.4-0.4-0.5c-0.2-0.1-0.5-0.2-0.7-0.2
	c-0.5,0-0.9,0.1-1.2,0.4c-0.3,0.3-0.5,0.8-0.5,1.6v3.4H353.9"/>
<path class="st2" d="M362.9,208.4l0.2,0.9c-0.3,0-0.6,0.1-0.8,0.1c-0.4,0-0.7-0.1-0.9-0.2c-0.2-0.1-0.4-0.3-0.4-0.5
	c-0.1-0.2-0.1-0.6-0.1-1.2v-3.6H360v-0.8h0.8v-1.5l1-0.6v2.2h1.1v0.8h-1.1v3.6c0,0.3,0,0.5,0.1,0.6c0,0.1,0.1,0.2,0.2,0.2
	c0.1,0,0.2,0.1,0.4,0.1C362.5,208.4,362.7,208.4,362.9,208.4"/>
<path class="st2" d="M364.7,205.6h3.5c0-0.5-0.2-0.9-0.4-1.2c-0.3-0.4-0.8-0.6-1.3-0.6c-0.5,0-0.9,0.2-1.2,0.5
	C364.9,204.7,364.7,205.1,364.7,205.6 M368.2,207.3l1.1,0.1c-0.2,0.6-0.5,1.1-1,1.5c-0.5,0.3-1.1,0.5-1.8,0.5
	c-0.9,0-1.6-0.3-2.2-0.8c-0.5-0.6-0.8-1.3-0.8-2.4c0-1,0.3-1.9,0.8-2.4c0.5-0.6,1.2-0.9,2.1-0.9c0.8,0,1.5,0.3,2,0.9
	c0.5,0.6,0.8,1.4,0.8,2.4c0,0.1,0,0.2,0,0.3h-4.6c0,0.7,0.2,1.2,0.6,1.6s0.8,0.5,1.3,0.5c0.4,0,0.7-0.1,1-0.3
	C367.8,208.1,368,207.8,368.2,207.3"/>
<path class="st2" d="M370.6,209.3v-6.2h0.9v0.9c0.2-0.4,0.5-0.7,0.7-0.9c0.2-0.1,0.4-0.2,0.7-0.2c0.4,0,0.7,0.1,1.1,0.3l-0.4,1
	c-0.3-0.1-0.5-0.2-0.8-0.2c-0.2,0-0.4,0.1-0.6,0.2c-0.2,0.1-0.3,0.3-0.4,0.6c-0.1,0.4-0.2,0.8-0.2,1.2v3.3H370.6"/>
<path class="st2" d="M379.9,211.9c-0.6-0.7-1.1-1.6-1.5-2.6c-0.4-1-0.6-2-0.6-3.1c0-0.9,0.1-1.8,0.4-2.7c0.3-1,0.9-2,1.6-3h0.8
	c-0.5,0.8-0.8,1.4-0.9,1.7c-0.2,0.5-0.4,1.1-0.6,1.7c-0.2,0.7-0.3,1.5-0.3,2.2c0,1.9,0.6,3.7,1.8,5.6H379.9"/>
<path class="st2" d="M381.9,209.3v-6.2h0.9v0.9c0.5-0.7,1.1-1,2-1c0.4,0,0.7,0.1,1,0.2c0.3,0.1,0.6,0.3,0.7,0.5
	c0.2,0.2,0.3,0.5,0.3,0.8c0,0.2,0.1,0.5,0.1,1v3.8h-1.1v-3.8c0-0.4,0-0.7-0.1-1c-0.1-0.2-0.2-0.4-0.4-0.5c-0.2-0.1-0.5-0.2-0.7-0.2
	c-0.5,0-0.9,0.1-1.2,0.4c-0.3,0.3-0.5,0.8-0.5,1.6v3.4H381.9"/>
<path class="st2" d="M388.6,209.3v-6.2h0.9v0.9c0.2-0.3,0.4-0.5,0.8-0.7c0.3-0.2,0.7-0.3,1.1-0.3c0.5,0,0.8,0.1,1.1,0.3
	c0.3,0.2,0.5,0.5,0.6,0.8c0.5-0.7,1.1-1.1,1.9-1.1c0.6,0,1.1,0.2,1.4,0.5s0.5,0.9,0.5,1.6v4.3H396v-3.9c0-0.4,0-0.7-0.1-0.9
	s-0.2-0.3-0.4-0.5c-0.2-0.1-0.4-0.2-0.6-0.2c-0.4,0-0.8,0.2-1.1,0.4c-0.3,0.3-0.4,0.8-0.4,1.4v3.6h-1.1v-4c0-0.5-0.1-0.8-0.3-1.1
	c-0.2-0.2-0.5-0.3-0.8-0.3c-0.3,0-0.6,0.1-0.8,0.2c-0.3,0.2-0.4,0.4-0.5,0.7c-0.1,0.3-0.2,0.7-0.2,1.3v3.2H388.6"/>
<path class="st2" d="M399.3,211.9h-0.8c1.2-1.9,1.8-3.7,1.8-5.6c0-0.7-0.1-1.5-0.3-2.2c-0.1-0.6-0.3-1.1-0.6-1.7
	c-0.2-0.3-0.5-0.9-0.9-1.8h0.8c0.7,1,1.3,2,1.6,3c0.3,0.9,0.5,1.8,0.5,2.7c0,1.1-0.2,2.1-0.6,3.1
	C400.3,210.3,399.8,211.1,399.3,211.9"/>
<g>
	<defs>
		<rect id="SVGID_19_" x="39.7" y="0.7" width="558" height="176.4"/>
	</defs>
	<clipPath id="SVGID_20_">
		<use xlink:href="#SVGID_19_"  style="overflow:visible;"/>
	</clipPath>
	<line class="st11" x1="39.7" y1="169" x2="597.7" y2="169"/>
</g>
<path class="st2" d="M25.6,169.1c0,1.3,0.1,2.2,0.5,2.6c0.3,0.4,0.7,0.6,1.1,0.6c0.4,0,0.8-0.2,1.1-0.6c0.3-0.4,0.5-1.3,0.5-2.6
	s-0.2-2.2-0.5-2.6c-0.3-0.4-0.7-0.6-1.1-0.6c-0.5,0-0.8,0.2-1.1,0.6C25.7,166.9,25.6,167.8,25.6,169.1 M24.6,169.1
	c0-0.9,0.1-1.7,0.3-2.2c0.2-0.6,0.5-1,0.8-1.3c0.4-0.3,0.9-0.5,1.4-0.5c0.4,0,0.8,0.1,1.1,0.3c0.3,0.2,0.6,0.4,0.8,0.7
	s0.4,0.7,0.5,1.2c0.1,0.5,0.2,1.1,0.2,1.9c0,0.9-0.1,1.7-0.3,2.2c-0.2,0.6-0.5,1-0.8,1.3c-0.4,0.3-0.9,0.5-1.4,0.5
	c-0.8,0-1.4-0.3-1.8-0.8C24.8,171.6,24.6,170.6,24.6,169.1"/>
<g>
	<defs>
		<rect id="SVGID_21_" x="39.7" y="0.7" width="558" height="176.4"/>
	</defs>
	<clipPath id="SVGID_22_">
		<use xlink:href="#SVGID_21_"  style="overflow:visible;"/>
	</clipPath>
	<line class="st12" x1="39.7" y1="139.6" x2="597.7" y2="139.6"/>
</g>
<path class="st2" d="M22.1,143.5h-1v-6.2c-0.2,0.2-0.6,0.5-0.9,0.7s-0.7,0.4-1,0.5v-0.9c0.5-0.3,1-0.6,1.4-0.9
	c0.4-0.4,0.7-0.7,0.9-1.1h0.6V143.5"/>
<path class="st2" d="M25.6,139.7c0,1.3,0.1,2.2,0.5,2.6c0.3,0.4,0.7,0.6,1.1,0.6c0.4,0,0.8-0.2,1.1-0.6c0.3-0.4,0.5-1.3,0.5-2.6
	s-0.2-2.2-0.5-2.6c-0.3-0.4-0.7-0.6-1.1-0.6c-0.5,0-0.8,0.2-1.1,0.6C25.7,137.5,25.6,138.4,25.6,139.7 M24.6,139.7
	c0-0.9,0.1-1.7,0.3-2.2c0.2-0.6,0.5-1,0.8-1.3c0.4-0.3,0.9-0.5,1.4-0.5c0.4,0,0.8,0.1,1.1,0.3c0.3,0.2,0.6,0.4,0.8,0.7
	s0.4,0.7,0.5,1.2c0.1,0.5,0.2,1.1,0.2,1.9c0,0.9-0.1,1.7-0.3,2.2c-0.2,0.6-0.5,1-0.8,1.3c-0.4,0.3-0.9,0.5-1.4,0.5
	c-0.8,0-1.4-0.3-1.8-0.8C24.8,142.2,24.6,141.1,24.6,139.7"/>
<g>
	<defs>
		<rect id="SVGID_23_" x="39.7" y="0.7" width="558" height="176.4"/>
	</defs>
	<clipPath id="SVGID_24_">
		<use xlink:href="#SVGID_23_"  style="overflow:visible;"/>
	</clipPath>
	<line class="st13" x1="39.7" y1="110.2" x2="597.7" y2="110.2"/>
</g>
<path class="st2" d="M23.5,113.2v0.9h-5.2c0-0.2,0-0.5,0.1-0.7c0.1-0.4,0.3-0.7,0.6-1c0.3-0.3,0.7-0.7,1.3-1.2
	c0.9-0.7,1.4-1.2,1.7-1.7c0.3-0.4,0.5-0.8,0.5-1.2s-0.1-0.7-0.4-1c-0.3-0.3-0.6-0.4-1.1-0.4c-0.5,0-0.8,0.1-1.1,0.4
	c-0.3,0.3-0.4,0.7-0.4,1.2l-1-0.1c0.1-0.7,0.3-1.3,0.8-1.7c0.4-0.4,1-0.6,1.8-0.6s1.4,0.2,1.8,0.6s0.7,0.9,0.7,1.6
	c0,0.3-0.1,0.6-0.2,0.9c-0.1,0.3-0.3,0.6-0.6,1c-0.3,0.3-0.8,0.8-1.5,1.4c-0.6,0.5-1,0.8-1.1,1s-0.3,0.4-0.4,0.5H23.5"/>
<path class="st2" d="M25.6,110.2c0,1.3,0.1,2.2,0.5,2.6c0.3,0.4,0.7,0.6,1.1,0.6c0.4,0,0.8-0.2,1.1-0.6c0.3-0.4,0.5-1.3,0.5-2.6
	s-0.2-2.2-0.5-2.6c-0.3-0.4-0.7-0.6-1.1-0.6c-0.5,0-0.8,0.2-1.1,0.6C25.7,108,25.6,108.9,25.6,110.2 M24.6,110.2
	c0-0.9,0.1-1.7,0.3-2.2c0.2-0.6,0.5-1,0.8-1.3c0.4-0.3,0.9-0.5,1.4-0.5c0.4,0,0.8,0.1,1.1,0.3c0.3,0.2,0.6,0.4,0.8,0.7
	s0.4,0.7,0.5,1.2c0.1,0.5,0.2,1.1,0.2,1.9c0,0.9-0.1,1.7-0.3,2.2c-0.2,0.6-0.5,1-0.8,1.3c-0.4,0.3-0.9,0.5-1.4,0.5
	c-0.8,0-1.4-0.3-1.8-0.8C24.8,112.8,24.6,111.7,24.6,110.2"/>
<g>
	<defs>
		<rect id="SVGID_25_" x="39.7" y="0.7" width="558" height="176.4"/>
	</defs>
	<clipPath id="SVGID_26_">
		<use xlink:href="#SVGID_25_"  style="overflow:visible;"/>
	</clipPath>
	<line class="st14" x1="39.7" y1="80.7" x2="597.7" y2="80.7"/>
</g>
<path class="st2" d="M18.5,82.6l1-0.1c0.1,0.5,0.3,0.9,0.6,1.2s0.6,0.4,1,0.4c0.5,0,0.8-0.2,1.1-0.5c0.3-0.3,0.5-0.7,0.5-1.2
	c0-0.4-0.2-0.8-0.4-1.1c-0.3-0.3-0.7-0.4-1.1-0.4c-0.2,0-0.4,0-0.7,0.1l0.1-0.8c0.1,0,0.1,0,0.2,0c0.4,0,0.8-0.1,1.1-0.3
	c0.3-0.2,0.5-0.5,0.5-1c0-0.4-0.1-0.6-0.4-0.9c-0.2-0.2-0.6-0.4-0.9-0.4s-0.7,0.1-0.9,0.4c-0.3,0.2-0.4,0.6-0.5,1.1l-1-0.2
	c0.1-0.6,0.4-1.2,0.8-1.5c0.4-0.4,0.9-0.5,1.6-0.5c0.4,0,0.8,0.1,1.2,0.3c0.4,0.2,0.6,0.4,0.8,0.7c0.2,0.3,0.3,0.7,0.3,1
	c0,0.4-0.1,0.7-0.3,0.9c-0.2,0.3-0.5,0.5-0.8,0.7c0.5,0.1,0.8,0.3,1.1,0.7c0.3,0.3,0.4,0.8,0.4,1.3c0,0.7-0.3,1.3-0.8,1.7
	c-0.5,0.5-1.1,0.7-1.9,0.7c-0.7,0-1.3-0.2-1.7-0.6C18.8,83.8,18.5,83.3,18.5,82.6"/>
<path class="st2" d="M25.6,80.8c0,1.3,0.1,2.2,0.5,2.6c0.3,0.4,0.7,0.6,1.1,0.6c0.4,0,0.8-0.2,1.1-0.6c0.3-0.4,0.5-1.3,0.5-2.6
	s-0.2-2.2-0.5-2.6c-0.3-0.4-0.7-0.6-1.1-0.6c-0.5,0-0.8,0.2-1.1,0.6C25.7,78.6,25.6,79.5,25.6,80.8 M24.6,80.8
	c0-0.9,0.1-1.7,0.3-2.2c0.2-0.6,0.5-1,0.8-1.3c0.4-0.3,0.9-0.5,1.4-0.5c0.4,0,0.8,0.1,1.1,0.3c0.3,0.2,0.6,0.4,0.8,0.7
	s0.4,0.7,0.5,1.2c0.1,0.5,0.2,1.1,0.2,1.9c0,0.9-0.1,1.7-0.3,2.2c-0.2,0.6-0.5,1-0.8,1.3c-0.4,0.3-0.9,0.5-1.4,0.5
	c-0.8,0-1.4-0.3-1.8-0.8C24.8,83.3,24.6,82.3,24.6,80.8"/>
<g>
	<defs>
		<rect id="SVGID_27_" x="39.7" y="0.7" width="558" height="176.4"/>
	</defs>
	<clipPath id="SVGID_28_">
		<use xlink:href="#SVGID_27_"  style="overflow:visible;"/>
	</clipPath>
	<line class="st15" x1="39.7" y1="51.3" x2="597.7" y2="51.3"/>
</g>
<path class="st2" d="M21.6,52.5v-3.6l-2.5,3.6H21.6 M21.6,55.2v-1.9h-3.4v-0.9l3.6-5.1h0.8v5.1h1.1v0.9h-1.1v1.9H21.6"/>
<path class="st2" d="M25.6,51.4c0,1.3,0.1,2.2,0.5,2.6c0.3,0.4,0.7,0.6,1.1,0.6c0.4,0,0.8-0.2,1.1-0.6c0.3-0.4,0.5-1.3,0.5-2.6
	s-0.2-2.2-0.5-2.6c-0.3-0.4-0.7-0.6-1.1-0.6c-0.5,0-0.8,0.2-1.1,0.6C25.7,49.2,25.6,50.1,25.6,51.4 M24.6,51.4
	c0-0.9,0.1-1.7,0.3-2.2c0.2-0.6,0.5-1,0.8-1.3c0.4-0.3,0.9-0.5,1.4-0.5c0.4,0,0.8,0.1,1.1,0.3c0.3,0.2,0.6,0.4,0.8,0.7
	s0.4,0.7,0.5,1.2c0.1,0.5,0.2,1.1,0.2,1.9c0,0.9-0.1,1.7-0.3,2.2c-0.2,0.6-0.5,1-0.8,1.3c-0.4,0.3-0.9,0.5-1.4,0.5
	c-0.8,0-1.4-0.3-1.8-0.8C24.8,53.9,24.6,52.9,24.6,51.4"/>
<g>
	<defs>
		<rect id="SVGID_29_" x="39.7" y="0.7" width="558" height="176.4"/>
	</defs>
	<clipPath id="SVGID_30_">
		<use xlink:href="#SVGID_29_"  style="overflow:visible;"/>
	</clipPath>
	<line class="st16" x1="39.7" y1="21.9" x2="597.7" y2="21.9"/>
</g>
<path class="st2" d="M18.5,23.8l1-0.1c0.1,0.5,0.2,0.9,0.5,1.1c0.3,0.3,0.6,0.4,1,0.4c0.5,0,0.9-0.2,1.2-0.5
	c0.3-0.4,0.5-0.8,0.5-1.4c0-0.6-0.2-1-0.5-1.3s-0.7-0.5-1.2-0.5c-0.3,0-0.6,0.1-0.8,0.2s-0.5,0.3-0.6,0.5l-0.9-0.1l0.8-4h3.9V19
	h-3.1l-0.4,2.1c0.5-0.3,1-0.5,1.5-0.5c0.7,0,1.3,0.2,1.7,0.7c0.5,0.5,0.7,1.1,0.7,1.8c0,0.7-0.2,1.3-0.6,1.8
	c-0.5,0.6-1.2,0.9-2.1,0.9c-0.7,0-1.3-0.2-1.7-0.6C18.8,25,18.5,24.4,18.5,23.8"/>
<path class="st2" d="M25.6,21.9c0,1.3,0.1,2.2,0.5,2.6c0.3,0.4,0.7,0.6,1.1,0.6c0.4,0,0.8-0.2,1.1-0.6c0.3-0.4,0.5-1.3,0.5-2.6
	s-0.2-2.2-0.5-2.6c-0.3-0.4-0.7-0.6-1.1-0.6c-0.5,0-0.8,0.2-1.1,0.6C25.7,19.8,25.6,20.6,25.6,21.9 M24.6,21.9
	c0-0.9,0.1-1.7,0.3-2.2c0.2-0.6,0.5-1,0.8-1.3c0.4-0.3,0.9-0.5,1.4-0.5c0.4,0,0.8,0.1,1.1,0.3c0.3,0.2,0.6,0.4,0.8,0.7
	s0.4,0.7,0.5,1.2c0.1,0.5,0.2,1.1,0.2,1.9c0,0.9-0.1,1.7-0.3,2.2c-0.2,0.6-0.5,1-0.8,1.3c-0.4,0.3-0.9,0.5-1.4,0.5
	c-0.8,0-1.4-0.3-1.8-0.8C24.8,24.5,24.6,23.4,24.6,21.9"/>
<path class="st2" d="M9.8,145.3v-1.8c0-0.6,0-1-0.2-1.3c-0.1-0.3-0.3-0.6-0.5-0.8c-0.3-0.3-0.6-0.5-1.1-0.6c-0.5-0.1-1-0.2-1.7-0.2
	c-0.9,0-1.6,0.2-2.1,0.4c-0.5,0.3-0.8,0.6-1,1.1c-0.1,0.3-0.2,0.8-0.2,1.5v1.8H9.8 M10.8,146.4H2.2v-3c0-0.7,0-1.2,0.1-1.5
	c0.1-0.5,0.3-0.9,0.6-1.3c0.4-0.5,0.9-0.8,1.5-1c0.6-0.2,1.3-0.3,2-0.3c0.7,0,1.2,0.1,1.7,0.2c0.5,0.2,0.9,0.3,1.2,0.6
	c0.3,0.2,0.6,0.5,0.8,0.8c0.2,0.3,0.3,0.6,0.4,1c0.1,0.4,0.1,0.9,0.1,1.4V146.4"/>
<path class="st2" d="M7.1,137.1v-3.5c-0.5,0-0.9,0.2-1.2,0.4c-0.4,0.3-0.6,0.8-0.6,1.3c0,0.5,0.2,0.9,0.5,1.2
	C6.1,136.9,6.6,137.1,7.1,137.1 M8.8,133.6l0.1-1.1c0.6,0.2,1.1,0.5,1.5,1c0.3,0.5,0.5,1.1,0.5,1.8c0,0.9-0.3,1.6-0.8,2.2
	c-0.6,0.5-1.3,0.8-2.4,0.8c-1,0-1.9-0.3-2.4-0.8c-0.6-0.5-0.9-1.2-0.9-2.1c0-0.8,0.3-1.5,0.9-2c0.6-0.5,1.4-0.8,2.4-0.8
	c0.1,0,0.2,0,0.3,0v4.6c0.7,0,1.2-0.2,1.6-0.6s0.5-0.8,0.5-1.3c0-0.4-0.1-0.7-0.3-1C9.6,134,9.3,133.8,8.8,133.6"/>
<path class="st2" d="M10.8,131.2H4.6v-0.9h0.9c-0.7-0.5-1-1.1-1-2c0-0.4,0.1-0.7,0.2-1c0.1-0.3,0.3-0.6,0.5-0.7
	c0.2-0.2,0.5-0.3,0.8-0.3c0.2,0,0.5-0.1,1-0.1h3.8v1.1H7c-0.4,0-0.7,0-1,0.1c-0.2,0.1-0.4,0.2-0.5,0.4c-0.1,0.2-0.2,0.5-0.2,0.7
	c0,0.5,0.1,0.9,0.4,1.2c0.3,0.3,0.8,0.5,1.6,0.5h3.4V131.2"/>
<path class="st2" d="M9,125l-0.2-1c0.4,0,0.7-0.2,1-0.5s0.3-0.6,0.3-1.1c0-0.5-0.1-0.8-0.3-1.1c-0.2-0.2-0.4-0.3-0.7-0.3
	c-0.2,0-0.4,0.1-0.6,0.3c-0.1,0.1-0.2,0.5-0.4,1.1c-0.2,0.8-0.4,1.3-0.5,1.6c-0.1,0.3-0.3,0.5-0.6,0.7c-0.3,0.2-0.5,0.2-0.8,0.2
	c-0.3,0-0.5-0.1-0.8-0.2c-0.2-0.1-0.4-0.3-0.6-0.5c-0.1-0.2-0.2-0.4-0.3-0.7c-0.1-0.3-0.1-0.6-0.1-0.9c0-0.5,0.1-0.9,0.2-1.3
	s0.3-0.6,0.6-0.8c0.2-0.2,0.6-0.3,1-0.4l0.1,1c-0.3,0-0.6,0.2-0.7,0.4c-0.2,0.2-0.3,0.5-0.3,0.9c0,0.5,0.1,0.8,0.2,1
	c0.2,0.2,0.3,0.3,0.6,0.3c0.1,0,0.3,0,0.4-0.1c0.1-0.1,0.2-0.2,0.3-0.4c0-0.1,0.1-0.4,0.3-0.9c0.2-0.7,0.4-1.3,0.5-1.6
	c0.1-0.3,0.3-0.5,0.6-0.7c0.2-0.2,0.5-0.3,0.9-0.3c0.4,0,0.7,0.1,1,0.3s0.5,0.5,0.7,0.9s0.3,0.8,0.3,1.3c0,0.8-0.2,1.4-0.5,1.8
	C10.1,124.6,9.6,124.9,9,125"/>
<path class="st2" d="M10.8,118.5H4.6v-1.1h6.2V118.5 M3.4,118.5H2.2v-1.1h1.2V118.5"/>
<path class="st2" d="M9.9,113.6l0.9-0.2c0,0.3,0.1,0.6,0.1,0.8c0,0.4-0.1,0.7-0.2,0.9c-0.1,0.2-0.3,0.4-0.5,0.4
	c-0.2,0.1-0.6,0.1-1.2,0.1H5.4v0.8H4.6v-0.8H3.1l-0.6-1h2.2v-1.1h0.8v1.1h3.6c0.3,0,0.5,0,0.6-0.1c0.1,0,0.2-0.1,0.2-0.2
	c0-0.1,0.1-0.2,0.1-0.4C9.9,113.9,9.9,113.8,9.9,113.6"/>
<path class="st2" d="M13.2,112.6l-1,0.1c0.1-0.2,0.1-0.4,0.1-0.6c0-0.2,0-0.4-0.1-0.6c-0.1-0.1-0.2-0.3-0.3-0.3
	c-0.1-0.1-0.4-0.2-0.8-0.3c-0.1,0-0.1,0-0.3-0.1l-6.2,2.4V112l3.6-1.3c0.5-0.2,0.9-0.3,1.4-0.4c-0.5-0.1-1-0.3-1.4-0.4l-3.6-1.3
	v-1.1l6.3,2.4c0.7,0.3,1.1,0.5,1.4,0.6c0.3,0.2,0.6,0.4,0.8,0.6c0.2,0.2,0.2,0.5,0.2,0.9C13.3,112.1,13.3,112.4,13.2,112.6"/>
<path class="st2" d="M13.3,101.2c-0.7,0.6-1.6,1.1-2.6,1.5c-1,0.4-2,0.6-3.1,0.6c-0.9,0-1.8-0.1-2.7-0.4c-1-0.3-2-0.9-3-1.6v-0.8
	c0.8,0.5,1.4,0.8,1.7,0.9c0.5,0.2,1.1,0.4,1.7,0.6c0.7,0.2,1.5,0.3,2.2,0.3c1.9,0,3.7-0.6,5.6-1.8V101.2"/>
<path class="st2" d="M7.7,95.2c0.2,0.4,0.3,1,0.4,1.7c0.1,0.4,0.1,0.7,0.2,0.9c0.1,0.2,0.2,0.3,0.3,0.4c0.2,0.1,0.3,0.1,0.5,0.1
	c0.3,0,0.5-0.1,0.7-0.3c0.2-0.2,0.3-0.5,0.3-0.9c0-0.4-0.1-0.8-0.3-1.1c-0.2-0.3-0.4-0.6-0.7-0.7c-0.2-0.1-0.6-0.2-1.1-0.2H7.7
	 M10.1,95.2c0.3,0.4,0.6,0.8,0.7,1.1c0.1,0.4,0.2,0.8,0.2,1.2c0,0.7-0.2,1.2-0.5,1.6c-0.3,0.4-0.8,0.6-1.3,0.6
	c-0.3,0-0.6-0.1-0.8-0.2c-0.3-0.1-0.5-0.3-0.6-0.6c-0.1-0.2-0.3-0.5-0.3-0.8c0-0.2-0.1-0.5-0.2-0.9c-0.1-0.9-0.2-1.5-0.4-1.9
	c-0.1,0-0.2,0-0.3,0c-0.4,0-0.7,0.1-0.9,0.3c-0.2,0.3-0.4,0.7-0.4,1.2c0,0.5,0.1,0.9,0.3,1.1c0.2,0.2,0.5,0.4,0.9,0.5l-0.1,1
	c-0.4-0.1-0.8-0.3-1.1-0.5C5,98.7,4.8,98.4,4.7,98s-0.2-0.9-0.2-1.4c0-0.5,0.1-1,0.2-1.3c0.1-0.3,0.3-0.6,0.5-0.7
	c0.2-0.2,0.4-0.3,0.7-0.3c0.2,0,0.5-0.1,1-0.1h1.4c1,0,1.6,0,1.9-0.1s0.5-0.1,0.7-0.3v1.1C10.6,95.1,10.4,95.1,10.1,95.2"/>
<path class="st2" d="M9.9,90.2l0.9-0.2c0,0.3,0.1,0.6,0.1,0.8c0,0.4-0.1,0.7-0.2,0.9c-0.1,0.2-0.3,0.4-0.5,0.4
	c-0.2,0.1-0.6,0.1-1.2,0.1H5.4v0.8H4.6v-0.8H3.1l-0.6-1h2.2v-1.1h0.8v1.1h3.6c0.3,0,0.5,0,0.6-0.1c0.1,0,0.2-0.1,0.2-0.2
	c0-0.1,0.1-0.2,0.1-0.4C9.9,90.6,9.9,90.4,9.9,90.2"/>
<path class="st2" d="M7.7,88.5c0.8,0,1.4-0.2,1.8-0.5c0.4-0.3,0.6-0.8,0.6-1.3c0-0.5-0.2-1-0.6-1.3s-1-0.5-1.8-0.5
	c-0.8,0-1.3,0.2-1.8,0.5c-0.4,0.4-0.6,0.8-0.6,1.3c0,0.5,0.2,1,0.6,1.3C6.3,88.3,6.9,88.5,7.7,88.5 M7.7,89.6c-1.2,0-2-0.3-2.6-1
	c-0.5-0.5-0.7-1.2-0.7-2c0-0.9,0.3-1.5,0.8-2.1c0.6-0.5,1.3-0.8,2.3-0.8c0.8,0,1.4,0.1,1.9,0.4c0.5,0.2,0.8,0.6,1.1,1.1
	c0.2,0.5,0.4,1,0.4,1.5c0,0.9-0.3,1.6-0.8,2.1C9.6,89.3,8.8,89.6,7.7,89.6"/>
<path class="st2" d="M10.8,82.5H4.6v-0.9h0.9c-0.3-0.2-0.5-0.4-0.7-0.8c-0.2-0.3-0.3-0.7-0.3-1.1c0-0.5,0.1-0.8,0.3-1.1
	c0.2-0.3,0.5-0.5,0.8-0.6c-0.7-0.5-1.1-1.1-1.1-1.9c0-0.6,0.2-1.1,0.5-1.4c0.3-0.3,0.9-0.5,1.6-0.5h4.3v1.1H6.9
	c-0.4,0-0.7,0-0.9,0.1c-0.2,0.1-0.3,0.2-0.5,0.4c-0.1,0.2-0.2,0.4-0.2,0.6c0,0.4,0.2,0.8,0.4,1.1c0.3,0.3,0.8,0.4,1.4,0.4h3.6v1.1
	h-4c-0.5,0-0.8,0.1-1.1,0.3c-0.2,0.2-0.3,0.5-0.3,0.8c0,0.3,0.1,0.6,0.2,0.8s0.4,0.4,0.7,0.5c0.3,0.1,0.7,0.2,1.3,0.2h3.2V82.5"/>
<path class="st2" d="M9,73l-0.2-1c0.4,0,0.7-0.2,1-0.5s0.3-0.6,0.3-1.1c0-0.5-0.1-0.8-0.3-1.1c-0.2-0.2-0.4-0.3-0.7-0.3
	c-0.2,0-0.4,0.1-0.6,0.3c-0.1,0.1-0.2,0.5-0.4,1.1C8,71,7.8,71.6,7.7,71.9c-0.1,0.3-0.3,0.5-0.6,0.7c-0.3,0.2-0.5,0.2-0.8,0.2
	c-0.3,0-0.5-0.1-0.8-0.2c-0.2-0.1-0.4-0.3-0.6-0.5c-0.1-0.2-0.2-0.4-0.3-0.7c-0.1-0.3-0.1-0.6-0.1-0.9c0-0.5,0.1-0.9,0.2-1.3
	s0.3-0.6,0.6-0.8c0.2-0.2,0.6-0.3,1-0.4l0.1,1c-0.3,0-0.6,0.2-0.7,0.4c-0.2,0.2-0.3,0.5-0.3,0.9c0,0.5,0.1,0.8,0.2,1
	c0.2,0.2,0.3,0.3,0.6,0.3c0.1,0,0.3,0,0.4-0.1c0.1-0.1,0.2-0.2,0.3-0.4c0-0.1,0.1-0.4,0.3-0.9c0.2-0.7,0.4-1.3,0.5-1.6
	c0.1-0.3,0.3-0.5,0.6-0.7c0.2-0.2,0.5-0.3,0.9-0.3c0.4,0,0.7,0.1,1,0.3s0.5,0.5,0.7,0.9s0.3,0.8,0.3,1.3c0,0.8-0.2,1.4-0.5,1.8
	C10.1,72.6,9.6,72.9,9,73"/>
<path class="st2" d="M10.8,63.2H4.6v-0.9h0.9c-0.7-0.5-1-1.1-1-2c0-0.4,0.1-0.7,0.2-1c0.1-0.3,0.3-0.6,0.5-0.7
	c0.2-0.2,0.5-0.3,0.8-0.3c0.2,0,0.5-0.1,1-0.1h3.8v1.1H7c-0.4,0-0.7,0-1,0.1c-0.2,0.1-0.4,0.2-0.5,0.4c-0.1,0.2-0.2,0.5-0.2,0.7
	c0,0.5,0.1,0.9,0.4,1.2c0.3,0.3,0.8,0.5,1.6,0.5h3.4V63.2"/>
<path class="st2" d="M10.8,56.5H4.6v-0.9h0.9c-0.3-0.2-0.5-0.4-0.7-0.8c-0.2-0.3-0.3-0.7-0.3-1.1c0-0.5,0.1-0.8,0.3-1.1
	c0.2-0.3,0.5-0.5,0.8-0.6c-0.7-0.5-1.1-1.1-1.1-1.9c0-0.6,0.2-1.1,0.5-1.4c0.3-0.3,0.9-0.5,1.6-0.5h4.3v1.1H6.9
	c-0.4,0-0.7,0-0.9,0.1c-0.2,0.1-0.3,0.2-0.5,0.4c-0.1,0.2-0.2,0.4-0.2,0.6c0,0.4,0.2,0.8,0.4,1.1c0.3,0.3,0.8,0.4,1.4,0.4h3.6v1.1
	h-4c-0.5,0-0.8,0.1-1.1,0.3c-0.2,0.2-0.3,0.5-0.3,0.8c0,0.3,0.1,0.6,0.2,0.8s0.4,0.4,0.7,0.5c0.3,0.1,0.7,0.2,1.3,0.2h3.2V56.5"/>
<path class="st2" d="M2.9,36.8c0.1-0.4,0.3-0.7,0.5-0.9c0.3-0.2,0.6-0.3,1-0.3c0.6,0,1.1,0.2,1.4,0.6c0.3,0.4,0.5,1,0.5,1.8
	c0,0.3,0,0.5-0.1,0.8c0,0.3-0.1,0.6-0.2,0.8H5.3c0.1-0.2,0.2-0.5,0.3-0.8c0.1-0.3,0.1-0.6,0.1-0.9c0-0.5-0.1-0.9-0.3-1.2
	s-0.5-0.4-0.9-0.4c-0.4,0-0.6,0.1-0.8,0.4c-0.2,0.3-0.3,0.6-0.3,1.1v0.7H2.6v-0.7c0-0.4-0.1-0.7-0.2-0.9c-0.2-0.2-0.4-0.3-0.7-0.3
	c-0.3,0-0.6,0.1-0.7,0.3c-0.2,0.2-0.3,0.5-0.3,1c0,0.2,0,0.5,0.1,0.7S0.9,39,1,39.4H0.3c-0.1-0.3-0.2-0.6-0.2-0.9
	C0,38.2,0,37.9,0,37.7c0-0.6,0.1-1.1,0.4-1.5c0.3-0.4,0.7-0.6,1.2-0.6c0.3,0,0.6,0.1,0.9,0.3C2.7,36.1,2.8,36.4,2.9,36.8"/>
<path class="st2" d="M13.3,33v0.8C11.5,32.6,9.6,32,7.7,32c-0.7,0-1.5,0.1-2.2,0.3c-0.6,0.1-1.1,0.3-1.7,0.6
	c-0.3,0.2-0.9,0.5-1.8,0.9V33c1-0.7,2-1.3,3-1.6c0.9-0.3,1.8-0.5,2.7-0.5c1.1,0,2.1,0.2,3.1,0.6C11.8,32,12.6,32.4,13.3,33"/>
<g>
	<defs>
		<rect id="SVGID_31_" x="-4.1" y="32.1" width="14.2" height="23.6"/>
	</defs>
	<clipPath id="SVGID_32_">
		<use xlink:href="#SVGID_31_"  style="overflow:visible;"/>
	</clipPath>
	<polyline class="st17" points="3.3,46.3 3.3,41.1 3.9,41.1 3.9,46.3 3.3,46.3 	"/>
</g>
<g>
	<defs>
		<rect id="SVGID_33_" x="39.7" y="0.7" width="558" height="176.4"/>
	</defs>
	<clipPath id="SVGID_34_">
		<use xlink:href="#SVGID_33_"  style="overflow:visible;"/>
	</clipPath>
	<polyline class="st18" points="39.7,67.8 43.4,8.7 47.1,88 50.8,56.9 54.5,79 58.2,83.9 61.9,85.3 65.6,66.1 69.3,72.2 73,59.8 
		76.7,81 80.4,52.3 84.1,73.8 87.8,91.2 91.5,72.1 95.2,64.5 98.9,62.4 102.6,68.5 106.3,69.8 110,67.1 113.7,77 117.4,68.3 
		121,73.4 124.7,69.9 128.4,80.2 132.1,68.2 135.8,75.9 139.5,69.1 143.2,66.4 146.9,67.3 150.6,64.8 158,86.4 161.7,74.6 
		165.4,60.8 169.1,65.6 172.8,68.1 176.5,75.5 180.2,80.2 183.9,74.2 187.6,67.4 191.3,65.3 195,60.9 198.6,80 202.3,64.1 206,80.8 
		209.7,63.4 213.4,70.4 217.1,69.8 220.8,71.1 224.5,73.3 228.2,66.8 231.9,73.1 235.6,73.9 239.3,79.1 243,69.1 246.7,80.7 
		250.4,71.1 254.1,68.6 257.8,63.9 261.5,71.1 265.2,73.7 268.9,79.7 272.6,73.1 276.3,79.9 279.9,71.6 283.6,71.2 287.3,73.6 
		291,68.5 294.7,71.9 298.4,77.6 302.1,77.3 305.8,71.6 309.5,75.7 313.2,73.7 316.9,76.5 320.6,69.4 324.3,77.6 328,68.2 
		331.7,71.3 335.4,73.3 339.1,79.6 342.8,75.4 346.5,76.1 350.2,72.5 353.9,76 357.5,75.7 361.2,74 364.9,70.8 368.6,78.1 
		372.3,70.3 376,66.4 379.7,64.7 383.4,64.8 387.1,71.1 390.8,72.4 394.5,75.5 398.2,85.8 401.9,80.9 405.6,78.8 409.3,84 413,92.3 
		416.7,100.4 420.4,104.4 424.1,113.1 427.8,119.1 431.5,132.2 435.2,140.2 438.8,141.1 442.5,144.5 446.2,156 449.9,164.2 
		453.6,167.5 457.3,168.5 461,169 464.7,168.9 472.1,169 594.1,169 	"/>
</g>
<line class="st19" x1="39.7" y1="177.1" x2="39.7" y2="0.7"/>
<line class="st19" x1="597.7" y1="177.1" x2="597.7" y2="0.7"/>
<line class="st19" x1="39.7" y1="177.1" x2="597.7" y2="177.1"/>
<line class="st19" x1="39.7" y1="0.7" x2="597.7" y2="0.7"/>
<g>
	<path class="st20" d="M518.2,25.1H590c1.5,0,2.2-0.7,2.2-2.2V8.4c0-1.5-0.7-2.2-2.2-2.2h-71.9c-1.5,0-2.2,0.7-2.2,2.2v14.6
		C516,24.4,516.7,25.1,518.2,25.1z"/>
	<path class="st21" d="M518.2,25.1H590c1.5,0,2.2-0.7,2.2-2.2V8.4c0-1.5-0.7-2.2-2.2-2.2h-71.9c-1.5,0-2.2,0.7-2.2,2.2v14.6
		C516,24.4,516.7,25.1,518.2,25.1z"/>
</g>
<line class="st22" x1="520.4" y1="14.6" x2="542.4" y2="14.6"/>
<path class="st2" d="M553.1,17.5h1.7c0.5,0,0.9,0,1.2-0.1c0.3-0.1,0.5-0.2,0.7-0.4c0.2-0.2,0.4-0.6,0.6-1c0.1-0.4,0.2-0.9,0.2-1.5
	c0-0.8-0.1-1.5-0.4-1.9c-0.3-0.4-0.6-0.7-1-0.9c-0.3-0.1-0.7-0.2-1.4-0.2h-1.6V17.5 M552,18.4v-7.9h2.7c0.6,0,1.1,0,1.4,0.1
	c0.5,0.1,0.8,0.3,1.2,0.6c0.4,0.4,0.7,0.8,0.9,1.3c0.2,0.5,0.3,1.2,0.3,1.9c0,0.6-0.1,1.1-0.2,1.6c-0.1,0.5-0.3,0.8-0.5,1.1
	c-0.2,0.3-0.5,0.5-0.7,0.7c-0.3,0.2-0.6,0.3-0.9,0.4c-0.4,0.1-0.8,0.1-1.3,0.1H552"/>
<path class="st2" d="M560.6,15h3.2c0-0.5-0.2-0.8-0.4-1.1c-0.3-0.4-0.7-0.6-1.2-0.6c-0.5,0-0.8,0.2-1.1,0.5
	C560.8,14.1,560.6,14.5,560.6,15 M563.7,16.6l1,0.1c-0.2,0.6-0.5,1-0.9,1.4c-0.4,0.3-1,0.5-1.6,0.5c-0.8,0-1.5-0.3-2-0.8
	s-0.7-1.2-0.7-2.2c0-1,0.2-1.7,0.7-2.2c0.5-0.5,1.1-0.8,1.9-0.8c0.8,0,1.4,0.3,1.9,0.8c0.5,0.5,0.7,1.2,0.7,2.2c0,0.1,0,0.1,0,0.3
	h-4.3c0,0.6,0.2,1.1,0.5,1.4c0.3,0.3,0.7,0.5,1.2,0.5c0.4,0,0.7-0.1,0.9-0.3C563.4,17.3,563.6,17,563.7,16.6"/>
<path class="st2" d="M565.9,18.4v-5.7h0.9v0.8c0.4-0.6,1-0.9,1.8-0.9c0.3,0,0.7,0.1,0.9,0.2s0.5,0.3,0.6,0.5s0.2,0.4,0.3,0.7
	c0,0.2,0.1,0.5,0.1,0.9v3.5h-1V15c0-0.4,0-0.7-0.1-0.9c-0.1-0.2-0.2-0.4-0.4-0.5c-0.2-0.1-0.4-0.2-0.7-0.2c-0.4,0-0.8,0.1-1.1,0.4
	c-0.3,0.3-0.4,0.8-0.4,1.5v3.1H565.9"/>
<path class="st2" d="M571.7,16.7l1-0.1c0,0.4,0.2,0.7,0.4,0.9s0.6,0.3,1,0.3s0.8-0.1,1-0.3c0.2-0.2,0.3-0.4,0.3-0.6
	c0-0.2-0.1-0.4-0.3-0.5c-0.1-0.1-0.5-0.2-1-0.3c-0.7-0.2-1.2-0.3-1.5-0.5c-0.3-0.1-0.5-0.3-0.6-0.5c-0.1-0.2-0.2-0.5-0.2-0.8
	c0-0.3,0.1-0.5,0.2-0.7c0.1-0.2,0.3-0.4,0.5-0.5c0.2-0.1,0.4-0.2,0.6-0.3c0.3-0.1,0.5-0.1,0.8-0.1c0.4,0,0.8,0.1,1.2,0.2
	c0.3,0.1,0.6,0.3,0.8,0.5c0.2,0.2,0.3,0.5,0.3,0.9l-0.9,0.1c0-0.3-0.2-0.5-0.4-0.7c-0.2-0.2-0.5-0.3-0.9-0.3c-0.5,0-0.8,0.1-1,0.2
	c-0.2,0.2-0.3,0.3-0.3,0.5c0,0.1,0,0.2,0.1,0.3c0.1,0.1,0.2,0.2,0.4,0.3c0.1,0,0.4,0.1,0.8,0.3c0.7,0.2,1.2,0.3,1.4,0.4
	c0.3,0.1,0.5,0.3,0.6,0.5c0.2,0.2,0.2,0.5,0.2,0.8c0,0.3-0.1,0.6-0.3,0.9c-0.2,0.3-0.5,0.5-0.8,0.6c-0.4,0.2-0.8,0.2-1.2,0.2
	c-0.7,0-1.3-0.1-1.7-0.5C572,17.8,571.8,17.3,571.7,16.7"/>
<path class="st2" d="M577.6,18.4v-5.7h1v5.7H577.6 M577.6,11.7v-1.1h1v1.1H577.6"/>
<path class="st2" d="M582.1,17.6l0.1,0.9c-0.3,0-0.5,0.1-0.7,0.1c-0.4,0-0.6-0.1-0.8-0.2c-0.2-0.1-0.3-0.3-0.4-0.4
	c-0.1-0.2-0.1-0.6-0.1-1.1v-3.3h-0.7v-0.8h0.7v-1.4l1-0.6v2h1v0.8h-1v3.3c0,0.3,0,0.5,0.1,0.5c0,0.1,0.1,0.1,0.2,0.2
	c0.1,0,0.2,0.1,0.3,0.1C581.8,17.6,581.9,17.6,582.1,17.6"/>
<path class="st2" d="M583,20.6l-0.1-0.9c0.2,0.1,0.4,0.1,0.6,0.1c0.2,0,0.4,0,0.5-0.1c0.1-0.1,0.2-0.2,0.3-0.3
	c0.1-0.1,0.2-0.3,0.3-0.7c0-0.1,0-0.1,0.1-0.2l-2.2-5.7h1l1.2,3.3c0.2,0.4,0.3,0.9,0.4,1.3c0.1-0.4,0.2-0.9,0.4-1.3l1.2-3.3h1
	l-2.2,5.8c-0.2,0.6-0.4,1-0.5,1.3c-0.2,0.3-0.4,0.5-0.6,0.7c-0.2,0.1-0.5,0.2-0.8,0.2C583.4,20.7,583.2,20.7,583,20.6"/>
<rect x="39.7" y="212.3" class="st0" width="558" height="176.4"/>
<g>
	<defs>
		<rect id="SVGID_35_" x="39.7" y="212.3" width="558" height="176.4"/>
	</defs>
	<clipPath id="SVGID_36_">
		<use xlink:href="#SVGID_35_"  style="overflow:visible;"/>
	</clipPath>
	<line class="st23" x1="39.7" y1="388.7" x2="39.7" y2="212.3"/>
</g>
<path class="st2" d="M38.1,402.2c0,1.3,0.1,2.2,0.5,2.6c0.3,0.4,0.7,0.6,1.1,0.6c0.4,0,0.8-0.2,1.1-0.6c0.3-0.4,0.5-1.3,0.5-2.6
	s-0.2-2.2-0.5-2.6c-0.3-0.4-0.7-0.6-1.1-0.6c-0.5,0-0.8,0.2-1.1,0.6C38.3,400,38.1,400.9,38.1,402.2 M37.1,402.2
	c0-0.9,0.1-1.7,0.3-2.2c0.2-0.6,0.5-1,0.8-1.3c0.4-0.3,0.9-0.5,1.4-0.5c0.4,0,0.8,0.1,1.1,0.3c0.3,0.2,0.6,0.4,0.8,0.7
	s0.4,0.7,0.5,1.2c0.1,0.5,0.2,1.1,0.2,1.9c0,0.9-0.1,1.7-0.3,2.2c-0.2,0.6-0.5,1-0.8,1.3c-0.4,0.3-0.9,0.5-1.4,0.5
	c-0.8,0-1.4-0.3-1.8-0.8C37.4,404.8,37.1,403.7,37.1,402.2"/>
<g>
	<defs>
		<rect id="SVGID_37_" x="39.7" y="212.3" width="558" height="176.4"/>
	</defs>
	<clipPath id="SVGID_38_">
		<use xlink:href="#SVGID_37_"  style="overflow:visible;"/>
	</clipPath>
	<line class="st24" x1="141.2" y1="388.7" x2="141.2" y2="212.3"/>
</g>
<path class="st2" d="M142.2,406.1h-1v-6.2c-0.2,0.2-0.5,0.5-0.9,0.7c-0.4,0.2-0.7,0.4-1,0.5v-0.9c0.5-0.3,1-0.6,1.4-0.9
	c0.4-0.4,0.7-0.7,0.9-1.1h0.6V406.1"/>
<g>
	<defs>
		<rect id="SVGID_39_" x="39.7" y="212.3" width="558" height="176.4"/>
	</defs>
	<clipPath id="SVGID_40_">
		<use xlink:href="#SVGID_39_"  style="overflow:visible;"/>
	</clipPath>
	<line class="st25" x1="242.7" y1="388.7" x2="242.7" y2="212.3"/>
</g>
<path class="st2" d="M245.1,405.2v0.9h-5.2c0-0.2,0-0.5,0.1-0.7c0.1-0.4,0.3-0.7,0.6-1c0.3-0.3,0.7-0.7,1.3-1.2
	c0.9-0.7,1.4-1.2,1.7-1.7c0.3-0.4,0.5-0.8,0.5-1.2c0-0.4-0.1-0.7-0.4-1c-0.3-0.3-0.6-0.4-1.1-0.4c-0.5,0-0.8,0.1-1.1,0.4
	c-0.3,0.3-0.4,0.7-0.4,1.2l-1-0.1c0.1-0.7,0.3-1.3,0.8-1.7c0.4-0.4,1-0.6,1.8-0.6s1.4,0.2,1.8,0.6s0.7,0.9,0.7,1.6
	c0,0.3-0.1,0.6-0.2,0.9c-0.1,0.3-0.3,0.6-0.6,1c-0.3,0.3-0.8,0.8-1.5,1.4c-0.6,0.5-1,0.8-1.1,1c-0.2,0.2-0.3,0.4-0.4,0.5H245.1"/>
<g>
	<defs>
		<rect id="SVGID_41_" x="39.7" y="212.3" width="558" height="176.4"/>
	</defs>
	<clipPath id="SVGID_42_">
		<use xlink:href="#SVGID_41_"  style="overflow:visible;"/>
	</clipPath>
	<line class="st26" x1="344.1" y1="388.7" x2="344.1" y2="212.3"/>
</g>
<path class="st2" d="M341.5,404l1-0.1c0.1,0.5,0.3,0.9,0.6,1.2c0.3,0.2,0.6,0.4,1,0.4c0.5,0,0.8-0.2,1.1-0.5
	c0.3-0.3,0.5-0.7,0.5-1.2c0-0.4-0.2-0.8-0.4-1.1c-0.3-0.3-0.7-0.4-1.1-0.4c-0.2,0-0.4,0-0.7,0.1l0.1-0.8c0.1,0,0.1,0,0.2,0
	c0.4,0,0.8-0.1,1.1-0.3c0.3-0.2,0.5-0.5,0.5-1c0-0.4-0.1-0.6-0.4-0.9s-0.6-0.4-0.9-0.4s-0.7,0.1-0.9,0.4c-0.3,0.2-0.4,0.6-0.5,1.1
	l-1-0.2c0.1-0.6,0.4-1.2,0.8-1.5s0.9-0.5,1.6-0.5c0.4,0,0.8,0.1,1.2,0.3c0.4,0.2,0.6,0.4,0.8,0.7c0.2,0.3,0.3,0.7,0.3,1
	c0,0.4-0.1,0.7-0.3,0.9c-0.2,0.3-0.5,0.5-0.8,0.7c0.5,0.1,0.8,0.3,1.1,0.7c0.3,0.3,0.4,0.8,0.4,1.3c0,0.7-0.3,1.3-0.8,1.7
	c-0.5,0.5-1.1,0.7-1.9,0.7c-0.7,0-1.3-0.2-1.7-0.6C341.8,405.2,341.6,404.7,341.5,404"/>
<g>
	<defs>
		<rect id="SVGID_43_" x="39.7" y="212.3" width="558" height="176.4"/>
	</defs>
	<clipPath id="SVGID_44_">
		<use xlink:href="#SVGID_43_"  style="overflow:visible;"/>
	</clipPath>
	<line class="st27" x1="445.6" y1="388.7" x2="445.6" y2="212.3"/>
</g>
<path class="st2" d="M446.1,403.3v-3.6l-2.5,3.6H446.1 M446.1,406.1v-1.9h-3.4v-0.9l3.6-5.1h0.8v5.1h1.1v0.9H447v1.9H446.1"/>
<g>
	<defs>
		<rect id="SVGID_45_" x="39.7" y="212.3" width="558" height="176.4"/>
	</defs>
	<clipPath id="SVGID_46_">
		<use xlink:href="#SVGID_45_"  style="overflow:visible;"/>
	</clipPath>
	<line class="st28" x1="547" y1="388.7" x2="547" y2="212.3"/>
</g>
<path class="st2" d="M544.4,404l1-0.1c0.1,0.5,0.2,0.9,0.5,1.1c0.3,0.3,0.6,0.4,1,0.4c0.5,0,0.9-0.2,1.2-0.5
	c0.3-0.4,0.5-0.8,0.5-1.4c0-0.6-0.2-1-0.5-1.3s-0.7-0.5-1.2-0.5c-0.3,0-0.6,0.1-0.8,0.2s-0.5,0.3-0.6,0.5l-0.9-0.1l0.8-4h3.9v0.9
	h-3.1l-0.4,2.1c0.5-0.3,1-0.5,1.5-0.5c0.7,0,1.3,0.2,1.7,0.7c0.5,0.5,0.7,1.1,0.7,1.8c0,0.7-0.2,1.3-0.6,1.8
	c-0.5,0.6-1.2,0.9-2.1,0.9c-0.7,0-1.3-0.2-1.7-0.6C544.7,405.2,544.5,404.7,544.4,404"/>
<path class="st2" d="M233.1,420h1.8c0.6,0,1,0,1.3-0.2c0.3-0.1,0.6-0.3,0.8-0.5c0.3-0.3,0.5-0.6,0.6-1.1c0.1-0.5,0.2-1,0.2-1.7
	c0-0.9-0.2-1.6-0.4-2.1c-0.3-0.5-0.6-0.8-1.1-1c-0.3-0.1-0.8-0.2-1.5-0.2h-1.8V420 M232,421v-8.6h3c0.7,0,1.2,0,1.5,0.1
	c0.5,0.1,0.9,0.3,1.3,0.6c0.5,0.4,0.8,0.9,1,1.5c0.2,0.6,0.3,1.3,0.3,2c0,0.7-0.1,1.2-0.2,1.7c-0.2,0.5-0.3,0.9-0.6,1.2
	c-0.2,0.3-0.5,0.6-0.8,0.8c-0.3,0.2-0.6,0.3-1,0.4c-0.4,0.1-0.9,0.1-1.4,0.1H232"/>
<path class="st2" d="M240.5,421v-6.2h1.1v6.2H240.5 M240.5,413.6v-1.2h1.1v1.2H240.5"/>
<path class="st2" d="M242.8,419.2l1-0.2c0,0.4,0.2,0.7,0.5,1s0.6,0.3,1.1,0.3c0.5,0,0.8-0.1,1.1-0.3c0.2-0.2,0.3-0.4,0.3-0.7
	c0-0.2-0.1-0.4-0.3-0.6c-0.1-0.1-0.5-0.2-1.1-0.4c-0.8-0.2-1.3-0.4-1.6-0.5c-0.3-0.1-0.5-0.3-0.7-0.6c-0.2-0.3-0.2-0.5-0.2-0.8
	c0-0.3,0.1-0.5,0.2-0.8c0.1-0.2,0.3-0.4,0.5-0.6c0.2-0.1,0.4-0.2,0.7-0.3c0.3-0.1,0.6-0.1,0.9-0.1c0.5,0,0.9,0.1,1.3,0.2
	c0.4,0.1,0.6,0.3,0.8,0.6c0.2,0.2,0.3,0.6,0.4,1l-1,0.1c0-0.3-0.2-0.6-0.4-0.7c-0.2-0.2-0.5-0.3-0.9-0.3c-0.5,0-0.8,0.1-1,0.2
	c-0.2,0.2-0.3,0.3-0.3,0.6c0,0.1,0,0.3,0.1,0.4c0.1,0.1,0.2,0.2,0.4,0.3c0.1,0,0.4,0.1,0.9,0.3c0.7,0.2,1.3,0.4,1.6,0.5
	c0.3,0.1,0.5,0.3,0.7,0.6s0.3,0.5,0.3,0.9c0,0.4-0.1,0.7-0.3,1c-0.2,0.3-0.5,0.5-0.9,0.7s-0.8,0.3-1.3,0.3c-0.8,0-1.4-0.2-1.8-0.5
	C243.1,420.3,242.9,419.8,242.8,419.2"/>
<path class="st2" d="M251.5,420.1l0.2,0.9c-0.3,0-0.6,0.1-0.8,0.1c-0.4,0-0.7-0.1-0.9-0.2c-0.2-0.1-0.4-0.3-0.4-0.5
	c-0.1-0.2-0.1-0.6-0.1-1.2v-3.6h-0.8v-0.8h0.8v-1.5l1-0.6v2.2h1.1v0.8h-1.1v3.6c0,0.3,0,0.5,0.1,0.6c0,0.1,0.1,0.2,0.2,0.2
	c0.1,0,0.2,0.1,0.4,0.1C251.1,420.1,251.3,420.1,251.5,420.1"/>
<path class="st2" d="M256.5,417.9c-0.4,0.2-1,0.3-1.7,0.4c-0.4,0.1-0.7,0.1-0.9,0.2s-0.3,0.2-0.4,0.3c-0.1,0.2-0.1,0.3-0.1,0.5
	c0,0.3,0.1,0.5,0.3,0.7c0.2,0.2,0.5,0.3,0.9,0.3c0.4,0,0.8-0.1,1.1-0.3s0.6-0.4,0.7-0.7c0.1-0.2,0.2-0.6,0.2-1.1V417.9 M256.6,420.3
	c-0.4,0.3-0.8,0.6-1.1,0.7c-0.4,0.1-0.8,0.2-1.2,0.2c-0.7,0-1.2-0.2-1.6-0.5c-0.4-0.3-0.6-0.8-0.6-1.3c0-0.3,0.1-0.6,0.2-0.8
	c0.1-0.3,0.3-0.5,0.6-0.6c0.2-0.1,0.5-0.3,0.8-0.3c0.2,0,0.5-0.1,0.9-0.2c0.9-0.1,1.5-0.2,1.9-0.4c0-0.1,0-0.2,0-0.3
	c0-0.4-0.1-0.7-0.3-0.9c-0.3-0.2-0.7-0.4-1.2-0.4c-0.5,0-0.9,0.1-1.1,0.3c-0.2,0.2-0.4,0.5-0.5,0.9l-1-0.1c0.1-0.4,0.3-0.8,0.5-1.1
	c0.2-0.3,0.5-0.5,0.9-0.6c0.4-0.1,0.9-0.2,1.4-0.2c0.5,0,1,0.1,1.3,0.2s0.6,0.3,0.7,0.5c0.2,0.2,0.3,0.4,0.3,0.7
	c0,0.2,0.1,0.5,0.1,1v1.4c0,1,0,1.6,0.1,1.9c0,0.3,0.1,0.5,0.3,0.7h-1.1C256.7,420.8,256.6,420.6,256.6,420.3"/>
<path class="st2" d="M259.2,421v-6.2h0.9v0.9c0.5-0.7,1.1-1,2-1c0.4,0,0.7,0.1,1,0.2c0.3,0.1,0.6,0.3,0.7,0.5s0.3,0.5,0.3,0.8
	c0,0.2,0.1,0.5,0.1,1v3.8h-1.1v-3.8c0-0.4,0-0.7-0.1-1c-0.1-0.2-0.2-0.4-0.4-0.5c-0.2-0.1-0.5-0.2-0.7-0.2c-0.5,0-0.9,0.1-1.2,0.4
	s-0.5,0.8-0.5,1.6v3.4H259.2"/>
<path class="st2" d="M269.9,418.7l1,0.1c-0.1,0.7-0.4,1.3-0.9,1.7c-0.5,0.4-1,0.6-1.7,0.6c-0.9,0-1.5-0.3-2.1-0.8
	c-0.5-0.6-0.8-1.3-0.8-2.4c0-0.7,0.1-1.3,0.3-1.8c0.2-0.5,0.6-0.9,1-1.1c0.5-0.3,0.9-0.4,1.5-0.4c0.7,0,1.2,0.2,1.7,0.5
	s0.7,0.8,0.8,1.5l-1,0.2c-0.1-0.4-0.3-0.7-0.5-0.9c-0.3-0.2-0.6-0.3-0.9-0.3c-0.5,0-1,0.2-1.3,0.6c-0.3,0.4-0.5,1-0.5,1.8
	c0,0.8,0.2,1.5,0.5,1.8c0.3,0.4,0.7,0.6,1.3,0.6c0.4,0,0.8-0.1,1-0.4C269.7,419.7,269.8,419.3,269.9,418.7"/>
<path class="st2" d="M272.7,417.3h3.5c0-0.5-0.2-0.9-0.4-1.2c-0.3-0.4-0.8-0.6-1.3-0.6c-0.5,0-0.9,0.2-1.2,0.5
	C272.9,416.3,272.7,416.8,272.7,417.3 M276.1,419l1.1,0.1c-0.2,0.6-0.5,1.1-1,1.5c-0.5,0.3-1.1,0.5-1.8,0.5c-0.9,0-1.6-0.3-2.2-0.8
	c-0.5-0.6-0.8-1.3-0.8-2.4c0-1,0.3-1.9,0.8-2.4c0.5-0.6,1.2-0.9,2.1-0.9c0.8,0,1.5,0.3,2,0.9c0.5,0.6,0.8,1.4,0.8,2.4
	c0,0.1,0,0.2,0,0.3h-4.6c0,0.7,0.2,1.2,0.6,1.6c0.3,0.4,0.8,0.5,1.3,0.5c0.4,0,0.7-0.1,1-0.3C275.7,419.8,276,419.5,276.1,419"/>
<path class="st2" d="M282.1,421v-5.4h-0.9v-0.8h0.9v-0.7c0-0.4,0-0.7,0.1-0.9c0.1-0.3,0.3-0.5,0.5-0.7c0.3-0.2,0.6-0.3,1.1-0.3
	c0.3,0,0.6,0,1,0.1l-0.2,0.9c-0.2,0-0.4,0-0.6,0c-0.3,0-0.6,0.1-0.7,0.2c-0.1,0.1-0.2,0.4-0.2,0.8v0.6h1.2v0.8h-1.2v5.4H282.1"/>
<path class="st2" d="M285.2,421v-6.2h0.9v0.9c0.2-0.4,0.5-0.7,0.7-0.9c0.2-0.1,0.4-0.2,0.7-0.2c0.4,0,0.7,0.1,1.1,0.3l-0.4,1
	c-0.3-0.1-0.5-0.2-0.8-0.2c-0.2,0-0.4,0.1-0.6,0.2c-0.2,0.1-0.3,0.3-0.4,0.6c-0.1,0.4-0.2,0.8-0.2,1.2v3.3H285.2"/>
<path class="st2" d="M289.9,417.9c0,0.8,0.2,1.4,0.5,1.8c0.3,0.4,0.8,0.6,1.3,0.6c0.5,0,1-0.2,1.3-0.6s0.5-1,0.5-1.8
	c0-0.8-0.2-1.3-0.5-1.8c-0.4-0.4-0.8-0.6-1.3-0.6c-0.5,0-1,0.2-1.3,0.6C290.1,416.5,289.9,417.1,289.9,417.9 M288.8,417.9
	c0-1.2,0.3-2,1-2.6c0.5-0.5,1.2-0.7,2-0.7c0.9,0,1.5,0.3,2.1,0.8c0.5,0.6,0.8,1.3,0.8,2.3c0,0.8-0.1,1.4-0.4,1.9
	c-0.2,0.5-0.6,0.8-1.1,1.1c-0.5,0.2-1,0.4-1.5,0.4c-0.9,0-1.6-0.3-2.1-0.8C289.1,419.8,288.8,419,288.8,417.9"/>
<path class="st2" d="M295.9,421v-6.2h0.9v0.9c0.2-0.3,0.4-0.5,0.8-0.7c0.3-0.2,0.7-0.3,1.1-0.3c0.5,0,0.8,0.1,1.1,0.3
	c0.3,0.2,0.5,0.5,0.6,0.8c0.5-0.7,1.1-1.1,1.9-1.1c0.6,0,1.1,0.2,1.4,0.5s0.5,0.9,0.5,1.6v4.3h-1.1v-3.9c0-0.4,0-0.7-0.1-0.9
	c-0.1-0.2-0.2-0.3-0.4-0.5c-0.2-0.1-0.4-0.2-0.6-0.2c-0.4,0-0.8,0.2-1.1,0.4c-0.3,0.3-0.4,0.8-0.4,1.4v3.6h-1.1v-4
	c0-0.5-0.1-0.8-0.3-1.1c-0.2-0.2-0.5-0.3-0.8-0.3c-0.3,0-0.6,0.1-0.8,0.2s-0.4,0.4-0.5,0.7c-0.1,0.3-0.2,0.7-0.2,1.3v3.2H295.9"/>
<path class="st2" d="M309.2,421v-6.2h0.9v0.9c0.2-0.4,0.5-0.7,0.7-0.9c0.2-0.1,0.4-0.2,0.7-0.2c0.4,0,0.7,0.1,1.1,0.3l-0.4,1
	c-0.3-0.1-0.5-0.2-0.8-0.2c-0.2,0-0.4,0.1-0.6,0.2c-0.2,0.1-0.3,0.3-0.4,0.6c-0.1,0.4-0.2,0.8-0.2,1.2v3.3H309.2"/>
<path class="st2" d="M314,417.3h3.5c0-0.5-0.2-0.9-0.4-1.2c-0.3-0.4-0.8-0.6-1.3-0.6c-0.5,0-0.9,0.2-1.2,0.5
	C314.2,416.3,314,416.8,314,417.3 M317.5,419l1.1,0.1c-0.2,0.6-0.5,1.1-1,1.5c-0.5,0.3-1.1,0.5-1.8,0.5c-0.9,0-1.6-0.3-2.2-0.8
	c-0.5-0.6-0.8-1.3-0.8-2.4c0-1,0.3-1.9,0.8-2.4c0.5-0.6,1.2-0.9,2.1-0.9c0.8,0,1.5,0.3,2,0.9c0.5,0.6,0.8,1.4,0.8,2.4
	c0,0.1,0,0.2,0,0.3h-4.6c0,0.7,0.2,1.2,0.6,1.6c0.3,0.4,0.8,0.5,1.3,0.5c0.4,0,0.7-0.1,1-0.3C317.1,419.8,317.3,419.5,317.5,419"/>
<path class="st2" d="M319.5,419.2l1-0.2c0,0.4,0.2,0.7,0.5,1s0.6,0.3,1.1,0.3c0.5,0,0.8-0.1,1.1-0.3c0.2-0.2,0.3-0.4,0.3-0.7
	c0-0.2-0.1-0.4-0.3-0.6c-0.1-0.1-0.5-0.2-1.1-0.4c-0.8-0.2-1.3-0.4-1.6-0.5c-0.3-0.1-0.5-0.3-0.7-0.6c-0.2-0.3-0.2-0.5-0.2-0.8
	c0-0.3,0.1-0.5,0.2-0.8c0.1-0.2,0.3-0.4,0.5-0.6c0.2-0.1,0.4-0.2,0.7-0.3c0.3-0.1,0.6-0.1,0.9-0.1c0.5,0,0.9,0.1,1.3,0.2
	c0.4,0.1,0.6,0.3,0.8,0.6c0.2,0.2,0.3,0.6,0.4,1l-1,0.1c0-0.3-0.2-0.6-0.4-0.7c-0.2-0.2-0.5-0.3-0.9-0.3c-0.5,0-0.8,0.1-1,0.2
	c-0.2,0.2-0.3,0.3-0.3,0.6c0,0.1,0,0.3,0.1,0.4c0.1,0.1,0.2,0.2,0.4,0.3c0.1,0,0.4,0.1,0.9,0.3c0.7,0.2,1.3,0.4,1.6,0.5
	c0.3,0.1,0.5,0.3,0.7,0.6s0.3,0.5,0.3,0.9c0,0.4-0.1,0.7-0.3,1c-0.2,0.3-0.5,0.5-0.9,0.7s-0.8,0.3-1.3,0.3c-0.8,0-1.4-0.2-1.8-0.5
	C319.8,420.3,319.6,419.8,319.5,419.2"/>
<path class="st2" d="M326.7,417.3h3.5c0-0.5-0.2-0.9-0.4-1.2c-0.3-0.4-0.8-0.6-1.3-0.6c-0.5,0-0.9,0.2-1.2,0.5
	C326.9,416.3,326.7,416.8,326.7,417.3 M330.1,419l1.1,0.1c-0.2,0.6-0.5,1.1-1,1.5c-0.5,0.3-1.1,0.5-1.8,0.5c-0.9,0-1.6-0.3-2.2-0.8
	c-0.5-0.6-0.8-1.3-0.8-2.4c0-1,0.3-1.9,0.8-2.4c0.5-0.6,1.2-0.9,2.1-0.9c0.8,0,1.5,0.3,2,0.9c0.5,0.6,0.8,1.4,0.8,2.4
	c0,0.1,0,0.2,0,0.3h-4.6c0,0.7,0.2,1.2,0.6,1.6c0.3,0.4,0.8,0.5,1.3,0.5c0.4,0,0.7-0.1,1-0.3C329.7,419.8,330,419.5,330.1,419"/>
<path class="st2" d="M332.5,421v-6.2h0.9v0.9c0.2-0.4,0.5-0.7,0.7-0.9c0.2-0.1,0.4-0.2,0.7-0.2c0.4,0,0.7,0.1,1.1,0.3l-0.4,1
	c-0.3-0.1-0.5-0.2-0.8-0.2c-0.2,0-0.4,0.1-0.6,0.2c-0.2,0.1-0.3,0.3-0.4,0.6c-0.1,0.4-0.2,0.8-0.2,1.2v3.3H332.5"/>
<path class="st2" d="M338.3,421l-2.4-6.2h1.1l1.3,3.7c0.1,0.4,0.3,0.8,0.4,1.2c0.1-0.3,0.2-0.7,0.4-1.2l1.4-3.8h1.1l-2.4,6.2H338.3"
	/>
<path class="st2" d="M343.2,417.9c0,0.8,0.2,1.4,0.5,1.8c0.3,0.4,0.8,0.6,1.3,0.6c0.5,0,1-0.2,1.3-0.6s0.5-1,0.5-1.8
	c0-0.8-0.2-1.3-0.5-1.8c-0.4-0.4-0.8-0.6-1.3-0.6c-0.5,0-1,0.2-1.3,0.6C343.4,416.5,343.2,417.1,343.2,417.9 M342.1,417.9
	c0-1.2,0.3-2,1-2.6c0.5-0.5,1.2-0.7,2-0.7c0.9,0,1.5,0.3,2.1,0.8c0.5,0.6,0.8,1.3,0.8,2.3c0,0.8-0.1,1.4-0.4,1.9
	c-0.2,0.5-0.6,0.8-1.1,1.1c-0.5,0.2-1,0.4-1.5,0.4c-0.9,0-1.6-0.3-2.1-0.8C342.4,419.8,342.1,419,342.1,417.9"/>
<path class="st2" d="M349.2,421v-6.2h1.1v6.2H349.2 M349.2,413.6v-1.2h1.1v1.2H349.2"/>
<path class="st2" d="M351.9,421v-6.2h0.9v0.9c0.2-0.4,0.5-0.7,0.7-0.9c0.2-0.1,0.4-0.2,0.7-0.2c0.4,0,0.7,0.1,1.1,0.3l-0.4,1
	c-0.3-0.1-0.5-0.2-0.8-0.2c-0.2,0-0.4,0.1-0.6,0.2c-0.2,0.1-0.3,0.3-0.4,0.6c-0.1,0.4-0.2,0.8-0.2,1.2v3.3H351.9"/>
<path class="st2" d="M360,417.3h3.5c0-0.5-0.2-0.9-0.4-1.2c-0.3-0.4-0.8-0.6-1.3-0.6c-0.5,0-0.9,0.2-1.2,0.5
	C360.2,416.3,360,416.8,360,417.3 M363.5,419l1.1,0.1c-0.2,0.6-0.5,1.1-1,1.5c-0.5,0.3-1.1,0.5-1.8,0.5c-0.9,0-1.6-0.3-2.2-0.8
	c-0.5-0.6-0.8-1.3-0.8-2.4c0-1,0.3-1.9,0.8-2.4c0.5-0.6,1.2-0.9,2.1-0.9c0.8,0,1.5,0.3,2,0.9c0.5,0.6,0.8,1.4,0.8,2.4
	c0,0.1,0,0.2,0,0.3h-4.6c0,0.7,0.2,1.2,0.6,1.6c0.3,0.4,0.8,0.5,1.3,0.5c0.4,0,0.7-0.1,1-0.3C363.1,419.8,363.3,419.5,363.5,419"/>
<path class="st2" d="M365.9,421v-6.2h0.9v0.9c0.5-0.7,1.1-1,2-1c0.4,0,0.7,0.1,1,0.2c0.3,0.1,0.6,0.3,0.7,0.5s0.3,0.5,0.3,0.8
	c0,0.2,0.1,0.5,0.1,1v3.8h-1.1v-3.8c0-0.4,0-0.7-0.1-1c-0.1-0.2-0.2-0.4-0.4-0.5c-0.2-0.1-0.5-0.2-0.7-0.2c-0.5,0-0.9,0.1-1.2,0.4
	s-0.5,0.8-0.5,1.6v3.4H365.9"/>
<path class="st2" d="M373.3,417.9c0,0.8,0.2,1.4,0.5,1.8c0.3,0.4,0.7,0.6,1.2,0.6c0.5,0,0.8-0.2,1.2-0.6c0.3-0.4,0.5-0.9,0.5-1.7
	c0-0.9-0.2-1.5-0.5-1.9c-0.3-0.4-0.7-0.6-1.2-0.6c-0.5,0-0.9,0.2-1.2,0.6C373.4,416.5,373.3,417.1,373.3,417.9 M376.6,421v-0.8
	c-0.4,0.6-1,0.9-1.7,0.9c-0.5,0-1-0.1-1.4-0.4c-0.4-0.3-0.7-0.6-1-1.1c-0.2-0.5-0.3-1-0.3-1.7c0-0.6,0.1-1.2,0.3-1.7
	c0.2-0.5,0.5-0.9,0.9-1.2c0.4-0.3,0.9-0.4,1.4-0.4c0.4,0,0.7,0.1,1,0.2c0.3,0.2,0.5,0.4,0.7,0.6v-3.1h1.1v8.6H376.6"/>
<path class="st2" d="M384.6,423.5c-0.6-0.7-1.1-1.6-1.5-2.6c-0.4-1-0.6-2-0.6-3.1c0-0.9,0.1-1.8,0.4-2.7c0.3-1,0.9-2,1.6-3h0.8
	c-0.5,0.8-0.8,1.4-0.9,1.7c-0.2,0.5-0.4,1.1-0.6,1.7c-0.2,0.7-0.3,1.5-0.3,2.2c0,1.9,0.6,3.7,1.8,5.6H384.6"/>
<path class="st2" d="M386.6,421v-6.2h0.9v0.9c0.5-0.7,1.1-1,2-1c0.4,0,0.7,0.1,1,0.2c0.3,0.1,0.6,0.3,0.7,0.5s0.3,0.5,0.3,0.8
	c0,0.2,0.1,0.5,0.1,1v3.8h-1.1v-3.8c0-0.4,0-0.7-0.1-1c-0.1-0.2-0.2-0.4-0.4-0.5c-0.2-0.1-0.5-0.2-0.7-0.2c-0.5,0-0.9,0.1-1.2,0.4
	s-0.5,0.8-0.5,1.6v3.4H386.6"/>
<path class="st2" d="M393.2,421v-6.2h0.9v0.9c0.2-0.3,0.4-0.5,0.8-0.7c0.3-0.2,0.7-0.3,1.1-0.3c0.5,0,0.8,0.1,1.1,0.3
	c0.3,0.2,0.5,0.5,0.6,0.8c0.5-0.7,1.1-1.1,1.9-1.1c0.6,0,1.1,0.2,1.4,0.5s0.5,0.9,0.5,1.6v4.3h-1.1v-3.9c0-0.4,0-0.7-0.1-0.9
	c-0.1-0.2-0.2-0.3-0.4-0.5c-0.2-0.1-0.4-0.2-0.6-0.2c-0.4,0-0.8,0.2-1.1,0.4c-0.3,0.3-0.4,0.8-0.4,1.4v3.6h-1.1v-4
	c0-0.5-0.1-0.8-0.3-1.1c-0.2-0.2-0.5-0.3-0.8-0.3c-0.3,0-0.6,0.1-0.8,0.2s-0.4,0.4-0.5,0.7c-0.1,0.3-0.2,0.7-0.2,1.3v3.2H393.2"/>
<path class="st2" d="M403.9,423.5h-0.8c1.2-1.9,1.8-3.7,1.8-5.6c0-0.7-0.1-1.5-0.3-2.2c-0.1-0.6-0.3-1.1-0.6-1.7
	c-0.2-0.3-0.5-0.9-0.9-1.8h0.8c0.7,1,1.3,2,1.6,3c0.3,0.9,0.5,1.8,0.5,2.7c0,1.1-0.2,2.1-0.6,3.1C405,422,404.5,422.8,403.9,423.5"
	/>
<g>
	<defs>
		<rect id="SVGID_47_" x="39.7" y="212.3" width="558" height="176.4"/>
	</defs>
	<clipPath id="SVGID_48_">
		<use xlink:href="#SVGID_47_"  style="overflow:visible;"/>
	</clipPath>
	<line class="st29" x1="39.7" y1="380.7" x2="597.7" y2="380.7"/>
</g>
<path class="st2" d="M25.6,380.8c0,1.3,0.1,2.2,0.5,2.6c0.3,0.4,0.7,0.6,1.1,0.6c0.4,0,0.8-0.2,1.1-0.6c0.3-0.4,0.5-1.3,0.5-2.6
	s-0.2-2.2-0.5-2.6c-0.3-0.4-0.7-0.6-1.1-0.6c-0.5,0-0.8,0.2-1.1,0.6C25.7,378.6,25.6,379.5,25.6,380.8 M24.6,380.8
	c0-0.9,0.1-1.7,0.3-2.2c0.2-0.6,0.5-1,0.8-1.3s0.9-0.5,1.4-0.5c0.4,0,0.8,0.1,1.1,0.3c0.3,0.2,0.6,0.4,0.8,0.7s0.4,0.7,0.5,1.2
	c0.1,0.5,0.2,1.1,0.2,1.9c0,0.9-0.1,1.7-0.3,2.2c-0.2,0.6-0.5,1-0.8,1.3c-0.4,0.3-0.9,0.5-1.4,0.5c-0.8,0-1.4-0.3-1.8-0.8
	C24.8,383.3,24.6,382.3,24.6,380.8"/>
<g>
	<defs>
		<rect id="SVGID_49_" x="39.7" y="212.3" width="558" height="176.4"/>
	</defs>
	<clipPath id="SVGID_50_">
		<use xlink:href="#SVGID_49_"  style="overflow:visible;"/>
	</clipPath>
	<line class="st30" x1="39.7" y1="340.6" x2="597.7" y2="340.6"/>
</g>
<path class="st2" d="M22.1,344.6h-1v-6.2c-0.2,0.2-0.6,0.5-0.9,0.7s-0.7,0.4-1,0.5v-0.9c0.5-0.3,1-0.6,1.4-0.9
	c0.4-0.4,0.7-0.7,0.9-1.1h0.6V344.6"/>
<path class="st2" d="M25.6,340.7c0,1.3,0.1,2.2,0.5,2.6c0.3,0.4,0.7,0.6,1.1,0.6c0.4,0,0.8-0.2,1.1-0.6c0.3-0.4,0.5-1.3,0.5-2.6
	s-0.2-2.2-0.5-2.6c-0.3-0.4-0.7-0.6-1.1-0.6c-0.5,0-0.8,0.2-1.1,0.6C25.7,338.5,25.6,339.4,25.6,340.7 M24.6,340.7
	c0-0.9,0.1-1.7,0.3-2.2c0.2-0.6,0.5-1,0.8-1.3s0.9-0.5,1.4-0.5c0.4,0,0.8,0.1,1.1,0.3c0.3,0.2,0.6,0.4,0.8,0.7s0.4,0.7,0.5,1.2
	c0.1,0.5,0.2,1.1,0.2,1.9c0,0.9-0.1,1.7-0.3,2.2c-0.2,0.6-0.5,1-0.8,1.3c-0.4,0.3-0.9,0.5-1.4,0.5c-0.8,0-1.4-0.3-1.8-0.8
	C24.8,343.2,24.6,342.2,24.6,340.7"/>
<g>
	<defs>
		<rect id="SVGID_51_" x="39.7" y="212.3" width="558" height="176.4"/>
	</defs>
	<clipPath id="SVGID_52_">
		<use xlink:href="#SVGID_51_"  style="overflow:visible;"/>
	</clipPath>
	<line class="st31" x1="39.7" y1="300.5" x2="597.7" y2="300.5"/>
</g>
<path class="st2" d="M23.5,303.5v0.9h-5.2c0-0.2,0-0.5,0.1-0.7c0.1-0.4,0.3-0.7,0.6-1c0.3-0.3,0.7-0.7,1.3-1.2
	c0.9-0.7,1.4-1.2,1.7-1.7c0.3-0.4,0.5-0.8,0.5-1.2c0-0.4-0.1-0.7-0.4-1c-0.3-0.3-0.6-0.4-1.1-0.4c-0.5,0-0.8,0.1-1.1,0.4
	c-0.3,0.3-0.4,0.7-0.4,1.2l-1-0.1c0.1-0.7,0.3-1.3,0.8-1.7c0.4-0.4,1-0.6,1.8-0.6s1.4,0.2,1.8,0.6s0.7,0.9,0.7,1.6
	c0,0.3-0.1,0.6-0.2,0.9c-0.1,0.3-0.3,0.6-0.6,1c-0.3,0.3-0.8,0.8-1.5,1.4c-0.6,0.5-1,0.8-1.1,1s-0.3,0.4-0.4,0.5H23.5"/>
<path class="st2" d="M25.6,300.6c0,1.3,0.1,2.2,0.5,2.6c0.3,0.4,0.7,0.6,1.1,0.6c0.4,0,0.8-0.2,1.1-0.6s0.5-1.3,0.5-2.6
	c0-1.3-0.2-2.2-0.5-2.6c-0.3-0.4-0.7-0.6-1.1-0.6c-0.5,0-0.8,0.2-1.1,0.6C25.7,298.4,25.6,299.3,25.6,300.6 M24.6,300.6
	c0-0.9,0.1-1.7,0.3-2.2c0.2-0.6,0.5-1,0.8-1.3c0.4-0.3,0.9-0.5,1.4-0.5c0.4,0,0.8,0.1,1.1,0.3c0.3,0.2,0.6,0.4,0.8,0.7
	c0.2,0.3,0.4,0.7,0.5,1.2c0.1,0.5,0.2,1.1,0.2,1.9c0,0.9-0.1,1.7-0.3,2.2c-0.2,0.6-0.5,1-0.8,1.3c-0.4,0.3-0.9,0.5-1.4,0.5
	c-0.8,0-1.4-0.3-1.8-0.8C24.8,303.1,24.6,302.1,24.6,300.6"/>
<g>
	<defs>
		<rect id="SVGID_53_" x="39.7" y="212.3" width="558" height="176.4"/>
	</defs>
	<clipPath id="SVGID_54_">
		<use xlink:href="#SVGID_53_"  style="overflow:visible;"/>
	</clipPath>
	<line class="st32" x1="39.7" y1="260.4" x2="597.7" y2="260.4"/>
</g>
<path class="st2" d="M18.5,262.3l1-0.1c0.1,0.5,0.3,0.9,0.6,1.2s0.6,0.4,1,0.4c0.5,0,0.8-0.2,1.1-0.5c0.3-0.3,0.5-0.7,0.5-1.2
	c0-0.4-0.2-0.8-0.4-1.1c-0.3-0.3-0.7-0.4-1.1-0.4c-0.2,0-0.4,0-0.7,0.1l0.1-0.8c0.1,0,0.1,0,0.2,0c0.4,0,0.8-0.1,1.1-0.3
	c0.3-0.2,0.5-0.6,0.5-1c0-0.4-0.1-0.6-0.4-0.9c-0.2-0.2-0.6-0.4-0.9-0.4s-0.7,0.1-0.9,0.4c-0.3,0.2-0.4,0.6-0.5,1.1l-1-0.2
	c0.1-0.6,0.4-1.2,0.8-1.5s0.9-0.5,1.6-0.5c0.4,0,0.8,0.1,1.2,0.3c0.4,0.2,0.6,0.4,0.8,0.7c0.2,0.3,0.3,0.7,0.3,1
	c0,0.4-0.1,0.7-0.3,0.9c-0.2,0.3-0.5,0.5-0.8,0.7c0.5,0.1,0.8,0.3,1.1,0.7c0.3,0.3,0.4,0.8,0.4,1.3c0,0.7-0.3,1.3-0.8,1.7
	c-0.5,0.5-1.1,0.7-1.9,0.7c-0.7,0-1.3-0.2-1.7-0.6C18.8,263.5,18.5,262.9,18.5,262.3"/>
<path class="st2" d="M25.6,260.5c0,1.3,0.1,2.2,0.5,2.6c0.3,0.4,0.7,0.6,1.1,0.6c0.4,0,0.8-0.2,1.1-0.6s0.5-1.3,0.5-2.6
	c0-1.3-0.2-2.2-0.5-2.6c-0.3-0.4-0.7-0.6-1.1-0.6c-0.5,0-0.8,0.2-1.1,0.6C25.7,258.3,25.6,259.2,25.6,260.5 M24.6,260.5
	c0-0.9,0.1-1.7,0.3-2.2c0.2-0.6,0.5-1,0.8-1.3c0.4-0.3,0.9-0.5,1.4-0.5c0.4,0,0.8,0.1,1.1,0.3c0.3,0.2,0.6,0.4,0.8,0.7
	c0.2,0.3,0.4,0.7,0.5,1.2c0.1,0.5,0.2,1.1,0.2,1.9c0,0.9-0.1,1.7-0.3,2.2c-0.2,0.6-0.5,1-0.8,1.3c-0.4,0.3-0.9,0.5-1.4,0.5
	c-0.8,0-1.4-0.3-1.8-0.8C24.8,263,24.6,262,24.6,260.5"/>
<g>
	<defs>
		<rect id="SVGID_55_" x="39.7" y="212.3" width="558" height="176.4"/>
	</defs>
	<clipPath id="SVGID_56_">
		<use xlink:href="#SVGID_55_"  style="overflow:visible;"/>
	</clipPath>
	<line class="st33" x1="39.7" y1="220.3" x2="597.7" y2="220.3"/>
</g>
<path class="st2" d="M21.6,221.5v-3.6l-2.5,3.6H21.6 M21.6,224.3v-1.9h-3.4v-0.9l3.6-5.1h0.8v5.1h1.1v0.9h-1.1v1.9H21.6"/>
<path class="st2" d="M25.6,220.4c0,1.3,0.1,2.2,0.5,2.6c0.3,0.4,0.7,0.6,1.1,0.6c0.4,0,0.8-0.2,1.1-0.6s0.5-1.3,0.5-2.6
	c0-1.3-0.2-2.2-0.5-2.6c-0.3-0.4-0.7-0.6-1.1-0.6c-0.5,0-0.8,0.2-1.1,0.6C25.7,218.2,25.6,219.1,25.6,220.4 M24.6,220.4
	c0-0.9,0.1-1.7,0.3-2.2c0.2-0.6,0.5-1,0.8-1.3s0.9-0.5,1.4-0.5c0.4,0,0.8,0.1,1.1,0.3c0.3,0.2,0.6,0.4,0.8,0.7s0.4,0.7,0.5,1.2
	c0.1,0.5,0.2,1.1,0.2,1.9c0,0.9-0.1,1.7-0.3,2.2c-0.2,0.6-0.5,1-0.8,1.3s-0.9,0.5-1.4,0.5c-0.8,0-1.4-0.3-1.8-0.8
	C24.8,222.9,24.6,221.9,24.6,220.4"/>
<path class="st2" d="M9.8,363.5v-1.8c0-0.6,0-1-0.2-1.3c-0.1-0.3-0.3-0.6-0.5-0.8c-0.3-0.3-0.6-0.5-1.1-0.6c-0.5-0.1-1-0.2-1.7-0.2
	c-0.9,0-1.6,0.2-2.1,0.4s-0.8,0.6-1,1.1c-0.1,0.3-0.2,0.8-0.2,1.5v1.8H9.8 M10.8,364.6H2.2v-3c0-0.7,0-1.2,0.1-1.5
	c0.1-0.5,0.3-0.9,0.6-1.3c0.4-0.5,0.9-0.8,1.5-1c0.6-0.2,1.3-0.3,2-0.3c0.7,0,1.2,0.1,1.7,0.2c0.5,0.2,0.9,0.3,1.2,0.6
	c0.3,0.2,0.6,0.5,0.8,0.8s0.3,0.6,0.4,1c0.1,0.4,0.1,0.9,0.1,1.4V364.6"/>
<path class="st2" d="M7.1,355.3v-3.5c-0.5,0-0.9,0.2-1.2,0.4c-0.4,0.3-0.6,0.8-0.6,1.3c0,0.5,0.2,0.9,0.5,1.2
	C6.1,355.1,6.6,355.2,7.1,355.3 M8.8,351.8l0.1-1.1c0.6,0.2,1.1,0.5,1.5,1c0.3,0.5,0.5,1.1,0.5,1.8c0,0.9-0.3,1.6-0.8,2.2
	c-0.6,0.5-1.3,0.8-2.4,0.8c-1,0-1.9-0.3-2.4-0.8c-0.6-0.5-0.9-1.2-0.9-2.1c0-0.8,0.3-1.5,0.9-2c0.6-0.5,1.4-0.8,2.4-0.8
	c0.1,0,0.2,0,0.3,0v4.6c0.7,0,1.2-0.2,1.6-0.6c0.4-0.3,0.5-0.8,0.5-1.3c0-0.4-0.1-0.7-0.3-1C9.6,352.2,9.3,352,8.8,351.8"/>
<path class="st2" d="M10.8,349.4H4.6v-0.9h0.9c-0.7-0.5-1-1.1-1-2c0-0.4,0.1-0.7,0.2-1c0.1-0.3,0.3-0.6,0.5-0.7
	c0.2-0.2,0.5-0.3,0.8-0.3c0.2,0,0.5-0.1,1-0.1h3.8v1.1H7c-0.4,0-0.7,0-1,0.1c-0.2,0.1-0.4,0.2-0.5,0.4c-0.1,0.2-0.2,0.5-0.2,0.7
	c0,0.5,0.1,0.9,0.4,1.2c0.3,0.3,0.8,0.5,1.6,0.5h3.4V349.4"/>
<path class="st2" d="M9,343.1l-0.2-1c0.4,0,0.7-0.2,1-0.5c0.2-0.3,0.3-0.6,0.3-1.1c0-0.5-0.1-0.8-0.3-1.1c-0.2-0.2-0.4-0.3-0.7-0.3
	c-0.2,0-0.4,0.1-0.6,0.3c-0.1,0.1-0.2,0.5-0.4,1.1c-0.2,0.8-0.4,1.3-0.5,1.6c-0.1,0.3-0.3,0.5-0.6,0.7c-0.3,0.2-0.5,0.2-0.8,0.2
	c-0.3,0-0.5-0.1-0.8-0.2c-0.2-0.1-0.4-0.3-0.6-0.5c-0.1-0.2-0.2-0.4-0.3-0.7s-0.1-0.6-0.1-0.9c0-0.5,0.1-0.9,0.2-1.3
	c0.1-0.4,0.3-0.6,0.6-0.8c0.2-0.2,0.6-0.3,1-0.4l0.1,1c-0.3,0-0.6,0.2-0.7,0.4c-0.2,0.2-0.3,0.5-0.3,0.9c0,0.5,0.1,0.8,0.2,1
	c0.2,0.2,0.3,0.3,0.6,0.3c0.1,0,0.3,0,0.4-0.1c0.1-0.1,0.2-0.2,0.3-0.4c0-0.1,0.1-0.4,0.3-0.9c0.2-0.7,0.4-1.3,0.5-1.6
	c0.1-0.3,0.3-0.5,0.6-0.7c0.2-0.2,0.5-0.3,0.9-0.3c0.4,0,0.7,0.1,1,0.3c0.3,0.2,0.5,0.5,0.7,0.9c0.2,0.4,0.3,0.8,0.3,1.3
	c0,0.8-0.2,1.4-0.5,1.8C10.1,342.8,9.6,343,9,343.1"/>
<path class="st2" d="M10.8,336.7H4.6v-1.1h6.2V336.7 M3.4,336.7H2.2v-1.1h1.2V336.7"/>
<path class="st2" d="M9.9,331.8l0.9-0.2c0,0.3,0.1,0.6,0.1,0.8c0,0.4-0.1,0.7-0.2,0.9c-0.1,0.2-0.3,0.4-0.5,0.4
	c-0.2,0.1-0.6,0.1-1.2,0.1H5.4v0.8H4.6v-0.8H3.1l-0.6-1h2.2v-1.1h0.8v1.1h3.6c0.3,0,0.5,0,0.6-0.1c0.1,0,0.2-0.1,0.2-0.2
	c0-0.1,0.1-0.2,0.1-0.4C9.9,332.1,9.9,331.9,9.9,331.8"/>
<path class="st2" d="M13.2,330.8l-1,0.1c0.1-0.2,0.1-0.4,0.1-0.6c0-0.2,0-0.4-0.1-0.6c-0.1-0.1-0.2-0.3-0.3-0.3
	c-0.1-0.1-0.4-0.2-0.8-0.3c-0.1,0-0.1,0-0.3-0.1l-6.2,2.4v-1.1l3.6-1.3c0.5-0.2,0.9-0.3,1.4-0.4c-0.5-0.1-1-0.3-1.4-0.4l-3.6-1.3
	v-1.1l6.3,2.4c0.7,0.3,1.1,0.5,1.4,0.6c0.3,0.2,0.6,0.4,0.8,0.6c0.2,0.2,0.2,0.5,0.2,0.9C13.3,330.3,13.3,330.5,13.2,330.8"/>
<path class="st2" d="M10.8,321.4H4.6v-1.1h6.2V321.4 M3.4,321.4H2.2v-1.1h1.2V321.4"/>
<path class="st2" d="M10.8,318.7H4.6v-0.9h0.9c-0.7-0.5-1-1.1-1-2c0-0.4,0.1-0.7,0.2-1c0.1-0.3,0.3-0.6,0.5-0.7
	c0.2-0.2,0.5-0.3,0.8-0.3c0.2,0,0.5-0.1,1-0.1h3.8v1.1H7c-0.4,0-0.7,0-1,0.1c-0.2,0.1-0.4,0.2-0.5,0.4c-0.1,0.2-0.2,0.5-0.2,0.7
	c0,0.5,0.1,0.9,0.4,1.2c0.3,0.3,0.8,0.5,1.6,0.5h3.4V318.7"/>
<path class="st2" d="M13.3,306.7c-0.7,0.6-1.6,1.1-2.6,1.5c-1,0.4-2,0.6-3.1,0.6c-0.9,0-1.8-0.1-2.7-0.4c-1-0.3-2-0.9-3-1.6v-0.8
	c0.8,0.5,1.4,0.8,1.7,0.9c0.5,0.2,1.1,0.4,1.7,0.6c0.7,0.2,1.5,0.3,2.2,0.3c1.9,0,3.7-0.6,5.6-1.8V306.7"/>
<path class="st2" d="M7.7,300.8c0.2,0.4,0.3,1,0.4,1.7c0.1,0.4,0.1,0.7,0.2,0.9c0.1,0.2,0.2,0.3,0.3,0.4c0.2,0.1,0.3,0.1,0.5,0.1
	c0.3,0,0.5-0.1,0.7-0.3c0.2-0.2,0.3-0.5,0.3-0.9s-0.1-0.8-0.3-1.1c-0.2-0.3-0.4-0.6-0.7-0.7c-0.2-0.1-0.6-0.2-1.1-0.2H7.7
	 M10.1,300.7c0.3,0.4,0.6,0.8,0.7,1.1c0.1,0.4,0.2,0.8,0.2,1.2c0,0.7-0.2,1.2-0.5,1.6c-0.3,0.4-0.8,0.6-1.3,0.6
	c-0.3,0-0.6-0.1-0.8-0.2s-0.5-0.3-0.6-0.6c-0.1-0.2-0.3-0.5-0.3-0.8c0-0.2-0.1-0.5-0.2-0.9c-0.1-0.9-0.2-1.5-0.4-1.9
	c-0.1,0-0.2,0-0.3,0c-0.4,0-0.7,0.1-0.9,0.3c-0.2,0.3-0.4,0.7-0.4,1.2c0,0.5,0.1,0.9,0.3,1.1c0.2,0.2,0.5,0.4,0.9,0.5l-0.1,1
	c-0.4-0.1-0.8-0.3-1.1-0.5c-0.3-0.2-0.5-0.5-0.6-0.9c-0.1-0.4-0.2-0.9-0.2-1.4c0-0.5,0.1-1,0.2-1.3c0.1-0.3,0.3-0.6,0.5-0.7
	c0.2-0.2,0.4-0.3,0.7-0.3c0.2,0,0.5-0.1,1-0.1h1.4c1,0,1.6,0,1.9-0.1c0.3,0,0.5-0.1,0.7-0.3v1.1C10.6,300.6,10.4,300.6,10.1,300.7"
	/>
<path class="st2" d="M9.9,295.7l0.9-0.2c0,0.3,0.1,0.6,0.1,0.8c0,0.4-0.1,0.7-0.2,0.9c-0.1,0.2-0.3,0.4-0.5,0.4
	c-0.2,0.1-0.6,0.1-1.2,0.1H5.4v0.8H4.6v-0.8H3.1l-0.6-1h2.2v-1.1h0.8v1.1h3.6c0.3,0,0.5,0,0.6-0.1c0.1,0,0.2-0.1,0.2-0.2
	c0-0.1,0.1-0.2,0.1-0.4C9.9,296.1,9.9,295.9,9.9,295.7"/>
<path class="st2" d="M7.7,294c0.8,0,1.4-0.2,1.8-0.5c0.4-0.3,0.6-0.8,0.6-1.3s-0.2-1-0.6-1.3c-0.4-0.3-1-0.5-1.8-0.5
	c-0.8,0-1.3,0.2-1.8,0.5c-0.4,0.4-0.6,0.8-0.6,1.3c0,0.5,0.2,1,0.6,1.3C6.3,293.9,6.9,294,7.7,294 M7.7,295.1c-1.2,0-2-0.3-2.6-1
	c-0.5-0.5-0.7-1.2-0.7-2c0-0.9,0.3-1.5,0.8-2.1c0.6-0.5,1.3-0.8,2.3-0.8c0.8,0,1.4,0.1,1.9,0.4c0.5,0.2,0.8,0.6,1.1,1.1
	c0.2,0.5,0.4,1,0.4,1.5c0,0.9-0.3,1.6-0.8,2.1C9.6,294.8,8.8,295.1,7.7,295.1"/>
<path class="st2" d="M10.8,288H4.6v-0.9h0.9c-0.3-0.2-0.5-0.4-0.7-0.8c-0.2-0.3-0.3-0.7-0.3-1.1c0-0.5,0.1-0.8,0.3-1.1
	c0.2-0.3,0.5-0.5,0.8-0.6c-0.7-0.5-1.1-1.1-1.1-1.9c0-0.6,0.2-1.1,0.5-1.4c0.3-0.3,0.9-0.5,1.6-0.5h4.3v1.1H6.9
	c-0.4,0-0.7,0-0.9,0.1c-0.2,0.1-0.3,0.2-0.5,0.4c-0.1,0.2-0.2,0.4-0.2,0.6c0,0.4,0.2,0.8,0.4,1.1c0.3,0.3,0.8,0.4,1.4,0.4h3.6v1.1
	h-4c-0.5,0-0.8,0.1-1.1,0.3c-0.2,0.2-0.3,0.5-0.3,0.8c0,0.3,0.1,0.6,0.2,0.8c0.2,0.3,0.4,0.4,0.7,0.5c0.3,0.1,0.7,0.2,1.3,0.2h3.2
	V288"/>
<path class="st2" d="M9,278.5l-0.2-1c0.4,0,0.7-0.2,1-0.5c0.2-0.3,0.3-0.6,0.3-1.1s-0.1-0.8-0.3-1.1c-0.2-0.2-0.4-0.3-0.7-0.3
	c-0.2,0-0.4,0.1-0.6,0.3c-0.1,0.1-0.2,0.5-0.4,1.1c-0.2,0.8-0.4,1.3-0.5,1.6c-0.1,0.3-0.3,0.5-0.6,0.7c-0.3,0.2-0.5,0.2-0.8,0.2
	c-0.3,0-0.5-0.1-0.8-0.2c-0.2-0.1-0.4-0.3-0.6-0.5c-0.1-0.2-0.2-0.4-0.3-0.7s-0.1-0.6-0.1-0.9c0-0.5,0.1-0.9,0.2-1.3
	c0.1-0.4,0.3-0.6,0.6-0.8c0.2-0.2,0.6-0.3,1-0.4l0.1,1c-0.3,0-0.6,0.2-0.7,0.4c-0.2,0.2-0.3,0.5-0.3,0.9c0,0.5,0.1,0.8,0.2,1
	c0.2,0.2,0.3,0.3,0.6,0.3c0.1,0,0.3,0,0.4-0.1c0.1-0.1,0.2-0.2,0.3-0.4c0-0.1,0.1-0.4,0.3-0.9c0.2-0.7,0.4-1.3,0.5-1.6
	c0.1-0.3,0.3-0.5,0.6-0.7c0.2-0.2,0.5-0.3,0.9-0.3c0.4,0,0.7,0.1,1,0.3c0.3,0.2,0.5,0.5,0.7,0.9c0.2,0.4,0.3,0.8,0.3,1.3
	c0,0.8-0.2,1.4-0.5,1.8C10.1,278.1,9.6,278.4,9,278.5"/>
<path class="st2" d="M10.8,268.7H4.6v-0.9h0.9c-0.7-0.5-1-1.1-1-2c0-0.4,0.1-0.7,0.2-1c0.1-0.3,0.3-0.6,0.5-0.7
	c0.2-0.2,0.5-0.3,0.8-0.3c0.2,0,0.5-0.1,1-0.1h3.8v1.1H7c-0.4,0-0.7,0-1,0.1c-0.2,0.1-0.4,0.2-0.5,0.4c-0.1,0.2-0.2,0.5-0.2,0.7
	c0,0.5,0.1,0.9,0.4,1.2c0.3,0.3,0.8,0.5,1.6,0.5h3.4V268.7"/>
<path class="st2" d="M10.8,262H4.6v-0.9h0.9c-0.3-0.2-0.5-0.4-0.7-0.8c-0.2-0.3-0.3-0.7-0.3-1.1c0-0.5,0.1-0.8,0.3-1.1
	c0.2-0.3,0.5-0.5,0.8-0.6c-0.7-0.5-1.1-1.1-1.1-1.9c0-0.6,0.2-1.1,0.5-1.4c0.3-0.3,0.9-0.5,1.6-0.5h4.3v1.1H6.9
	c-0.4,0-0.7,0-0.9,0.1c-0.2,0.1-0.3,0.2-0.5,0.4c-0.1,0.2-0.2,0.4-0.2,0.6c0,0.4,0.2,0.8,0.4,1.1c0.3,0.3,0.8,0.4,1.4,0.4h3.6v1.1
	h-4c-0.5,0-0.8,0.1-1.1,0.3c-0.2,0.2-0.3,0.5-0.3,0.8c0,0.3,0.1,0.6,0.2,0.8c0.2,0.3,0.4,0.4,0.7,0.5c0.3,0.1,0.7,0.2,1.3,0.2h3.2
	V262"/>
<path class="st2" d="M2.9,242.3c0.1-0.4,0.3-0.7,0.5-0.9s0.6-0.3,1-0.3c0.6,0,1.1,0.2,1.4,0.6c0.3,0.4,0.5,1,0.5,1.8
	c0,0.3,0,0.5-0.1,0.8c0,0.3-0.1,0.6-0.2,0.8H5.3c0.1-0.2,0.2-0.5,0.3-0.8c0.1-0.3,0.1-0.6,0.1-0.9c0-0.5-0.1-0.9-0.3-1.2
	c-0.2-0.3-0.5-0.4-0.9-0.4c-0.4,0-0.6,0.1-0.8,0.4c-0.2,0.3-0.3,0.6-0.3,1.1v0.7H2.6v-0.7c0-0.4-0.1-0.7-0.2-0.9
	C2.2,242.1,2,242,1.7,242c-0.3,0-0.6,0.1-0.7,0.3c-0.2,0.2-0.3,0.5-0.3,1c0,0.2,0,0.5,0.1,0.7c0.1,0.3,0.1,0.5,0.2,0.9H0.3
	c-0.1-0.3-0.2-0.6-0.2-0.9c0-0.3-0.1-0.5-0.1-0.8c0-0.6,0.1-1.1,0.4-1.5c0.3-0.4,0.7-0.6,1.2-0.6c0.3,0,0.6,0.1,0.9,0.3
	C2.7,241.6,2.8,241.9,2.9,242.3"/>
<path class="st2" d="M13.3,238.5v0.8c-1.9-1.2-3.7-1.8-5.6-1.8c-0.7,0-1.5,0.1-2.2,0.3c-0.6,0.1-1.1,0.3-1.7,0.6
	c-0.3,0.2-0.9,0.5-1.8,0.9v-0.8c1-0.7,2-1.3,3-1.6c0.9-0.3,1.8-0.5,2.7-0.5c1.1,0,2.1,0.2,3.1,0.6C11.8,237.5,12.6,237.9,13.3,238.5
	"/>
<g>
	<defs>
		<rect id="SVGID_57_" x="-4.1" y="237.6" width="14.2" height="23.6"/>
	</defs>
	<clipPath id="SVGID_58_">
		<use xlink:href="#SVGID_57_"  style="overflow:visible;"/>
	</clipPath>
	<polyline class="st34" points="3.3,251.8 3.3,246.6 3.9,246.6 3.9,251.8 3.3,251.8 	"/>
</g>
<g>
	<defs>
		<rect id="SVGID_59_" x="39.7" y="212.3" width="558" height="176.4"/>
	</defs>
	<clipPath id="SVGID_60_">
		<use xlink:href="#SVGID_59_"  style="overflow:visible;"/>
	</clipPath>
	<polyline class="st35" points="39.7,267.2 43.5,256.4 47.2,244.4 50.9,246.6 54.6,250.9 58.3,244.1 62.1,249 65.8,252.7 
		69.5,251.8 73.2,249.3 76.9,263.2 80.7,246.6 84.4,247.5 88.1,249 91.8,243.5 95.5,245.6 99.3,260.7 103,249.3 106.7,250 
		110.4,248.1 114.1,243.8 117.9,248.7 121.6,253.3 125.3,246.3 129,253.7 132.7,250.3 136.5,247.2 140.2,247.2 143.9,253.7 
		147.6,249.6 151.3,240.4 155.1,251.5 158.8,254.6 162.5,240.4 166.2,243.8 169.9,245.3 173.7,253.7 177.4,248.7 181.1,254 
		184.8,248.7 188.5,244.7 192.3,252.7 196,248.7 199.7,243.8 203.4,246.6 207.1,254.6 210.9,253 214.6,243.5 218.3,240.7 222,258.9 
		225.7,244.4 229.5,249.3 233.2,250.3 236.9,249.3 240.6,250 244.3,246.3 248.1,248.1 251.8,247.8 255.5,254.3 259.2,240.7 
		262.9,250.3 266.7,240.1 270.4,256.7 274.1,260.4 277.8,249 281.5,252.1 285.3,250.9 289,237.6 292.7,246.3 296.4,249.3 
		300.1,241.6 303.9,258.9 307.6,235.2 311.3,262 315,240.7 318.7,244.7 322.5,252.7 326.2,249.3 329.9,246.3 333.6,254.6 
		337.3,252.7 341.1,246.6 344.8,250.9 348.5,252.4 352.2,243.5 355.9,250.6 359.7,245.3 363.4,243.5 367.1,248.7 370.8,245.9 
		374.5,259.2 378.3,251.8 382,246.6 385.7,244.4 389.4,246.6 393.1,251.5 396.9,233.3 400.6,254.9 404.3,264.1 408,243.2 
		411.7,255.2 415.5,236.4 419.2,233 422.9,261.1 426.6,256.4 430.3,259.8 434.1,243.8 437.8,250.9 441.5,249 445.2,244.1 
		448.9,242.9 452.7,247.5 456.4,247.8 460.1,251.2 463.8,252.1 467.5,253.7 471.3,249 475,252.7 478.7,251.5 482.4,239.5 
		486.1,251.5 489.9,239.8 493.6,249.6 497.3,249 501,247.2 504.7,262.3 508.5,262 512.2,253.3 515.9,235.2 519.6,220.4 523.3,244.1 
		527.1,250.9 530.8,270.6 534.5,287.6 538.2,308.6 541.9,297.8 545.7,319 549.4,344.6 553.1,361 560.5,369.6 564.3,367.1 568,346.5 
		571.7,315.3 575.4,344.3 579.1,375.8 582.9,380.7 594,380.7 597.7,364.4 	"/>
</g>
<line class="st19" x1="39.7" y1="388.7" x2="39.7" y2="212.3"/>
<line class="st19" x1="597.7" y1="388.7" x2="597.7" y2="212.3"/>
<line class="st19" x1="39.7" y1="388.7" x2="597.7" y2="388.7"/>
<line class="st19" x1="39.7" y1="212.3" x2="597.7" y2="212.3"/>
<g>
	<path class="st20" d="M47.4,237h92.7c1.5,0,2.2-0.7,2.2-2.2V220c0-1.5-0.7-2.2-2.2-2.2H47.4c-1.5,0-2.2,0.7-2.2,2.2v14.7
		C45.2,236.2,46,237,47.4,237z"/>
	<path class="st21" d="M47.4,237h92.7c1.5,0,2.2-0.7,2.2-2.2V220c0-1.5-0.7-2.2-2.2-2.2H47.4c-1.5,0-2.2,0.7-2.2,2.2v14.7
		C45.2,236.2,46,237,47.4,237z"/>
</g>
<line class="st22" x1="49.6" y1="226.4" x2="71.6" y2="226.4"/>
<path class="st2" d="M82.3,229.3H84c0.5,0,0.9,0,1.2-0.1c0.3-0.1,0.5-0.2,0.7-0.4c0.2-0.2,0.4-0.6,0.6-1c0.1-0.4,0.2-0.9,0.2-1.5
	c0-0.8-0.1-1.5-0.4-1.9c-0.3-0.4-0.6-0.7-1-0.9c-0.3-0.1-0.7-0.2-1.4-0.2h-1.7V229.3 M81.3,230.2v-7.9H84c0.6,0,1.1,0,1.4,0.1
	c0.5,0.1,0.8,0.3,1.2,0.6c0.4,0.4,0.7,0.8,0.9,1.3c0.2,0.6,0.3,1.2,0.3,1.9c0,0.6-0.1,1.1-0.2,1.6c-0.1,0.5-0.3,0.8-0.5,1.1
	c-0.2,0.3-0.5,0.5-0.7,0.7c-0.3,0.2-0.6,0.3-0.9,0.4c-0.4,0.1-0.8,0.1-1.3,0.1H81.3"/>
<path class="st2" d="M89.8,226.8H93c0-0.5-0.2-0.8-0.4-1.1c-0.3-0.4-0.7-0.6-1.2-0.6c-0.5,0-0.8,0.2-1.1,0.5
	C90,226,89.9,226.4,89.8,226.8 M93,228.4l1,0.1c-0.2,0.6-0.5,1-0.9,1.4c-0.4,0.3-1,0.5-1.6,0.5c-0.8,0-1.5-0.3-2-0.8
	c-0.5-0.5-0.7-1.2-0.7-2.2c0-1,0.2-1.7,0.7-2.2c0.5-0.5,1.1-0.8,1.9-0.8c0.8,0,1.4,0.3,1.9,0.8c0.5,0.5,0.7,1.2,0.7,2.2
	c0,0.1,0,0.1,0,0.3h-4.3c0,0.6,0.2,1.1,0.5,1.4s0.7,0.5,1.2,0.5c0.4,0,0.7-0.1,0.9-0.3C92.7,229.1,92.9,228.8,93,228.4"/>
<path class="st2" d="M95.2,230.2v-5.7h0.9v0.8c0.4-0.6,1-0.9,1.8-0.9c0.3,0,0.7,0.1,0.9,0.2s0.5,0.3,0.6,0.5
	c0.1,0.2,0.2,0.4,0.3,0.7c0,0.2,0.1,0.5,0.1,0.9v3.5h-1v-3.5c0-0.4,0-0.7-0.1-0.9c-0.1-0.2-0.2-0.4-0.4-0.5
	c-0.2-0.1-0.4-0.2-0.7-0.2c-0.4,0-0.8,0.1-1.1,0.4c-0.3,0.3-0.4,0.8-0.4,1.5v3.1H95.2"/>
<path class="st2" d="M101,228.5l1-0.1c0,0.4,0.2,0.7,0.4,0.9c0.2,0.2,0.6,0.3,1,0.3s0.8-0.1,1-0.3c0.2-0.2,0.3-0.4,0.3-0.6
	c0-0.2-0.1-0.4-0.3-0.5c-0.1-0.1-0.5-0.2-1-0.3c-0.7-0.2-1.2-0.3-1.5-0.5c-0.3-0.1-0.5-0.3-0.6-0.5c-0.1-0.2-0.2-0.5-0.2-0.8
	c0-0.3,0.1-0.5,0.2-0.7c0.1-0.2,0.3-0.4,0.5-0.5c0.2-0.1,0.4-0.2,0.6-0.3c0.3-0.1,0.5-0.1,0.8-0.1c0.4,0,0.8,0.1,1.2,0.2
	c0.3,0.1,0.6,0.3,0.8,0.5c0.2,0.2,0.3,0.5,0.3,0.9l-0.9,0.1c0-0.3-0.2-0.5-0.4-0.7c-0.2-0.2-0.5-0.3-0.9-0.3c-0.5,0-0.8,0.1-1,0.2
	c-0.2,0.2-0.3,0.3-0.3,0.5c0,0.1,0,0.2,0.1,0.3c0.1,0.1,0.2,0.2,0.4,0.3c0.1,0,0.4,0.1,0.8,0.3c0.7,0.2,1.2,0.3,1.4,0.4
	c0.3,0.1,0.5,0.3,0.6,0.5c0.2,0.2,0.2,0.5,0.2,0.8s-0.1,0.6-0.3,0.9s-0.5,0.5-0.8,0.6c-0.4,0.2-0.8,0.2-1.2,0.2
	c-0.7,0-1.3-0.1-1.7-0.5C101.3,229.6,101.1,229.2,101,228.5"/>
<path class="st2" d="M106.8,230.2v-5.7h1v5.7H106.8 M106.8,223.5v-1.1h1v1.1H106.8"/>
<path class="st2" d="M111.4,229.4l0.1,0.9c-0.3,0-0.5,0.1-0.7,0.1c-0.4,0-0.6-0.1-0.8-0.2c-0.2-0.1-0.3-0.3-0.4-0.4
	c-0.1-0.2-0.1-0.6-0.1-1.1v-3.3h-0.7v-0.8h0.7v-1.4l1-0.6v2h1v0.8h-1v3.3c0,0.3,0,0.5,0.1,0.5c0,0.1,0.1,0.1,0.2,0.2
	c0.1,0,0.2,0.1,0.3,0.1C111.1,229.4,111.2,229.4,111.4,229.4"/>
<path class="st2" d="M112.3,232.4l-0.1-0.9c0.2,0.1,0.4,0.1,0.6,0.1c0.2,0,0.4,0,0.5-0.1c0.1-0.1,0.2-0.2,0.3-0.3
	c0.1-0.1,0.2-0.3,0.3-0.7c0-0.1,0-0.1,0.1-0.2l-2.2-5.7h1l1.2,3.3c0.2,0.4,0.3,0.9,0.4,1.3c0.1-0.4,0.2-0.9,0.4-1.3l1.2-3.3h1
	l-2.2,5.8c-0.2,0.6-0.4,1-0.5,1.3c-0.2,0.3-0.4,0.6-0.6,0.7c-0.2,0.1-0.5,0.2-0.8,0.2C112.7,232.5,112.5,232.5,112.3,232.4"/>
<path class="st2" d="M121.8,226.4c0,0.9,0.3,1.7,0.8,2.2c0.5,0.6,1.2,0.8,1.9,0.8c0.8,0,1.4-0.3,1.9-0.8s0.8-1.3,0.8-2.3
	c0-0.6-0.1-1.2-0.3-1.7c-0.2-0.5-0.5-0.8-0.9-1.1c-0.4-0.3-0.9-0.4-1.4-0.4c-0.7,0-1.4,0.3-1.9,0.8S121.8,225.2,121.8,226.4
	 M120.7,226.4c0-1.3,0.4-2.3,1.1-3.1c0.7-0.7,1.6-1.1,2.7-1.1c0.7,0,1.4,0.2,2,0.5c0.6,0.4,1,0.8,1.3,1.5c0.3,0.6,0.5,1.3,0.5,2.1
	c0,0.8-0.2,1.5-0.5,2.1c-0.3,0.6-0.8,1.1-1.4,1.4c-0.6,0.3-1.2,0.5-1.9,0.5c-0.7,0-1.4-0.2-2-0.5c-0.6-0.4-1-0.8-1.3-1.5
	C120.9,227.8,120.7,227.1,120.7,226.4"/>
<path class="st2" d="M133.2,230.2v-0.8c-0.5,0.6-1.1,1-1.8,1c-0.3,0-0.7-0.1-0.9-0.2c-0.3-0.1-0.5-0.3-0.6-0.5s-0.2-0.4-0.3-0.7
	c0-0.2-0.1-0.5-0.1-0.9v-3.5h1v3.2c0,0.5,0,0.8,0.1,1c0.1,0.3,0.2,0.5,0.4,0.6c0.2,0.2,0.4,0.2,0.7,0.2c0.3,0,0.6-0.1,0.8-0.2
	c0.3-0.1,0.4-0.3,0.5-0.6c0.1-0.3,0.2-0.6,0.2-1.1v-3.1h1v5.7H133.2"/>
<path class="st2" d="M137.7,229.4l0.1,0.9c-0.3,0-0.5,0.1-0.7,0.1c-0.4,0-0.6-0.1-0.8-0.2c-0.2-0.1-0.3-0.3-0.4-0.4
	c-0.1-0.2-0.1-0.6-0.1-1.1v-3.3h-0.7v-0.8h0.7v-1.4l1-0.6v2h1v0.8h-1v3.3c0,0.3,0,0.5,0.1,0.5c0,0.1,0.1,0.1,0.2,0.2
	c0.1,0,0.2,0.1,0.3,0.1C137.4,229.4,137.5,229.4,137.7,229.4"/>
</svg>
