<?xml version="1.0" encoding="utf-8"?>
<!-- Generator: Adobe Illustrator 21.0.0, SVG Export Plug-In . SVG Version: 6.00 Build 0)  -->
<svg version="1.1" id="Layer_1" xmlns="http://www.w3.org/2000/svg" xmlns:xlink="http://www.w3.org/1999/xlink" x="0px" y="0px"
	 viewBox="0 0 397.5 301.4" style="enable-background:new 0 0 397.5 301.4;" xml:space="preserve">
<style type="text/css">
	.st0{fill:#FFFFFF;}
	.st1{clip-path:url(#SVGID_2_);fill:none;stroke:#CCCCCC;stroke-linecap:round;stroke-linejoin:round;stroke-miterlimit:10;}
	.st2{fill:#262626;}
	.st3{clip-path:url(#SVGID_4_);fill:none;stroke:#CCCCCC;stroke-linecap:round;stroke-linejoin:round;stroke-miterlimit:10;}
	.st4{clip-path:url(#SVGID_6_);fill:none;stroke:#CCCCCC;stroke-linecap:round;stroke-linejoin:round;stroke-miterlimit:10;}
	.st5{clip-path:url(#SVGID_8_);fill:none;stroke:#CCCCCC;stroke-linecap:round;stroke-linejoin:round;stroke-miterlimit:10;}
	.st6{clip-path:url(#SVGID_10_);fill:none;stroke:#CCCCCC;stroke-linecap:round;stroke-linejoin:round;stroke-miterlimit:10;}
	.st7{clip-path:url(#SVGID_12_);fill:none;stroke:#CCCCCC;stroke-linecap:round;stroke-linejoin:round;stroke-miterlimit:10;}
	.st8{clip-path:url(#SVGID_14_);fill:none;stroke:#CCCCCC;stroke-linecap:round;stroke-linejoin:round;stroke-miterlimit:10;}
	.st9{clip-path:url(#SVGID_16_);fill:none;stroke:#CCCCCC;stroke-linecap:round;stroke-linejoin:round;stroke-miterlimit:10;}
	.st10{clip-path:url(#SVGID_18_);fill:none;stroke:#CCCCCC;stroke-linecap:round;stroke-linejoin:round;stroke-miterlimit:10;}
	.st11{clip-path:url(#SVGID_20_);fill:none;stroke:#CCCCCC;stroke-linecap:round;stroke-linejoin:round;stroke-miterlimit:10;}
	.st12{clip-path:url(#SVGID_22_);fill:none;stroke:#CCCCCC;stroke-linecap:round;stroke-linejoin:round;stroke-miterlimit:10;}
	.st13{clip-path:url(#SVGID_24_);fill:none;stroke:#CCCCCC;stroke-linecap:round;stroke-linejoin:round;stroke-miterlimit:10;}
	.st14{clip-path:url(#SVGID_26_);fill:none;stroke:#CCCCCC;stroke-linecap:round;stroke-linejoin:round;stroke-miterlimit:10;}
	
		.st15{clip-path:url(#SVGID_28_);fill:none;stroke:#4C72B0;stroke-width:1.5;stroke-linecap:round;stroke-linejoin:round;stroke-miterlimit:10;}
	.st16{fill:none;stroke:#CCCCCC;stroke-width:1.25;stroke-linecap:square;stroke-miterlimit:10;}
</style>
<rect x="39.7" y="0.6" class="st0" width="357.1" height="266.1"/>
<g>
	<defs>
		<rect id="SVGID_1_" x="39.7" y="0.6" width="357.1" height="266.1"/>
	</defs>
	<clipPath id="SVGID_2_">
		<use xlink:href="#SVGID_1_"  style="overflow:visible;"/>
	</clipPath>
	<line class="st1" x1="56" y1="266.7" x2="56" y2="0.6"/>
</g>
<path class="st2" d="M49.8,280.2c0,1.3,0.1,2.2,0.5,2.6c0.3,0.4,0.7,0.6,1.1,0.6c0.4,0,0.8-0.2,1.1-0.6c0.3-0.4,0.5-1.3,0.5-2.6
	s-0.2-2.2-0.5-2.6c-0.3-0.4-0.7-0.6-1.1-0.6c-0.5,0-0.8,0.2-1.1,0.6C49.9,278.1,49.8,278.9,49.8,280.2 M48.8,280.2
	c0-0.9,0.1-1.7,0.3-2.2c0.2-0.6,0.5-1,0.8-1.3c0.4-0.3,0.9-0.5,1.4-0.5c0.4,0,0.8,0.1,1.1,0.3c0.3,0.2,0.6,0.4,0.8,0.7
	s0.4,0.7,0.5,1.2c0.1,0.5,0.2,1.1,0.2,1.9c0,0.9-0.1,1.7-0.3,2.2c-0.2,0.6-0.5,1-0.8,1.3c-0.4,0.3-0.9,0.5-1.4,0.5
	c-0.8,0-1.4-0.3-1.8-0.8C49,282.8,48.8,281.7,48.8,280.2"/>
<polyline class="st2" points="55.4,284.1 55.4,283 56.5,283 56.5,284.1 55.4,284.1 "/>
<path class="st2" d="M59,280.2c0,1.3,0.1,2.2,0.5,2.6c0.3,0.4,0.7,0.6,1.1,0.6c0.4,0,0.8-0.2,1.1-0.6c0.3-0.4,0.5-1.3,0.5-2.6
	s-0.2-2.2-0.5-2.6c-0.3-0.4-0.7-0.6-1.1-0.6c-0.5,0-0.8,0.2-1.1,0.6C59.1,278.1,59,278.9,59,280.2 M58,280.2c0-0.9,0.1-1.7,0.3-2.2
	c0.2-0.6,0.5-1,0.8-1.3c0.4-0.3,0.9-0.5,1.4-0.5c0.4,0,0.8,0.1,1.1,0.3c0.3,0.2,0.6,0.4,0.8,0.7s0.4,0.7,0.5,1.2
	c0.1,0.5,0.2,1.1,0.2,1.9c0,0.9-0.1,1.7-0.3,2.2c-0.2,0.6-0.5,1-0.8,1.3c-0.4,0.3-0.9,0.5-1.4,0.5c-0.8,0-1.4-0.3-1.8-0.8
	C58.2,282.8,58,281.7,58,280.2"/>
<g>
	<defs>
		<rect id="SVGID_3_" x="39.7" y="0.6" width="357.1" height="266.1"/>
	</defs>
	<clipPath id="SVGID_4_">
		<use xlink:href="#SVGID_3_"  style="overflow:visible;"/>
	</clipPath>
	<line class="st3" x1="110.1" y1="266.7" x2="110.1" y2="0.6"/>
</g>
<path class="st2" d="M103.8,280.2c0,1.3,0.1,2.2,0.5,2.6c0.3,0.4,0.7,0.6,1.1,0.6c0.4,0,0.8-0.2,1.1-0.6c0.3-0.4,0.5-1.3,0.5-2.6
	s-0.2-2.2-0.5-2.6c-0.3-0.4-0.7-0.6-1.1-0.6c-0.5,0-0.8,0.2-1.1,0.6C104,278.1,103.8,278.9,103.8,280.2 M102.9,280.2
	c0-0.9,0.1-1.7,0.3-2.2c0.2-0.6,0.5-1,0.8-1.3c0.4-0.3,0.9-0.5,1.4-0.5c0.4,0,0.8,0.1,1.1,0.3c0.3,0.2,0.6,0.4,0.8,0.7
	s0.4,0.7,0.5,1.2c0.1,0.5,0.2,1.1,0.2,1.9c0,0.9-0.1,1.7-0.3,2.2c-0.2,0.6-0.5,1-0.8,1.3c-0.4,0.3-0.9,0.5-1.4,0.5
	c-0.8,0-1.4-0.3-1.8-0.8C103.1,282.8,102.9,281.7,102.9,280.2"/>
<polyline class="st2" points="109.5,284.1 109.5,283 110.6,283 110.6,284.1 109.5,284.1 "/>
<path class="st2" d="M112,282l1-0.1c0.1,0.5,0.2,0.9,0.5,1.1c0.3,0.3,0.6,0.4,1,0.4c0.5,0,0.9-0.2,1.2-0.5c0.3-0.4,0.5-0.8,0.5-1.4
	c0-0.6-0.2-1-0.5-1.3c-0.3-0.3-0.7-0.5-1.2-0.5c-0.3,0-0.6,0.1-0.8,0.2s-0.5,0.3-0.6,0.5l-0.9-0.1l0.8-4h3.9v0.9h-3.1l-0.4,2.1
	c0.5-0.3,1-0.5,1.5-0.5c0.7,0,1.3,0.2,1.7,0.7c0.5,0.5,0.7,1.1,0.7,1.8c0,0.7-0.2,1.3-0.6,1.8c-0.5,0.6-1.2,0.9-2.1,0.9
	c-0.7,0-1.3-0.2-1.7-0.6C112.3,283.2,112.1,282.7,112,282"/>
<g>
	<defs>
		<rect id="SVGID_5_" x="39.7" y="0.6" width="357.1" height="266.1"/>
	</defs>
	<clipPath id="SVGID_6_">
		<use xlink:href="#SVGID_5_"  style="overflow:visible;"/>
	</clipPath>
	<line class="st4" x1="164.1" y1="266.7" x2="164.1" y2="0.6"/>
</g>
<path class="st2" d="M160.6,284.1h-1V278c-0.2,0.2-0.5,0.5-0.9,0.7c-0.4,0.2-0.7,0.4-1,0.5v-0.9c0.5-0.3,1-0.6,1.4-0.9
	c0.4-0.4,0.7-0.7,0.9-1.1h0.6V284.1"/>
<polyline class="st2" points="163.6,284.1 163.6,283 164.7,283 164.7,284.1 163.6,284.1 "/>
<path class="st2" d="M167.1,280.2c0,1.3,0.1,2.2,0.5,2.6c0.3,0.4,0.7,0.6,1.1,0.6c0.4,0,0.8-0.2,1.1-0.6c0.3-0.4,0.5-1.3,0.5-2.6
	s-0.2-2.2-0.5-2.6c-0.3-0.4-0.7-0.6-1.1-0.6c-0.5,0-0.8,0.2-1.1,0.6C167.3,278.1,167.1,278.9,167.1,280.2 M166.1,280.2
	c0-0.9,0.1-1.7,0.3-2.2c0.2-0.6,0.5-1,0.8-1.3c0.4-0.3,0.9-0.5,1.4-0.5c0.4,0,0.8,0.1,1.1,0.3c0.3,0.2,0.6,0.4,0.8,0.7
	c0.2,0.3,0.4,0.7,0.5,1.2c0.1,0.5,0.2,1.1,0.2,1.9c0,0.9-0.1,1.7-0.3,2.2c-0.2,0.6-0.5,1-0.8,1.3c-0.4,0.3-0.9,0.5-1.4,0.5
	c-0.8,0-1.4-0.3-1.8-0.8C166.4,282.8,166.1,281.7,166.1,280.2"/>
<g>
	<defs>
		<rect id="SVGID_7_" x="39.7" y="0.6" width="357.1" height="266.1"/>
	</defs>
	<clipPath id="SVGID_8_">
		<use xlink:href="#SVGID_7_"  style="overflow:visible;"/>
	</clipPath>
	<line class="st5" x1="218.2" y1="266.7" x2="218.2" y2="0.6"/>
</g>
<path class="st2" d="M214.6,284.1h-1V278c-0.2,0.2-0.5,0.5-0.9,0.7c-0.4,0.2-0.7,0.4-1,0.5v-0.9c0.5-0.3,1-0.6,1.4-0.9
	c0.4-0.4,0.7-0.7,0.9-1.1h0.6V284.1"/>
<polyline class="st2" points="217.6,284.1 217.6,283 218.7,283 218.7,284.1 217.6,284.1 "/>
<path class="st2" d="M220.2,282l1-0.1c0.1,0.5,0.2,0.9,0.5,1.1c0.3,0.3,0.6,0.4,1,0.4c0.5,0,0.9-0.2,1.2-0.5
	c0.3-0.4,0.5-0.8,0.5-1.4c0-0.6-0.2-1-0.5-1.3c-0.3-0.3-0.7-0.5-1.2-0.5c-0.3,0-0.6,0.1-0.8,0.2s-0.5,0.3-0.6,0.5l-0.9-0.1l0.8-4
	h3.9v0.9h-3.1l-0.4,2.1c0.5-0.3,1-0.5,1.5-0.5c0.7,0,1.3,0.2,1.7,0.7c0.5,0.5,0.7,1.1,0.7,1.8c0,0.7-0.2,1.3-0.6,1.8
	c-0.5,0.6-1.2,0.9-2.1,0.9c-0.7,0-1.3-0.2-1.7-0.6C220.5,283.2,220.2,282.7,220.2,282"/>
<g>
	<defs>
		<rect id="SVGID_9_" x="39.7" y="0.6" width="357.1" height="266.1"/>
	</defs>
	<clipPath id="SVGID_10_">
		<use xlink:href="#SVGID_9_"  style="overflow:visible;"/>
	</clipPath>
	<line class="st6" x1="272.3" y1="266.7" x2="272.3" y2="0.6"/>
</g>
<path class="st2" d="M270.1,283.2v0.9h-5.2c0-0.2,0-0.5,0.1-0.7c0.1-0.4,0.3-0.7,0.6-1c0.3-0.3,0.7-0.7,1.3-1.2
	c0.9-0.7,1.4-1.2,1.7-1.7c0.3-0.4,0.5-0.8,0.5-1.2s-0.1-0.7-0.4-1c-0.3-0.3-0.6-0.4-1.1-0.4c-0.5,0-0.8,0.1-1.1,0.4
	c-0.3,0.3-0.4,0.7-0.4,1.2l-1-0.1c0.1-0.7,0.3-1.3,0.8-1.7c0.4-0.4,1-0.6,1.8-0.6s1.4,0.2,1.8,0.6s0.7,0.9,0.7,1.6
	c0,0.3-0.1,0.6-0.2,0.9c-0.1,0.3-0.3,0.6-0.6,1c-0.3,0.3-0.8,0.8-1.5,1.4c-0.6,0.5-1,0.8-1.1,1c-0.2,0.2-0.3,0.4-0.4,0.5H270.1"/>
<polyline class="st2" points="271.7,284.1 271.7,283 272.8,283 272.8,284.1 271.7,284.1 "/>
<path class="st2" d="M275.2,280.2c0,1.3,0.1,2.2,0.5,2.6c0.3,0.4,0.7,0.6,1.1,0.6c0.4,0,0.8-0.2,1.1-0.6c0.3-0.4,0.5-1.3,0.5-2.6
	s-0.2-2.2-0.5-2.6c-0.3-0.4-0.7-0.6-1.1-0.6c-0.5,0-0.8,0.2-1.1,0.6C275.4,278.1,275.2,278.9,275.2,280.2 M274.2,280.2
	c0-0.9,0.1-1.7,0.3-2.2c0.2-0.6,0.5-1,0.8-1.3c0.4-0.3,0.9-0.5,1.4-0.5c0.4,0,0.8,0.1,1.1,0.3c0.3,0.2,0.6,0.4,0.8,0.7
	c0.2,0.3,0.4,0.7,0.5,1.2c0.1,0.5,0.2,1.1,0.2,1.9c0,0.9-0.1,1.7-0.3,2.2c-0.2,0.6-0.5,1-0.8,1.3c-0.4,0.3-0.9,0.5-1.4,0.5
	c-0.8,0-1.4-0.3-1.8-0.8C274.5,282.8,274.2,281.7,274.2,280.2"/>
<g>
	<defs>
		<rect id="SVGID_11_" x="39.7" y="0.6" width="357.1" height="266.1"/>
	</defs>
	<clipPath id="SVGID_12_">
		<use xlink:href="#SVGID_11_"  style="overflow:visible;"/>
	</clipPath>
	<line class="st7" x1="326.3" y1="266.7" x2="326.3" y2="0.6"/>
</g>
<path class="st2" d="M324.2,283.2v0.9H319c0-0.2,0-0.5,0.1-0.7c0.1-0.4,0.3-0.7,0.6-1c0.3-0.3,0.7-0.7,1.3-1.2
	c0.9-0.7,1.4-1.2,1.7-1.7c0.3-0.4,0.5-0.8,0.5-1.2s-0.1-0.7-0.4-1c-0.3-0.3-0.6-0.4-1.1-0.4c-0.5,0-0.8,0.1-1.1,0.4
	c-0.3,0.3-0.4,0.7-0.4,1.2l-1-0.1c0.1-0.7,0.3-1.3,0.8-1.7c0.4-0.4,1-0.6,1.8-0.6s1.4,0.2,1.8,0.6s0.7,0.9,0.7,1.6
	c0,0.3-0.1,0.6-0.2,0.9c-0.1,0.3-0.3,0.6-0.6,1c-0.3,0.3-0.8,0.8-1.5,1.4c-0.6,0.5-1,0.8-1.1,1c-0.2,0.2-0.3,0.4-0.4,0.5H324.2"/>
<polyline class="st2" points="325.8,284.1 325.8,283 326.9,283 326.9,284.1 325.8,284.1 "/>
<path class="st2" d="M328.3,282l1-0.1c0.1,0.5,0.2,0.9,0.5,1.1c0.3,0.3,0.6,0.4,1,0.4c0.5,0,0.9-0.2,1.2-0.5
	c0.3-0.4,0.5-0.8,0.5-1.4c0-0.6-0.2-1-0.5-1.3c-0.3-0.3-0.7-0.5-1.2-0.5c-0.3,0-0.6,0.1-0.8,0.2c-0.3,0.1-0.5,0.3-0.6,0.5l-0.9-0.1
	l0.8-4h3.9v0.9H330l-0.4,2.1c0.5-0.3,1-0.5,1.5-0.5c0.7,0,1.3,0.2,1.7,0.7c0.5,0.5,0.7,1.1,0.7,1.8c0,0.7-0.2,1.3-0.6,1.8
	c-0.5,0.6-1.2,0.9-2.1,0.9c-0.7,0-1.3-0.2-1.7-0.6C328.6,283.2,328.4,282.7,328.3,282"/>
<g>
	<defs>
		<rect id="SVGID_13_" x="39.7" y="0.6" width="357.1" height="266.1"/>
	</defs>
	<clipPath id="SVGID_14_">
		<use xlink:href="#SVGID_13_"  style="overflow:visible;"/>
	</clipPath>
	<line class="st8" x1="380.4" y1="266.7" x2="380.4" y2="0.6"/>
</g>
<path class="st2" d="M373.2,282l1-0.1c0.1,0.5,0.3,0.9,0.6,1.2c0.3,0.2,0.6,0.4,1,0.4c0.5,0,0.8-0.2,1.1-0.5
	c0.3-0.3,0.5-0.7,0.5-1.2c0-0.4-0.2-0.8-0.4-1.1c-0.3-0.3-0.7-0.4-1.1-0.4c-0.2,0-0.4,0-0.7,0.1l0.1-0.8c0.1,0,0.1,0,0.2,0
	c0.4,0,0.8-0.1,1.1-0.3c0.3-0.2,0.5-0.5,0.5-1c0-0.4-0.1-0.6-0.4-0.9s-0.6-0.4-0.9-0.4s-0.7,0.1-0.9,0.4c-0.3,0.2-0.4,0.6-0.5,1.1
	l-1-0.2c0.1-0.6,0.4-1.2,0.8-1.5s0.9-0.5,1.6-0.5c0.4,0,0.8,0.1,1.2,0.3c0.4,0.2,0.6,0.4,0.8,0.7c0.2,0.3,0.3,0.7,0.3,1
	c0,0.4-0.1,0.7-0.3,0.9c-0.2,0.3-0.5,0.5-0.8,0.7c0.5,0.1,0.8,0.3,1.1,0.7c0.3,0.3,0.4,0.8,0.4,1.3c0,0.7-0.3,1.3-0.8,1.7
	c-0.5,0.5-1.1,0.7-1.9,0.7c-0.7,0-1.3-0.2-1.7-0.6C373.5,283.2,373.3,282.7,373.2,282"/>
<polyline class="st2" points="379.9,284.1 379.9,283 381,283 381,284.1 379.9,284.1 "/>
<path class="st2" d="M383.4,280.2c0,1.3,0.1,2.2,0.5,2.6c0.3,0.4,0.7,0.6,1.1,0.6c0.4,0,0.8-0.2,1.1-0.6c0.3-0.4,0.5-1.3,0.5-2.6
	s-0.2-2.2-0.5-2.6c-0.3-0.4-0.7-0.6-1.1-0.6c-0.5,0-0.8,0.2-1.1,0.6C383.5,278.1,383.4,278.9,383.4,280.2 M382.4,280.2
	c0-0.9,0.1-1.7,0.3-2.2c0.2-0.6,0.5-1,0.8-1.3c0.4-0.3,0.9-0.5,1.4-0.5c0.4,0,0.8,0.1,1.1,0.3c0.3,0.2,0.6,0.4,0.8,0.7
	c0.2,0.3,0.4,0.7,0.5,1.2c0.1,0.5,0.2,1.1,0.2,1.9c0,0.9-0.1,1.7-0.3,2.2c-0.2,0.6-0.5,1-0.8,1.3c-0.4,0.3-0.9,0.5-1.4,0.5
	c-0.8,0-1.4-0.3-1.8-0.8C382.6,282.8,382.4,281.7,382.4,280.2"/>
<path class="st2" d="M137.4,298h1.8c0.6,0,1,0,1.3-0.2c0.3-0.1,0.6-0.3,0.8-0.5c0.3-0.3,0.5-0.6,0.6-1.1c0.1-0.5,0.2-1,0.2-1.7
	c0-0.9-0.2-1.6-0.4-2.1c-0.3-0.5-0.6-0.8-1.1-1c-0.3-0.1-0.8-0.2-1.5-0.2h-1.8V298 M136.2,299v-8.6h3c0.7,0,1.2,0,1.5,0.1
	c0.5,0.1,0.9,0.3,1.3,0.6c0.5,0.4,0.8,0.9,1,1.5c0.2,0.6,0.3,1.3,0.3,2c0,0.7-0.1,1.2-0.2,1.7c-0.2,0.5-0.3,0.9-0.6,1.2
	c-0.2,0.3-0.5,0.6-0.8,0.8c-0.3,0.2-0.6,0.3-1,0.4c-0.4,0.1-0.9,0.1-1.4,0.1H136.2"/>
<path class="st2" d="M144.7,299v-6.2h1.1v6.2H144.7 M144.7,291.7v-1.2h1.1v1.2H144.7"/>
<path class="st2" d="M147,297.2l1-0.2c0,0.4,0.2,0.7,0.5,1c0.3,0.2,0.6,0.3,1.1,0.3s0.8-0.1,1.1-0.3c0.2-0.2,0.3-0.4,0.3-0.7
	c0-0.2-0.1-0.4-0.3-0.6c-0.1-0.1-0.5-0.2-1.1-0.4c-0.8-0.2-1.3-0.4-1.6-0.5c-0.3-0.1-0.5-0.3-0.7-0.6c-0.2-0.3-0.2-0.5-0.2-0.8
	c0-0.3,0.1-0.5,0.2-0.8c0.1-0.2,0.3-0.4,0.5-0.6c0.2-0.1,0.4-0.2,0.7-0.3s0.6-0.1,0.9-0.1c0.5,0,0.9,0.1,1.3,0.2
	c0.4,0.1,0.6,0.3,0.8,0.6c0.2,0.2,0.3,0.6,0.4,1l-1,0.1c0-0.3-0.2-0.6-0.4-0.7c-0.2-0.2-0.5-0.3-0.9-0.3c-0.5,0-0.8,0.1-1,0.2
	c-0.2,0.2-0.3,0.3-0.3,0.6c0,0.1,0,0.3,0.1,0.4c0.1,0.1,0.2,0.2,0.4,0.3c0.1,0,0.4,0.1,0.9,0.3c0.7,0.2,1.3,0.4,1.6,0.5
	c0.3,0.1,0.5,0.3,0.7,0.6s0.3,0.5,0.3,0.9c0,0.4-0.1,0.7-0.3,1c-0.2,0.3-0.5,0.5-0.9,0.7s-0.8,0.3-1.3,0.3c-0.8,0-1.4-0.2-1.8-0.5
	C147.4,298.3,147.1,297.8,147,297.2"/>
<path class="st2" d="M155.7,298.1l0.2,0.9c-0.3,0-0.6,0.1-0.8,0.1c-0.4,0-0.7-0.1-0.9-0.2c-0.2-0.1-0.4-0.3-0.4-0.5
	c-0.1-0.2-0.1-0.6-0.1-1.2v-3.6h-0.8v-0.8h0.8v-1.5l1-0.6v2.2h1.1v0.8h-1.1v3.6c0,0.3,0,0.5,0.1,0.6c0,0.1,0.1,0.2,0.2,0.2
	c0.1,0,0.2,0.1,0.4,0.1C155.4,298.1,155.5,298.1,155.7,298.1"/>
<path class="st2" d="M160.7,295.9c-0.4,0.2-1,0.3-1.7,0.4c-0.4,0.1-0.7,0.1-0.9,0.2c-0.2,0.1-0.3,0.2-0.4,0.3
	c-0.1,0.2-0.1,0.3-0.1,0.5c0,0.3,0.1,0.5,0.3,0.7c0.2,0.2,0.5,0.3,0.9,0.3s0.8-0.1,1.1-0.3s0.6-0.4,0.7-0.7c0.1-0.2,0.2-0.6,0.2-1.1
	V295.9 M160.8,298.3c-0.4,0.3-0.8,0.6-1.1,0.7c-0.4,0.1-0.8,0.2-1.2,0.2c-0.7,0-1.2-0.2-1.6-0.5c-0.4-0.3-0.6-0.8-0.6-1.3
	c0-0.3,0.1-0.6,0.2-0.8c0.1-0.3,0.3-0.5,0.6-0.6c0.2-0.1,0.5-0.3,0.8-0.3c0.2,0,0.5-0.1,0.9-0.2c0.9-0.1,1.5-0.2,1.9-0.4
	c0-0.1,0-0.2,0-0.3c0-0.4-0.1-0.7-0.3-0.9c-0.3-0.2-0.7-0.4-1.2-0.4c-0.5,0-0.9,0.1-1.1,0.3c-0.2,0.2-0.4,0.5-0.5,0.9l-1-0.1
	c0.1-0.4,0.3-0.8,0.5-1.1c0.2-0.3,0.5-0.5,0.9-0.6c0.4-0.1,0.9-0.2,1.4-0.2c0.5,0,1,0.1,1.3,0.2s0.6,0.3,0.7,0.5
	c0.2,0.2,0.3,0.4,0.3,0.7c0,0.2,0.1,0.5,0.1,1v1.4c0,1,0,1.6,0.1,1.9c0,0.3,0.1,0.5,0.3,0.7H161
	C160.9,298.8,160.8,298.6,160.8,298.3"/>
<path class="st2" d="M163.4,299v-6.2h0.9v0.9c0.5-0.7,1.1-1,2-1c0.4,0,0.7,0.1,1,0.2c0.3,0.1,0.6,0.3,0.7,0.5
	c0.2,0.2,0.3,0.5,0.3,0.8c0,0.2,0.1,0.5,0.1,1v3.8h-1.1v-3.8c0-0.4,0-0.7-0.1-1c-0.1-0.2-0.2-0.4-0.4-0.5c-0.2-0.1-0.5-0.2-0.7-0.2
	c-0.5,0-0.9,0.1-1.2,0.4c-0.3,0.3-0.5,0.8-0.5,1.6v3.4H163.4"/>
<path class="st2" d="M174.1,296.8l1,0.1c-0.1,0.7-0.4,1.3-0.9,1.7c-0.5,0.4-1,0.6-1.7,0.6c-0.9,0-1.5-0.3-2.1-0.8
	c-0.5-0.6-0.8-1.3-0.8-2.4c0-0.7,0.1-1.3,0.3-1.8c0.2-0.5,0.6-0.9,1-1.1c0.5-0.3,0.9-0.4,1.5-0.4c0.7,0,1.2,0.2,1.7,0.5
	c0.4,0.3,0.7,0.8,0.8,1.5l-1,0.2c-0.1-0.4-0.3-0.7-0.5-0.9c-0.3-0.2-0.6-0.3-0.9-0.3c-0.5,0-1,0.2-1.3,0.6c-0.3,0.4-0.5,1-0.5,1.8
	c0,0.8,0.2,1.5,0.5,1.8c0.3,0.4,0.7,0.6,1.3,0.6c0.4,0,0.8-0.1,1-0.4C173.9,297.7,174.1,297.3,174.1,296.8"/>
<path class="st2" d="M176.9,295.3h3.5c0-0.5-0.2-0.9-0.4-1.2c-0.3-0.4-0.8-0.6-1.3-0.6c-0.5,0-0.9,0.2-1.2,0.5
	C177.1,294.4,176.9,294.8,176.9,295.3 M180.4,297l1.1,0.1c-0.2,0.6-0.5,1.1-1,1.5c-0.5,0.3-1.1,0.5-1.8,0.5c-0.9,0-1.6-0.3-2.2-0.8
	c-0.5-0.6-0.8-1.3-0.8-2.4c0-1,0.3-1.9,0.8-2.4c0.5-0.6,1.2-0.9,2.1-0.9c0.8,0,1.5,0.3,2,0.9s0.8,1.4,0.8,2.4c0,0.1,0,0.2,0,0.3
	h-4.6c0,0.7,0.2,1.2,0.6,1.6c0.3,0.4,0.8,0.5,1.3,0.5c0.4,0,0.7-0.1,1-0.3C180,297.8,180.2,297.5,180.4,297"/>
<path class="st2" d="M186.4,299v-5.4h-0.9v-0.8h0.9v-0.7c0-0.4,0-0.7,0.1-0.9c0.1-0.3,0.3-0.5,0.5-0.7c0.3-0.2,0.6-0.3,1.1-0.3
	c0.3,0,0.6,0,1,0.1l-0.2,0.9c-0.2,0-0.4,0-0.6,0c-0.3,0-0.6,0.1-0.7,0.2c-0.1,0.1-0.2,0.4-0.2,0.8v0.6h1.2v0.8h-1.2v5.4H186.4"/>
<path class="st2" d="M189.4,299v-6.2h0.9v0.9c0.2-0.4,0.5-0.7,0.7-0.9c0.2-0.1,0.4-0.2,0.7-0.2c0.4,0,0.7,0.1,1.1,0.3l-0.4,1
	c-0.3-0.1-0.5-0.2-0.8-0.2c-0.2,0-0.4,0.1-0.6,0.2c-0.2,0.1-0.3,0.3-0.4,0.6c-0.1,0.4-0.2,0.8-0.2,1.2v3.3H189.4"/>
<path class="st2" d="M194.1,295.9c0,0.8,0.2,1.4,0.5,1.8c0.3,0.4,0.8,0.6,1.3,0.6s1-0.2,1.3-0.6c0.3-0.4,0.5-1,0.5-1.8
	c0-0.8-0.2-1.3-0.5-1.8c-0.4-0.4-0.8-0.6-1.3-0.6c-0.5,0-1,0.2-1.3,0.6C194.3,294.5,194.1,295.1,194.1,295.9 M193,295.9
	c0-1.2,0.3-2,1-2.6c0.5-0.5,1.2-0.7,2-0.7c0.9,0,1.5,0.3,2.1,0.8c0.5,0.6,0.8,1.3,0.8,2.3c0,0.8-0.1,1.4-0.4,1.9
	c-0.2,0.5-0.6,0.8-1.1,1.1c-0.5,0.2-1,0.4-1.5,0.4c-0.9,0-1.6-0.3-2.1-0.8C193.3,297.8,193,297,193,295.9"/>
<path class="st2" d="M200.1,299v-6.2h0.9v0.9c0.2-0.3,0.4-0.5,0.8-0.7c0.3-0.2,0.7-0.3,1.1-0.3c0.5,0,0.8,0.1,1.1,0.3
	c0.3,0.2,0.5,0.5,0.6,0.8c0.5-0.7,1.1-1.1,1.9-1.1c0.6,0,1.1,0.2,1.4,0.5s0.5,0.9,0.5,1.6v4.3h-1.1v-3.9c0-0.4,0-0.7-0.1-0.9
	c-0.1-0.2-0.2-0.3-0.4-0.5c-0.2-0.1-0.4-0.2-0.6-0.2c-0.4,0-0.8,0.2-1.1,0.4c-0.3,0.3-0.4,0.8-0.4,1.4v3.6h-1.1v-4
	c0-0.5-0.1-0.8-0.3-1.1c-0.2-0.2-0.5-0.3-0.8-0.3c-0.3,0-0.6,0.1-0.8,0.2c-0.3,0.2-0.4,0.4-0.5,0.7c-0.1,0.3-0.2,0.7-0.2,1.3v3.2
	H200.1"/>
<path class="st2" d="M214.4,296c0,0.8,0.2,1.4,0.5,1.8c0.3,0.4,0.7,0.6,1.2,0.6c0.5,0,0.9-0.2,1.2-0.6s0.5-1,0.5-1.8
	c0-0.8-0.2-1.4-0.5-1.8c-0.3-0.4-0.7-0.6-1.2-0.6c-0.5,0-0.9,0.2-1.2,0.6C214.6,294.6,214.4,295.2,214.4,296 M213.4,301.4v-8.6h1
	v0.8c0.2-0.3,0.5-0.6,0.8-0.7c0.3-0.2,0.6-0.2,1-0.2c0.5,0,1,0.1,1.4,0.4c0.4,0.3,0.7,0.7,0.9,1.2c0.2,0.5,0.3,1,0.3,1.6
	c0,0.6-0.1,1.2-0.3,1.7c-0.2,0.5-0.6,0.9-1,1.2c-0.4,0.3-0.9,0.4-1.4,0.4c-0.4,0-0.7-0.1-0.9-0.2c-0.3-0.1-0.5-0.3-0.7-0.6v3H213.4"
	/>
<path class="st2" d="M220.8,295.9c0,0.8,0.2,1.4,0.5,1.8c0.3,0.4,0.8,0.6,1.3,0.6s1-0.2,1.3-0.6c0.3-0.4,0.5-1,0.5-1.8
	c0-0.8-0.2-1.3-0.5-1.8c-0.4-0.4-0.8-0.6-1.3-0.6c-0.5,0-1,0.2-1.3,0.6C221,294.5,220.8,295.1,220.8,295.9 M219.7,295.9
	c0-1.2,0.3-2,1-2.6c0.5-0.5,1.2-0.7,2-0.7c0.9,0,1.5,0.3,2.1,0.8c0.5,0.6,0.8,1.3,0.8,2.3c0,0.8-0.1,1.4-0.4,1.9
	c-0.2,0.5-0.6,0.8-1.1,1.1c-0.5,0.2-1,0.4-1.5,0.4c-0.9,0-1.6-0.3-2.1-0.8C220,297.8,219.7,297,219.7,295.9"/>
<path class="st2" d="M226.8,299v-6.2h0.9v0.9c0.2-0.4,0.5-0.7,0.7-0.9c0.2-0.1,0.4-0.2,0.7-0.2c0.4,0,0.7,0.1,1.1,0.3l-0.4,1
	c-0.3-0.1-0.5-0.2-0.8-0.2c-0.2,0-0.4,0.1-0.6,0.2c-0.2,0.1-0.3,0.3-0.4,0.6c-0.1,0.4-0.2,0.8-0.2,1.2v3.3H226.8"/>
<path class="st2" d="M231.6,295.3h3.5c0-0.5-0.2-0.9-0.4-1.2c-0.3-0.4-0.8-0.6-1.3-0.6c-0.5,0-0.9,0.2-1.2,0.5
	C231.8,294.4,231.6,294.8,231.6,295.3 M235,297l1.1,0.1c-0.2,0.6-0.5,1.1-1,1.5c-0.5,0.3-1.1,0.5-1.8,0.5c-0.9,0-1.6-0.3-2.2-0.8
	c-0.5-0.6-0.8-1.3-0.8-2.4c0-1,0.3-1.9,0.8-2.4c0.5-0.6,1.2-0.9,2.1-0.9c0.8,0,1.5,0.3,2,0.9s0.8,1.4,0.8,2.4c0,0.1,0,0.2,0,0.3
	h-4.6c0,0.7,0.2,1.2,0.6,1.6c0.3,0.4,0.8,0.5,1.3,0.5c0.4,0,0.7-0.1,1-0.3C234.7,297.8,234.9,297.5,235,297"/>
<path class="st2" d="M244.8,296.8l1,0.1c-0.1,0.7-0.4,1.3-0.9,1.7c-0.5,0.4-1,0.6-1.7,0.6c-0.9,0-1.5-0.3-2.1-0.8
	c-0.5-0.6-0.8-1.3-0.8-2.4c0-0.7,0.1-1.3,0.3-1.8c0.2-0.5,0.6-0.9,1-1.1c0.5-0.3,0.9-0.4,1.5-0.4c0.7,0,1.2,0.2,1.7,0.5
	s0.7,0.8,0.8,1.5l-1,0.2c-0.1-0.4-0.3-0.7-0.5-0.9c-0.3-0.2-0.6-0.3-0.9-0.3c-0.5,0-1,0.2-1.3,0.6c-0.3,0.4-0.5,1-0.5,1.8
	c0,0.8,0.2,1.5,0.5,1.8c0.3,0.4,0.7,0.6,1.3,0.6c0.4,0,0.8-0.1,1-0.4C244.6,297.7,244.8,297.3,244.8,296.8"/>
<path class="st2" d="M247.6,295.3h3.5c0-0.5-0.2-0.9-0.4-1.2c-0.3-0.4-0.8-0.6-1.3-0.6c-0.5,0-0.9,0.2-1.2,0.5
	C247.8,294.4,247.6,294.8,247.6,295.3 M251,297l1.1,0.1c-0.2,0.6-0.5,1.1-1,1.5c-0.5,0.3-1.1,0.5-1.8,0.5c-0.9,0-1.6-0.3-2.2-0.8
	c-0.5-0.6-0.8-1.3-0.8-2.4c0-1,0.3-1.9,0.8-2.4c0.5-0.6,1.2-0.9,2.1-0.9c0.8,0,1.5,0.3,2,0.9c0.5,0.6,0.8,1.4,0.8,2.4
	c0,0.1,0,0.2,0,0.3h-4.6c0,0.7,0.2,1.2,0.6,1.6c0.3,0.4,0.8,0.5,1.3,0.5c0.4,0,0.7-0.1,1-0.3C250.7,297.8,250.9,297.5,251,297"/>
<path class="st2" d="M253.5,299v-6.2h0.9v0.9c0.5-0.7,1.1-1,2-1c0.4,0,0.7,0.1,1,0.2c0.3,0.1,0.6,0.3,0.7,0.5s0.3,0.5,0.3,0.8
	c0,0.2,0.1,0.5,0.1,1v3.8h-1.1v-3.8c0-0.4,0-0.7-0.1-1c-0.1-0.2-0.2-0.4-0.4-0.5c-0.2-0.1-0.5-0.2-0.7-0.2c-0.5,0-0.9,0.1-1.2,0.4
	s-0.5,0.8-0.5,1.6v3.4H253.5"/>
<path class="st2" d="M262.4,298.1l0.2,0.9c-0.3,0-0.6,0.1-0.8,0.1c-0.4,0-0.7-0.1-0.9-0.2c-0.2-0.1-0.4-0.3-0.4-0.5
	c-0.1-0.2-0.1-0.6-0.1-1.2v-3.6h-0.8v-0.8h0.8v-1.5l1-0.6v2.2h1.1v0.8h-1.1v3.6c0,0.3,0,0.5,0.1,0.6c0,0.1,0.1,0.2,0.2,0.2
	c0.1,0,0.2,0.1,0.4,0.1C262.1,298.1,262.2,298.1,262.4,298.1"/>
<path class="st2" d="M264.3,295.3h3.5c0-0.5-0.2-0.9-0.4-1.2c-0.3-0.4-0.8-0.6-1.3-0.6c-0.5,0-0.9,0.2-1.2,0.5
	C264.5,294.4,264.3,294.8,264.3,295.3 M267.7,297l1.1,0.1c-0.2,0.6-0.5,1.1-1,1.5c-0.5,0.3-1.1,0.5-1.8,0.5c-0.9,0-1.6-0.3-2.2-0.8
	c-0.5-0.6-0.8-1.3-0.8-2.4c0-1,0.3-1.9,0.8-2.4c0.5-0.6,1.2-0.9,2.1-0.9c0.8,0,1.5,0.3,2,0.9c0.5,0.6,0.8,1.4,0.8,2.4
	c0,0.1,0,0.2,0,0.3h-4.6c0,0.7,0.2,1.2,0.6,1.6c0.3,0.4,0.8,0.5,1.3,0.5c0.4,0,0.7-0.1,1-0.3C267.3,297.8,267.6,297.5,267.7,297"/>
<path class="st2" d="M270.1,299v-6.2h0.9v0.9c0.2-0.4,0.5-0.7,0.7-0.9c0.2-0.1,0.4-0.2,0.7-0.2c0.4,0,0.7,0.1,1.1,0.3l-0.4,1
	c-0.3-0.1-0.5-0.2-0.8-0.2c-0.2,0-0.4,0.1-0.6,0.2c-0.2,0.1-0.3,0.3-0.4,0.6c-0.1,0.4-0.2,0.8-0.2,1.2v3.3H270.1"/>
<path class="st2" d="M279.5,301.5c-0.6-0.7-1.1-1.6-1.5-2.6c-0.4-1-0.6-2-0.6-3.1c0-0.9,0.1-1.8,0.4-2.7c0.3-1,0.9-2,1.6-3h0.8
	c-0.5,0.8-0.8,1.4-0.9,1.7c-0.2,0.5-0.4,1.1-0.6,1.7c-0.2,0.7-0.3,1.5-0.3,2.2c0,1.9,0.6,3.7,1.8,5.6H279.5"/>
<path class="st2" d="M281.5,299v-6.2h0.9v0.9c0.5-0.7,1.1-1,2-1c0.4,0,0.7,0.1,1,0.2c0.3,0.1,0.6,0.3,0.7,0.5s0.3,0.5,0.3,0.8
	c0,0.2,0.1,0.5,0.1,1v3.8h-1.1v-3.8c0-0.4,0-0.7-0.1-1c-0.1-0.2-0.2-0.4-0.4-0.5c-0.2-0.1-0.5-0.2-0.7-0.2c-0.5,0-0.9,0.1-1.2,0.4
	s-0.5,0.8-0.5,1.6v3.4H281.5"/>
<path class="st2" d="M288.1,299v-6.2h0.9v0.9c0.2-0.3,0.4-0.5,0.8-0.7c0.3-0.2,0.7-0.3,1.1-0.3c0.5,0,0.8,0.1,1.1,0.3
	c0.3,0.2,0.5,0.5,0.6,0.8c0.5-0.7,1.1-1.1,1.9-1.1c0.6,0,1.1,0.2,1.4,0.5s0.5,0.9,0.5,1.6v4.3h-1.1v-3.9c0-0.4,0-0.7-0.1-0.9
	c-0.1-0.2-0.2-0.3-0.4-0.5c-0.2-0.1-0.4-0.2-0.6-0.2c-0.4,0-0.8,0.2-1.1,0.4c-0.3,0.3-0.4,0.8-0.4,1.4v3.6h-1.1v-4
	c0-0.5-0.1-0.8-0.3-1.1c-0.2-0.2-0.5-0.3-0.8-0.3c-0.3,0-0.6,0.1-0.8,0.2c-0.3,0.2-0.4,0.4-0.5,0.7c-0.1,0.3-0.2,0.7-0.2,1.3v3.2
	H288.1"/>
<path class="st2" d="M298.8,301.5h-0.8c1.2-1.9,1.8-3.7,1.8-5.6c0-0.7-0.1-1.5-0.3-2.2c-0.1-0.6-0.3-1.1-0.6-1.7
	c-0.2-0.3-0.5-0.9-0.9-1.8h0.8c0.7,1,1.3,2,1.6,3c0.3,0.9,0.5,1.8,0.5,2.7c0,1.1-0.2,2.1-0.6,3.1C299.9,300,299.4,300.8,298.8,301.5
	"/>
<g>
	<defs>
		<rect id="SVGID_15_" x="39.7" y="0.6" width="357.1" height="266.1"/>
	</defs>
	<clipPath id="SVGID_16_">
		<use xlink:href="#SVGID_15_"  style="overflow:visible;"/>
	</clipPath>
	<line class="st9" x1="39.7" y1="255.7" x2="396.9" y2="255.7"/>
</g>
<path class="st2" d="M25.6,255.7c0,1.3,0.1,2.2,0.5,2.6c0.3,0.4,0.7,0.6,1.1,0.6c0.4,0,0.8-0.2,1.1-0.6c0.3-0.4,0.5-1.3,0.5-2.6
	c0-1.3-0.2-2.2-0.5-2.6c-0.3-0.4-0.7-0.6-1.1-0.6c-0.5,0-0.8,0.2-1.1,0.6C25.7,253.5,25.6,254.4,25.6,255.7 M24.6,255.7
	c0-0.9,0.1-1.7,0.3-2.2c0.2-0.6,0.5-1,0.8-1.3c0.4-0.3,0.9-0.5,1.4-0.5c0.4,0,0.8,0.1,1.1,0.3c0.3,0.2,0.6,0.4,0.8,0.7
	s0.4,0.7,0.5,1.2c0.1,0.5,0.2,1.1,0.2,1.9c0,0.9-0.1,1.7-0.3,2.2c-0.2,0.6-0.5,1-0.8,1.3c-0.4,0.3-0.9,0.5-1.4,0.5
	c-0.8,0-1.4-0.3-1.8-0.8C24.8,258.3,24.6,257.2,24.6,255.7"/>
<g>
	<defs>
		<rect id="SVGID_17_" x="39.7" y="0.6" width="357.1" height="266.1"/>
	</defs>
	<clipPath id="SVGID_18_">
		<use xlink:href="#SVGID_17_"  style="overflow:visible;"/>
	</clipPath>
	<line class="st10" x1="39.7" y1="206.8" x2="396.9" y2="206.8"/>
</g>
<path class="st2" d="M29.7,209.9v0.9h-5.2c0-0.2,0-0.5,0.1-0.7c0.1-0.4,0.3-0.7,0.6-1c0.3-0.3,0.7-0.7,1.3-1.2
	c0.9-0.7,1.4-1.2,1.7-1.7c0.3-0.4,0.5-0.8,0.5-1.2s-0.1-0.7-0.4-1c-0.3-0.3-0.6-0.4-1.1-0.4c-0.5,0-0.8,0.1-1.1,0.4
	c-0.3,0.3-0.4,0.7-0.4,1.2l-1-0.1c0.1-0.7,0.3-1.3,0.8-1.7c0.4-0.4,1-0.6,1.8-0.6s1.4,0.2,1.8,0.6c0.4,0.4,0.7,0.9,0.7,1.6
	c0,0.3-0.1,0.6-0.2,0.9s-0.3,0.6-0.6,1c-0.3,0.3-0.8,0.8-1.5,1.4c-0.6,0.5-1,0.8-1.1,1c-0.2,0.2-0.3,0.4-0.4,0.5H29.7"/>
<g>
	<defs>
		<rect id="SVGID_19_" x="39.7" y="0.6" width="357.1" height="266.1"/>
	</defs>
	<clipPath id="SVGID_20_">
		<use xlink:href="#SVGID_19_"  style="overflow:visible;"/>
	</clipPath>
	<line class="st11" x1="39.7" y1="158" x2="396.9" y2="158"/>
</g>
<path class="st2" d="M27.7,159.2v-3.6l-2.5,3.6H27.7 M27.7,161.9v-1.9h-3.4v-0.9l3.6-5.1h0.8v5.1h1.1v0.9h-1.1v1.9H27.7"/>
<g>
	<defs>
		<rect id="SVGID_21_" x="39.7" y="0.6" width="357.1" height="266.1"/>
	</defs>
	<clipPath id="SVGID_22_">
		<use xlink:href="#SVGID_21_"  style="overflow:visible;"/>
	</clipPath>
	<line class="st12" x1="39.7" y1="109.2" x2="396.9" y2="109.2"/>
</g>
<path class="st2" d="M25.7,110.6c0,0.3,0.1,0.6,0.2,1c0.1,0.3,0.3,0.5,0.6,0.7c0.3,0.2,0.5,0.2,0.8,0.2c0.4,0,0.7-0.2,1-0.5
	c0.3-0.3,0.4-0.8,0.4-1.3c0-0.5-0.2-1-0.4-1.3c-0.3-0.3-0.6-0.5-1.1-0.5c-0.4,0-0.8,0.2-1.1,0.5C25.8,109.6,25.7,110.1,25.7,110.6
	 M29.6,107.2l-1,0.1c-0.1-0.4-0.2-0.6-0.4-0.8c-0.3-0.3-0.6-0.4-1-0.4c-0.3,0-0.6,0.1-0.8,0.3c-0.3,0.2-0.5,0.6-0.7,1
	c-0.2,0.4-0.3,1-0.3,1.8c0.2-0.4,0.5-0.6,0.9-0.8c0.3-0.2,0.7-0.3,1.1-0.3c0.6,0,1.2,0.2,1.6,0.7c0.5,0.5,0.7,1.1,0.7,1.8
	c0,0.5-0.1,1-0.3,1.4c-0.2,0.4-0.5,0.7-0.9,1s-0.8,0.3-1.3,0.3c-0.8,0-1.5-0.3-2-0.9c-0.5-0.6-0.8-1.6-0.8-2.9
	c0-1.5,0.3-2.6,0.8-3.3c0.5-0.6,1.1-0.9,2-0.9c0.6,0,1.1,0.2,1.5,0.5C29.3,106.1,29.5,106.6,29.6,107.2"/>
<g>
	<defs>
		<rect id="SVGID_23_" x="39.7" y="0.6" width="357.1" height="266.1"/>
	</defs>
	<clipPath id="SVGID_24_">
		<use xlink:href="#SVGID_23_"  style="overflow:visible;"/>
	</clipPath>
	<line class="st13" x1="39.7" y1="60.3" x2="396.9" y2="60.3"/>
</g>
<path class="st2" d="M25.6,62c0,0.3,0.1,0.5,0.2,0.8c0.1,0.3,0.3,0.5,0.6,0.6c0.3,0.1,0.5,0.2,0.8,0.2c0.5,0,0.8-0.1,1.1-0.4
	c0.3-0.3,0.5-0.7,0.5-1.1c0-0.5-0.2-0.8-0.5-1.1s-0.7-0.5-1.2-0.5c-0.5,0-0.8,0.2-1.1,0.5C25.7,61.2,25.6,61.6,25.6,62 M25.9,58.4
	c0,0.4,0.1,0.7,0.4,0.9c0.2,0.2,0.5,0.4,0.9,0.4c0.4,0,0.7-0.1,0.9-0.4c0.2-0.2,0.4-0.5,0.4-0.9c0-0.4-0.1-0.6-0.4-0.9
	c-0.2-0.2-0.5-0.4-0.9-0.4c-0.4,0-0.7,0.1-0.9,0.4C26,57.8,25.9,58,25.9,58.4 M26.1,60c-0.4-0.1-0.7-0.4-0.9-0.6
	c-0.2-0.3-0.3-0.6-0.3-1c0-0.6,0.2-1,0.6-1.4s1-0.6,1.7-0.6c0.7,0,1.2,0.2,1.7,0.6s0.6,0.9,0.6,1.5c0,0.4-0.1,0.7-0.3,1
	c-0.2,0.3-0.5,0.5-0.9,0.6c0.5,0.2,0.8,0.4,1.1,0.8c0.3,0.4,0.4,0.8,0.4,1.3c0,0.7-0.2,1.2-0.7,1.7c-0.5,0.5-1.1,0.7-1.9,0.7
	c-0.8,0-1.4-0.2-1.9-0.7c-0.5-0.5-0.7-1-0.7-1.7c0-0.5,0.1-0.9,0.4-1.3C25.2,60.4,25.6,60.1,26.1,60"/>
<g>
	<defs>
		<rect id="SVGID_25_" x="39.7" y="0.6" width="357.1" height="266.1"/>
	</defs>
	<clipPath id="SVGID_26_">
		<use xlink:href="#SVGID_25_"  style="overflow:visible;"/>
	</clipPath>
	<line class="st14" x1="39.7" y1="11.5" x2="396.9" y2="11.5"/>
</g>
<path class="st2" d="M22.1,15.4h-1V9.3c-0.2,0.2-0.6,0.5-0.9,0.7c-0.4,0.2-0.7,0.4-1,0.5V9.5c0.5-0.3,1-0.6,1.4-0.9
	c0.4-0.4,0.7-0.7,0.9-1.1h0.6V15.4"/>
<path class="st2" d="M25.6,11.6c0,1.3,0.1,2.2,0.5,2.6c0.3,0.4,0.7,0.6,1.1,0.6c0.4,0,0.8-0.2,1.1-0.6c0.3-0.4,0.5-1.3,0.5-2.6
	S28.6,9.4,28.3,9c-0.3-0.4-0.7-0.6-1.1-0.6c-0.5,0-0.8,0.2-1.1,0.6C25.7,9.4,25.6,10.3,25.6,11.6 M24.6,11.6c0-0.9,0.1-1.7,0.3-2.2
	c0.2-0.6,0.5-1,0.8-1.3c0.4-0.3,0.9-0.5,1.4-0.5c0.4,0,0.8,0.1,1.1,0.3C28.6,8,28.8,8.2,29,8.5s0.4,0.7,0.5,1.2
	c0.1,0.5,0.2,1.1,0.2,1.9c0,0.9-0.1,1.7-0.3,2.2c-0.2,0.6-0.5,1-0.8,1.3c-0.4,0.3-0.9,0.5-1.4,0.5c-0.8,0-1.4-0.3-1.8-0.8
	C24.8,14.1,24.6,13,24.6,11.6"/>
<path class="st2" d="M10.8,221.8H2.2v-1.7l6.1-2c0.6-0.2,1-0.3,1.3-0.4c-0.3-0.1-0.8-0.3-1.4-0.5l-6-2.1v-1.5h8.6v1.1H3.6l7.2,2.5v1
	l-7.3,2.5h7.3V221.8"/>
<path class="st2" d="M7.1,211.1v-3.5c-0.5,0-0.9,0.2-1.2,0.4c-0.4,0.3-0.6,0.8-0.6,1.3c0,0.5,0.2,0.9,0.5,1.2
	C6.1,210.9,6.6,211.1,7.1,211.1 M8.8,207.6l0.1-1.1c0.6,0.2,1.1,0.5,1.5,1c0.3,0.5,0.5,1.1,0.5,1.8c0,0.9-0.3,1.6-0.8,2.2
	s-1.3,0.8-2.4,0.8c-1,0-1.9-0.3-2.4-0.8c-0.6-0.5-0.9-1.2-0.9-2.1c0-0.8,0.3-1.5,0.9-2c0.6-0.5,1.4-0.8,2.4-0.8c0.1,0,0.2,0,0.3,0
	v4.6c0.7,0,1.2-0.2,1.6-0.6c0.4-0.3,0.5-0.8,0.5-1.3c0-0.4-0.1-0.7-0.3-1C9.6,208,9.3,207.8,8.8,207.6"/>
<path class="st2" d="M7.7,201.2c0.2,0.4,0.3,1,0.4,1.7c0.1,0.4,0.1,0.7,0.2,0.9c0.1,0.2,0.2,0.3,0.3,0.4c0.2,0.1,0.3,0.1,0.5,0.1
	c0.3,0,0.5-0.1,0.7-0.3c0.2-0.2,0.3-0.5,0.3-0.9s-0.1-0.8-0.3-1.1c-0.2-0.3-0.4-0.6-0.7-0.7c-0.2-0.1-0.6-0.2-1.1-0.2H7.7
	 M10.1,201.2c0.3,0.4,0.6,0.8,0.7,1.1c0.1,0.4,0.2,0.8,0.2,1.2c0,0.7-0.2,1.2-0.5,1.6c-0.3,0.4-0.8,0.6-1.3,0.6
	c-0.3,0-0.6-0.1-0.8-0.2c-0.3-0.1-0.5-0.3-0.6-0.6c-0.1-0.2-0.3-0.5-0.3-0.8c0-0.2-0.1-0.5-0.2-0.9c-0.1-0.9-0.2-1.5-0.4-1.9
	c-0.1,0-0.2,0-0.3,0c-0.4,0-0.7,0.1-0.9,0.3c-0.2,0.3-0.4,0.7-0.4,1.2c0,0.5,0.1,0.9,0.3,1.1c0.2,0.2,0.5,0.4,0.9,0.5l-0.1,1
	c-0.4-0.1-0.8-0.3-1.1-0.5c-0.3-0.2-0.5-0.5-0.6-0.9c-0.1-0.4-0.2-0.9-0.2-1.4c0-0.5,0.1-1,0.2-1.3c0.1-0.3,0.3-0.6,0.5-0.7
	c0.2-0.2,0.4-0.3,0.7-0.3c0.2,0,0.5-0.1,1-0.1h1.4c1,0,1.6,0,1.9-0.1s0.5-0.1,0.7-0.3v1.1C10.6,201.1,10.4,201.1,10.1,201.2"/>
<path class="st2" d="M10.8,198.5H4.6v-0.9h0.9c-0.7-0.5-1-1.1-1-2c0-0.4,0.1-0.7,0.2-1s0.3-0.6,0.5-0.7c0.2-0.2,0.5-0.3,0.8-0.3
	c0.2,0,0.5-0.1,1-0.1h3.8v1.1H7c-0.4,0-0.7,0-1,0.1c-0.2,0.1-0.4,0.2-0.5,0.4c-0.1,0.2-0.2,0.5-0.2,0.7c0,0.5,0.1,0.9,0.4,1.2
	c0.3,0.3,0.8,0.5,1.6,0.5h3.4V198.5"/>
<path class="st2" d="M9,189l-0.2-1c0.4,0,0.7-0.2,1-0.5s0.3-0.6,0.3-1.1c0-0.5-0.1-0.8-0.3-1.1c-0.2-0.2-0.4-0.3-0.7-0.3
	c-0.2,0-0.4,0.1-0.6,0.3c-0.1,0.1-0.2,0.5-0.4,1.1c-0.2,0.8-0.4,1.3-0.5,1.6c-0.1,0.3-0.3,0.5-0.6,0.7c-0.3,0.2-0.5,0.2-0.8,0.2
	c-0.3,0-0.5-0.1-0.8-0.2c-0.2-0.1-0.4-0.3-0.6-0.5c-0.1-0.2-0.2-0.4-0.3-0.7c-0.1-0.3-0.1-0.6-0.1-0.9c0-0.5,0.1-0.9,0.2-1.3
	c0.1-0.4,0.3-0.6,0.6-0.8c0.2-0.2,0.6-0.3,1-0.4l0.1,1c-0.3,0-0.6,0.2-0.7,0.4c-0.2,0.2-0.3,0.5-0.3,0.9c0,0.5,0.1,0.8,0.2,1
	c0.2,0.2,0.3,0.3,0.6,0.3c0.1,0,0.3,0,0.4-0.1c0.1-0.1,0.2-0.2,0.3-0.4c0-0.1,0.1-0.4,0.3-0.9c0.2-0.7,0.4-1.3,0.5-1.6
	c0.1-0.3,0.3-0.5,0.6-0.7c0.2-0.2,0.5-0.3,0.9-0.3c0.4,0,0.7,0.1,1,0.3c0.3,0.2,0.5,0.5,0.7,0.9c0.2,0.4,0.3,0.8,0.3,1.3
	c0,0.8-0.2,1.4-0.5,1.8C10.1,188.6,9.6,188.8,9,189"/>
<path class="st2" d="M7.7,181.8c0.8,0,1.4-0.2,1.8-0.5c0.4-0.3,0.6-0.7,0.6-1.2c0-0.4-0.2-0.8-0.6-1.2c-0.4-0.3-1-0.5-1.7-0.5
	c-0.8,0-1.4,0.2-1.9,0.5s-0.6,0.7-0.6,1.2s0.2,0.9,0.6,1.2C6.3,181.7,6.9,181.8,7.7,181.8 M13.2,178.6h-3c0.2,0.2,0.4,0.4,0.6,0.7
	c0.1,0.3,0.2,0.6,0.2,0.9c0,0.7-0.3,1.4-0.9,1.9c-0.6,0.5-1.4,0.8-2.4,0.8c-0.6,0-1.2-0.1-1.7-0.3c-0.5-0.2-0.9-0.5-1.1-0.9
	c-0.3-0.4-0.4-0.9-0.4-1.4c0-0.8,0.3-1.4,1-1.8H4.6v-0.9h8.6V178.6"/>
<path class="st2" d="M10.8,171.8H9.9c0.7,0.5,1,1.2,1,2c0,0.4-0.1,0.7-0.2,1s-0.3,0.6-0.5,0.7c-0.2,0.2-0.5,0.3-0.8,0.3
	c-0.2,0-0.5,0.1-1,0.1H4.6v-1.1h3.5c0.6,0,0.9,0,1.1-0.1c0.3-0.1,0.5-0.2,0.6-0.4c0.2-0.2,0.2-0.5,0.2-0.8c0-0.3-0.1-0.6-0.2-0.9
	c-0.2-0.3-0.4-0.5-0.7-0.6c-0.3-0.1-0.7-0.2-1.2-0.2H4.6v-1.1h6.2V171.8"/>
<path class="st2" d="M7.7,165.2c0.2,0.4,0.3,1,0.4,1.7c0.1,0.4,0.1,0.7,0.2,0.9c0.1,0.2,0.2,0.3,0.3,0.4c0.2,0.1,0.3,0.1,0.5,0.1
	c0.3,0,0.5-0.1,0.7-0.3c0.2-0.2,0.3-0.5,0.3-0.9s-0.1-0.8-0.3-1.1s-0.4-0.6-0.7-0.7c-0.2-0.1-0.6-0.2-1.1-0.2H7.7 M10.1,165.1
	c0.3,0.4,0.6,0.8,0.7,1.1c0.1,0.4,0.2,0.8,0.2,1.2c0,0.7-0.2,1.2-0.5,1.6c-0.3,0.4-0.8,0.6-1.3,0.6c-0.3,0-0.6-0.1-0.8-0.2
	s-0.5-0.3-0.6-0.6c-0.1-0.2-0.3-0.5-0.3-0.8c0-0.2-0.1-0.5-0.2-0.9c-0.1-0.9-0.2-1.5-0.4-1.9c-0.1,0-0.2,0-0.3,0
	c-0.4,0-0.7,0.1-0.9,0.3c-0.2,0.3-0.4,0.7-0.4,1.2c0,0.5,0.1,0.9,0.3,1.1c0.2,0.2,0.5,0.4,0.9,0.5l-0.1,1c-0.4-0.1-0.8-0.3-1.1-0.5
	c-0.3-0.2-0.5-0.5-0.6-0.9c-0.1-0.4-0.2-0.9-0.2-1.4c0-0.5,0.1-1,0.2-1.3c0.1-0.3,0.3-0.6,0.5-0.7c0.2-0.2,0.4-0.3,0.7-0.3
	c0.2,0,0.5-0.1,1-0.1h1.4c1,0,1.6,0,1.9-0.1s0.5-0.1,0.7-0.3v1.1C10.6,165,10.4,165.1,10.1,165.1"/>
<path class="st2" d="M10.8,162.5H4.6v-0.9h0.9c-0.4-0.2-0.7-0.5-0.9-0.7c-0.1-0.2-0.2-0.4-0.2-0.7c0-0.4,0.1-0.7,0.3-1.1l1,0.4
	c-0.1,0.3-0.2,0.5-0.2,0.8c0,0.2,0.1,0.4,0.2,0.6c0.1,0.2,0.3,0.3,0.6,0.4c0.4,0.1,0.8,0.2,1.2,0.2h3.3V162.5"/>
<path class="st2" d="M7.1,157.7v-3.5c-0.5,0-0.9,0.2-1.2,0.4c-0.4,0.3-0.6,0.8-0.6,1.3c0,0.5,0.2,0.9,0.5,1.2
	C6.1,157.5,6.6,157.7,7.1,157.7 M8.8,154.3l0.1-1.1c0.6,0.2,1.1,0.5,1.5,1c0.3,0.5,0.5,1.1,0.5,1.8c0,0.9-0.3,1.6-0.8,2.2
	c-0.6,0.5-1.3,0.8-2.4,0.8c-1,0-1.9-0.3-2.4-0.8c-0.6-0.5-0.9-1.2-0.9-2.1c0-0.8,0.3-1.5,0.9-2c0.6-0.5,1.4-0.8,2.4-0.8
	c0.1,0,0.2,0,0.3,0v4.6c0.7,0,1.2-0.2,1.6-0.6c0.4-0.3,0.5-0.8,0.5-1.3c0-0.4-0.1-0.7-0.3-1C9.6,154.6,9.3,154.4,8.8,154.3"/>
<path class="st2" d="M7.7,147.8c0.8,0,1.4-0.2,1.8-0.5c0.4-0.3,0.6-0.7,0.6-1.2c0-0.5-0.2-0.8-0.6-1.2c-0.4-0.3-0.9-0.5-1.7-0.5
	c-0.9,0-1.5,0.2-1.9,0.5c-0.4,0.3-0.6,0.7-0.6,1.2s0.2,0.9,0.6,1.2S6.9,147.8,7.7,147.8 M10.8,144.5H10c0.6,0.4,0.9,1,0.9,1.7
	c0,0.5-0.1,1-0.4,1.4c-0.3,0.4-0.6,0.7-1.1,1c-0.5,0.2-1,0.3-1.7,0.3c-0.6,0-1.2-0.1-1.7-0.3c-0.5-0.2-0.9-0.5-1.2-0.9
	s-0.4-0.9-0.4-1.4c0-0.4,0.1-0.7,0.2-1c0.2-0.3,0.4-0.5,0.6-0.7H2.2v-1.1h8.6V144.5"/>
<path class="st2" d="M10.8,141.8H4.6v-1.1h6.2V141.8 M3.4,141.8H2.2v-1.1h1.2V141.8"/>
<path class="st2" d="M9,139.6l-0.2-1c0.4,0,0.7-0.2,1-0.5c0.2-0.3,0.3-0.6,0.3-1.1s-0.1-0.8-0.3-1.1c-0.2-0.2-0.4-0.3-0.7-0.3
	c-0.2,0-0.4,0.1-0.6,0.3c-0.1,0.1-0.2,0.5-0.4,1.1c-0.2,0.8-0.4,1.3-0.5,1.6c-0.1,0.3-0.3,0.5-0.6,0.7c-0.3,0.2-0.5,0.2-0.8,0.2
	c-0.3,0-0.5-0.1-0.8-0.2c-0.2-0.1-0.4-0.3-0.6-0.5c-0.1-0.2-0.2-0.4-0.3-0.7c-0.1-0.3-0.1-0.6-0.1-0.9c0-0.5,0.1-0.9,0.2-1.3
	c0.1-0.4,0.3-0.6,0.6-0.8c0.2-0.2,0.6-0.3,1-0.4l0.1,1c-0.3,0-0.6,0.2-0.7,0.4c-0.2,0.2-0.3,0.5-0.3,0.9c0,0.5,0.1,0.8,0.2,1
	c0.2,0.2,0.3,0.3,0.6,0.3c0.1,0,0.3,0,0.4-0.1c0.1-0.1,0.2-0.2,0.3-0.4c0-0.1,0.1-0.4,0.3-0.9c0.2-0.7,0.4-1.3,0.5-1.6
	c0.1-0.3,0.3-0.5,0.6-0.7c0.2-0.2,0.5-0.3,0.9-0.3c0.4,0,0.7,0.1,1,0.3c0.3,0.2,0.5,0.5,0.7,0.9c0.2,0.4,0.3,0.8,0.3,1.3
	c0,0.8-0.2,1.4-0.5,1.8C10.1,139.2,9.6,139.5,9,139.6"/>
<path class="st2" d="M7.8,132.2c0.8,0,1.4-0.2,1.8-0.5c0.4-0.3,0.6-0.7,0.6-1.2c0-0.5-0.2-0.9-0.6-1.2s-1-0.5-1.8-0.5
	c-0.8,0-1.4,0.2-1.8,0.5c-0.4,0.3-0.6,0.7-0.6,1.2c0,0.5,0.2,0.9,0.6,1.2C6.4,132,7,132.2,7.8,132.2 M13.2,133.2H4.6v-1h0.8
	c-0.3-0.2-0.6-0.5-0.7-0.8c-0.2-0.3-0.2-0.6-0.2-1c0-0.5,0.1-1,0.4-1.4c0.3-0.4,0.7-0.7,1.2-0.9c0.5-0.2,1-0.3,1.6-0.3
	c0.6,0,1.2,0.1,1.7,0.3c0.5,0.2,0.9,0.6,1.2,1c0.3,0.4,0.4,0.9,0.4,1.4c0,0.4-0.1,0.7-0.2,0.9c-0.1,0.3-0.3,0.5-0.6,0.7h3V133.2"/>
<polyline class="st2" points="10.8,126.5 2.2,126.5 2.2,125.5 10.8,125.5 10.8,126.5 "/>
<path class="st2" d="M7.7,119.9c0.2,0.4,0.3,1,0.4,1.7c0.1,0.4,0.1,0.7,0.2,0.9c0.1,0.2,0.2,0.3,0.3,0.4c0.2,0.1,0.3,0.1,0.5,0.1
	c0.3,0,0.5-0.1,0.7-0.3c0.2-0.2,0.3-0.5,0.3-0.9s-0.1-0.8-0.3-1.1s-0.4-0.6-0.7-0.7c-0.2-0.1-0.6-0.2-1.1-0.2H7.7 M10.1,119.8
	c0.3,0.4,0.6,0.8,0.7,1.1c0.1,0.4,0.2,0.8,0.2,1.2c0,0.7-0.2,1.2-0.5,1.6c-0.3,0.4-0.8,0.6-1.3,0.6c-0.3,0-0.6-0.1-0.8-0.2
	s-0.5-0.3-0.6-0.6c-0.1-0.2-0.3-0.5-0.3-0.8c0-0.2-0.1-0.5-0.2-0.9c-0.1-0.9-0.2-1.5-0.4-1.9c-0.1,0-0.2,0-0.3,0
	c-0.4,0-0.7,0.1-0.9,0.3c-0.2,0.3-0.4,0.7-0.4,1.2c0,0.5,0.1,0.9,0.3,1.1c0.2,0.2,0.5,0.4,0.9,0.5l-0.1,1c-0.4-0.1-0.8-0.3-1.1-0.5
	c-0.3-0.2-0.5-0.5-0.6-0.9c-0.1-0.4-0.2-0.9-0.2-1.4c0-0.5,0.1-1,0.2-1.3c0.1-0.3,0.3-0.6,0.5-0.7c0.2-0.2,0.4-0.3,0.7-0.3
	c0.2,0,0.5-0.1,1-0.1h1.4c1,0,1.6,0,1.9-0.1s0.5-0.1,0.7-0.3v1.1C10.6,119.7,10.4,119.8,10.1,119.8"/>
<path class="st2" d="M8.5,113.1l0.1-1c0.7,0.1,1.3,0.4,1.7,0.9c0.4,0.5,0.6,1,0.6,1.7c0,0.9-0.3,1.5-0.8,2.1
	c-0.6,0.5-1.3,0.8-2.4,0.8c-0.7,0-1.3-0.1-1.8-0.3c-0.5-0.2-0.9-0.6-1.1-1c-0.3-0.5-0.4-0.9-0.4-1.5c0-0.7,0.2-1.2,0.5-1.7
	c0.3-0.4,0.8-0.7,1.5-0.8l0.2,1c-0.4,0.1-0.7,0.3-0.9,0.5c-0.2,0.3-0.3,0.6-0.3,0.9c0,0.5,0.2,1,0.6,1.3c0.4,0.3,1,0.5,1.8,0.5
	c0.8,0,1.5-0.2,1.8-0.5c0.4-0.3,0.6-0.7,0.6-1.3c0-0.4-0.1-0.8-0.4-1C9.5,113.4,9.1,113.2,8.5,113.1"/>
<path class="st2" d="M7.1,110.4v-3.5c-0.5,0-0.9,0.2-1.2,0.4c-0.4,0.3-0.6,0.8-0.6,1.3c0,0.5,0.2,0.9,0.5,1.2
	C6.1,110.2,6.6,110.3,7.1,110.4 M8.8,106.9l0.1-1.1c0.6,0.2,1.1,0.5,1.5,1c0.3,0.5,0.5,1.1,0.5,1.8c0,0.9-0.3,1.6-0.8,2.2
	c-0.6,0.5-1.3,0.8-2.4,0.8c-1,0-1.9-0.3-2.4-0.8c-0.6-0.5-0.9-1.2-0.9-2.1c0-0.8,0.3-1.5,0.9-2c0.6-0.5,1.4-0.8,2.4-0.8
	c0.1,0,0.2,0,0.3,0v4.6c0.7,0,1.2-0.2,1.6-0.6c0.4-0.3,0.5-0.8,0.5-1.3c0-0.4-0.1-0.7-0.3-1C9.6,107.3,9.3,107.1,8.8,106.9"/>
<path class="st2" d="M10.8,104.5H4.6v-0.9h0.9c-0.3-0.2-0.5-0.4-0.7-0.8c-0.2-0.3-0.3-0.7-0.3-1.1c0-0.5,0.1-0.8,0.3-1.1
	c0.2-0.3,0.5-0.5,0.8-0.6c-0.7-0.5-1.1-1.1-1.1-1.9c0-0.6,0.2-1.1,0.5-1.4S5.8,96,6.6,96h4.3v1.1H6.9c-0.4,0-0.7,0-0.9,0.1
	c-0.2,0.1-0.3,0.2-0.5,0.4c-0.1,0.2-0.2,0.4-0.2,0.6c0,0.4,0.2,0.8,0.4,1.1c0.3,0.3,0.8,0.4,1.4,0.4h3.6v1.1h-4
	c-0.5,0-0.8,0.1-1.1,0.3c-0.2,0.2-0.3,0.5-0.3,0.8c0,0.3,0.1,0.6,0.2,0.8s0.4,0.4,0.7,0.5c0.3,0.1,0.7,0.2,1.3,0.2h3.2V104.5"/>
<path class="st2" d="M7.1,93.7v-3.5c-0.5,0-0.9,0.2-1.2,0.4c-0.4,0.3-0.6,0.8-0.6,1.3c0,0.5,0.2,0.9,0.5,1.2
	C6.1,93.5,6.6,93.7,7.1,93.7 M8.8,90.2L9,89.1c0.6,0.2,1.1,0.5,1.5,1c0.3,0.5,0.5,1.1,0.5,1.8c0,0.9-0.3,1.6-0.8,2.2
	c-0.6,0.5-1.3,0.8-2.4,0.8c-1,0-1.9-0.3-2.4-0.8c-0.6-0.5-0.9-1.2-0.9-2.1c0-0.8,0.3-1.5,0.9-2c0.6-0.5,1.4-0.8,2.4-0.8
	c0.1,0,0.2,0,0.3,0v4.6c0.7,0,1.2-0.2,1.6-0.6c0.4-0.3,0.5-0.8,0.5-1.3c0-0.4-0.1-0.7-0.3-1C9.6,90.6,9.3,90.4,8.8,90.2"/>
<path class="st2" d="M10.8,87.8H4.6v-0.9h0.9c-0.7-0.5-1-1.1-1-2c0-0.4,0.1-0.7,0.2-1s0.3-0.6,0.5-0.7C5.4,83,5.7,82.9,6,82.8
	c0.2,0,0.5-0.1,1-0.1h3.8v1.1H7c-0.4,0-0.7,0-1,0.1c-0.2,0.1-0.4,0.2-0.5,0.4c-0.1,0.2-0.2,0.5-0.2,0.7c0,0.5,0.1,0.9,0.4,1.2
	c0.3,0.3,0.8,0.5,1.6,0.5h3.4V87.8"/>
<path class="st2" d="M9.9,78.8l0.9-0.2c0,0.3,0.1,0.6,0.1,0.8c0,0.4-0.1,0.7-0.2,0.9c-0.1,0.2-0.3,0.4-0.5,0.4
	c-0.2,0.1-0.6,0.1-1.2,0.1H5.4v0.8H4.6v-0.8H3.1l-0.6-1h2.2v-1.1h0.8v1.1h3.6c0.3,0,0.5,0,0.6-0.1c0.1,0,0.2-0.1,0.2-0.2
	s0.1-0.2,0.1-0.4C9.9,79.2,9.9,79,9.9,78.8"/>
<path class="st2" d="M13.3,72.5c-0.7,0.6-1.6,1.1-2.6,1.5c-1,0.4-2,0.6-3.1,0.6c-0.9,0-1.8-0.1-2.7-0.4c-1-0.3-2-0.9-3-1.6v-0.8
	c0.8,0.5,1.4,0.8,1.7,0.9c0.5,0.2,1.1,0.4,1.7,0.6c0.7,0.2,1.5,0.3,2.2,0.3c1.9,0,3.7-0.6,5.6-1.8V72.5"/>
<path class="st2" d="M10.8,70.5H4.6v-0.9h0.9c-0.7-0.5-1-1.1-1-2c0-0.4,0.1-0.7,0.2-1S5,66,5.2,65.8c0.2-0.2,0.5-0.3,0.8-0.3
	c0.2,0,0.5-0.1,1-0.1h3.8v1.1H7c-0.4,0-0.7,0-1,0.1c-0.2,0.1-0.4,0.2-0.5,0.4c-0.1,0.2-0.2,0.5-0.2,0.7c0,0.5,0.1,0.9,0.4,1.2
	c0.3,0.3,0.8,0.5,1.6,0.5h3.4V70.5"/>
<path class="st2" d="M10.8,63.8H4.6v-0.9h0.9c-0.3-0.2-0.5-0.4-0.7-0.8c-0.2-0.3-0.3-0.7-0.3-1.1c0-0.5,0.1-0.8,0.3-1.1
	c0.2-0.3,0.5-0.5,0.8-0.6c-0.7-0.5-1.1-1.1-1.1-1.9c0-0.6,0.2-1.1,0.5-1.4s0.9-0.5,1.6-0.5h4.3v1.1H6.9c-0.4,0-0.7,0-0.9,0.1
	c-0.2,0.1-0.3,0.2-0.5,0.4c-0.1,0.2-0.2,0.4-0.2,0.6c0,0.4,0.2,0.8,0.4,1.1c0.3,0.3,0.8,0.4,1.4,0.4h3.6v1.1h-4
	c-0.5,0-0.8,0.1-1.1,0.3c-0.2,0.2-0.3,0.5-0.3,0.8c0,0.3,0.1,0.6,0.2,0.8s0.4,0.4,0.7,0.5c0.3,0.1,0.7,0.2,1.3,0.2h3.2V63.8"/>
<path class="st2" d="M5.5,52.9V50h0.7v3.9H5.5c-0.3-0.3-0.8-0.7-1.3-1.3c-0.5-0.5-0.9-0.9-1.1-1c-0.3-0.3-0.5-0.5-0.8-0.6
	c-0.2-0.1-0.4-0.2-0.6-0.2c-0.3,0-0.6,0.1-0.8,0.3c-0.2,0.2-0.3,0.5-0.3,0.9c0,0.3,0.1,0.5,0.1,0.8c0.1,0.3,0.2,0.6,0.4,0.9H0.4
	c-0.1-0.3-0.2-0.6-0.3-0.9S0,52.3,0,52.1c0-0.6,0.2-1.1,0.5-1.5S1.2,50,1.7,50c0.3,0,0.5,0.1,0.7,0.1c0.2,0.1,0.5,0.3,0.8,0.5
	c0.1,0.1,0.3,0.3,0.7,0.7S4.9,52.2,5.5,52.9"/>
<path class="st2" d="M13.3,47.3v0.8c-1.9-1.2-3.7-1.8-5.6-1.8c-0.7,0-1.5,0.1-2.2,0.3c-0.6,0.1-1.1,0.3-1.7,0.6
	c-0.3,0.2-0.9,0.5-1.8,0.9v-0.8c1-0.7,2-1.3,3-1.6c0.9-0.3,1.8-0.5,2.7-0.5c1.1,0,2.1,0.2,3.1,0.6C11.8,46.3,12.6,46.7,13.3,47.3"/>
<g>
	<defs>
		<rect id="SVGID_27_" x="39.7" y="0.6" width="357.1" height="266.1"/>
	</defs>
	<clipPath id="SVGID_28_">
		<use xlink:href="#SVGID_27_"  style="overflow:visible;"/>
	</clipPath>
	<polyline class="st15" points="56,208.5 62.5,123 69,114 75.5,65.6 82,117.7 88.4,94 94.9,49.2 101.4,131.6 107.9,121.4 
		114.4,100.1 120.9,92.3 127.4,12.7 133.9,107 140.4,96.6 146.9,107.9 153.4,86 159.9,84.7 166.4,119.1 172.9,72.3 179.3,90.5 
		185.8,82.9 192.3,104 198.8,97.9 205.3,71.6 211.8,146.2 218.3,138.2 224.8,125.8 231.3,129.2 237.8,135.7 244.3,126 250.8,111.4 
		257.3,142.7 263.8,123.1 270.3,135.4 276.7,139.8 283.2,139.6 289.7,153 296.2,145.1 302.7,129.9 309.2,157 315.7,140.5 
		322.2,178.3 328.7,191.5 335.2,191.4 341.7,218.9 348.2,236 354.7,244.7 361.2,247.3 367.6,252 374.1,252.9 380.6,254.6 	"/>
</g>
<line class="st16" x1="39.7" y1="266.7" x2="39.7" y2="0.6"/>
<line class="st16" x1="396.9" y1="266.7" x2="396.9" y2="0.6"/>
<line class="st16" x1="39.7" y1="266.7" x2="396.9" y2="266.7"/>
<line class="st16" x1="39.7" y1="0.6" x2="396.9" y2="0.6"/>
</svg>
