<?xml version="1.0" encoding="utf-8"?>
<!-- Generator: Adobe Illustrator 21.0.0, SVG Export Plug-In . SVG Version: 6.00 Build 0)  -->
<svg version="1.1" id="Layer_1" xmlns="http://www.w3.org/2000/svg" xmlns:xlink="http://www.w3.org/1999/xlink" x="0px" y="0px"
	 viewBox="0 0 406.7 301.6" style="enable-background:new 0 0 406.7 301.6;" xml:space="preserve">
<style type="text/css">
	.st0{fill:#FFFFFF;}
	.st1{clip-path:url(#SVGID_2_);fill:none;stroke:#CCCCCC;stroke-linecap:round;stroke-linejoin:round;stroke-miterlimit:10;}
	.st2{fill:#262626;}
	.st3{clip-path:url(#SVGID_4_);fill:none;stroke:#CCCCCC;stroke-linecap:round;stroke-linejoin:round;stroke-miterlimit:10;}
	.st4{clip-path:url(#SVGID_6_);fill:none;stroke:#CCCCCC;stroke-linecap:round;stroke-linejoin:round;stroke-miterlimit:10;}
	.st5{clip-path:url(#SVGID_8_);fill:none;stroke:#CCCCCC;stroke-linecap:round;stroke-linejoin:round;stroke-miterlimit:10;}
	.st6{clip-path:url(#SVGID_10_);fill:none;stroke:#CCCCCC;stroke-linecap:round;stroke-linejoin:round;stroke-miterlimit:10;}
	.st7{clip-path:url(#SVGID_12_);fill:none;stroke:#CCCCCC;stroke-linecap:round;stroke-linejoin:round;stroke-miterlimit:10;}
	.st8{clip-path:url(#SVGID_14_);fill:none;stroke:#CCCCCC;stroke-linecap:round;stroke-linejoin:round;stroke-miterlimit:10;}
	.st9{clip-path:url(#SVGID_16_);fill:none;stroke:#CCCCCC;stroke-linecap:round;stroke-linejoin:round;stroke-miterlimit:10;}
	.st10{clip-path:url(#SVGID_18_);fill:none;stroke:#CCCCCC;stroke-linecap:round;stroke-linejoin:round;stroke-miterlimit:10;}
	.st11{clip-path:url(#SVGID_20_);fill:none;stroke:#CCCCCC;stroke-linecap:round;stroke-linejoin:round;stroke-miterlimit:10;}
	.st12{clip-path:url(#SVGID_22_);fill:none;stroke:#CCCCCC;stroke-linecap:round;stroke-linejoin:round;stroke-miterlimit:10;}
	.st13{clip-path:url(#SVGID_24_);fill:none;stroke:#CCCCCC;stroke-linecap:round;stroke-linejoin:round;stroke-miterlimit:10;}
	.st14{clip-path:url(#SVGID_26_);fill:none;stroke:#CCCCCC;stroke-linecap:round;stroke-linejoin:round;stroke-miterlimit:10;}
	.st15{clip-path:url(#SVGID_28_);fill:none;stroke:#CCCCCC;stroke-linecap:round;stroke-linejoin:round;stroke-miterlimit:10;}
	.st16{clip-path:url(#SVGID_30_);fill:none;stroke:#CCCCCC;stroke-linecap:round;stroke-linejoin:round;stroke-miterlimit:10;}
	.st17{clip-path:url(#SVGID_32_);fill:none;stroke:#CCCCCC;stroke-linecap:round;stroke-linejoin:round;stroke-miterlimit:10;}
	.st18{clip-path:url(#SVGID_34_);fill:none;stroke:#CCCCCC;stroke-linecap:round;stroke-linejoin:round;stroke-miterlimit:10;}
	
		.st19{clip-path:url(#SVGID_36_);fill:none;stroke:#4C72B0;stroke-width:1.5;stroke-linecap:round;stroke-linejoin:round;stroke-miterlimit:10;}
	
		.st20{clip-path:url(#SVGID_38_);fill:none;stroke:#DD8452;stroke-width:1.5;stroke-linecap:round;stroke-linejoin:round;stroke-miterlimit:10;}
	.st21{fill:none;stroke:#CCCCCC;stroke-width:1.25;stroke-linecap:square;stroke-miterlimit:10;}
	.st22{opacity:0.8;fill:#FFFFFF;}
	.st23{opacity:0.8;fill:none;stroke:#CCCCCC;stroke-miterlimit:10;}
	.st24{fill:none;stroke:#4C72B0;stroke-width:1.5;stroke-linecap:round;stroke-linejoin:round;stroke-miterlimit:10;}
	.st25{fill:none;stroke:#DD8452;stroke-width:1.5;stroke-linecap:round;stroke-linejoin:round;stroke-miterlimit:10;}
</style>
<rect x="48.9" y="0.6" class="st0" width="357.1" height="266.1"/>
<g>
	<defs>
		<rect id="SVGID_1_" x="48.9" y="0.6" width="357.1" height="266.1"/>
	</defs>
	<clipPath id="SVGID_2_">
		<use xlink:href="#SVGID_1_"  style="overflow:visible;"/>
	</clipPath>
	<line class="st1" x1="65.2" y1="266.8" x2="65.2" y2="0.6"/>
</g>
<path class="st2" d="M59,280.2c0,1.3,0.1,2.2,0.5,2.6c0.3,0.4,0.7,0.6,1.1,0.6c0.4,0,0.8-0.2,1.1-0.6c0.3-0.4,0.5-1.3,0.5-2.6
	s-0.2-2.2-0.5-2.6c-0.3-0.4-0.7-0.6-1.1-0.6c-0.5,0-0.8,0.2-1.1,0.6C59.1,278.1,59,279,59,280.2 M58,280.2c0-0.9,0.1-1.7,0.3-2.2
	c0.2-0.6,0.5-1,0.8-1.3s0.9-0.5,1.4-0.5c0.4,0,0.8,0.1,1.1,0.3c0.3,0.2,0.6,0.4,0.8,0.7s0.4,0.7,0.5,1.2c0.1,0.5,0.2,1.1,0.2,1.9
	c0,0.9-0.1,1.7-0.3,2.2c-0.2,0.6-0.5,1-0.8,1.3c-0.4,0.3-0.9,0.5-1.4,0.5c-0.8,0-1.4-0.3-1.8-0.8C58.2,282.8,58,281.7,58,280.2"/>
<polyline class="st2" points="64.6,284.1 64.6,283 65.7,283 65.7,284.1 64.6,284.1 "/>
<path class="st2" d="M68.1,280.2c0,1.3,0.1,2.2,0.5,2.6c0.3,0.4,0.7,0.6,1.1,0.6c0.4,0,0.8-0.2,1.1-0.6c0.3-0.4,0.5-1.3,0.5-2.6
	s-0.2-2.2-0.5-2.6c-0.3-0.4-0.7-0.6-1.1-0.6c-0.5,0-0.8,0.2-1.1,0.6C68.3,278.1,68.1,279,68.1,280.2 M67.1,280.2
	c0-0.9,0.1-1.7,0.3-2.2c0.2-0.6,0.5-1,0.8-1.3s0.9-0.5,1.4-0.5c0.4,0,0.8,0.1,1.1,0.3c0.3,0.2,0.6,0.4,0.8,0.7s0.4,0.7,0.5,1.2
	c0.1,0.5,0.2,1.1,0.2,1.9c0,0.9-0.1,1.7-0.3,2.2c-0.2,0.6-0.5,1-0.8,1.3c-0.4,0.3-0.9,0.5-1.4,0.5c-0.8,0-1.4-0.3-1.8-0.8
	C67.4,282.8,67.1,281.7,67.1,280.2"/>
<g>
	<defs>
		<rect id="SVGID_3_" x="48.9" y="0.6" width="357.1" height="266.1"/>
	</defs>
	<clipPath id="SVGID_4_">
		<use xlink:href="#SVGID_3_"  style="overflow:visible;"/>
	</clipPath>
	<line class="st3" x1="105.8" y1="266.8" x2="105.8" y2="0.6"/>
</g>
<path class="st2" d="M99.5,280.2c0,1.3,0.1,2.2,0.5,2.6c0.3,0.4,0.7,0.6,1.1,0.6c0.4,0,0.8-0.2,1.1-0.6c0.3-0.4,0.5-1.3,0.5-2.6
	s-0.2-2.2-0.5-2.6c-0.3-0.4-0.7-0.6-1.1-0.6c-0.5,0-0.8,0.2-1.1,0.6C99.7,278.1,99.5,279,99.5,280.2 M98.6,280.2
	c0-0.9,0.1-1.7,0.3-2.2c0.2-0.6,0.5-1,0.8-1.3s0.9-0.5,1.4-0.5c0.4,0,0.8,0.1,1.1,0.3c0.3,0.2,0.6,0.4,0.8,0.7s0.4,0.7,0.5,1.2
	c0.1,0.5,0.2,1.1,0.2,1.9c0,0.9-0.1,1.7-0.3,2.2c-0.2,0.6-0.5,1-0.8,1.3c-0.4,0.3-0.9,0.5-1.4,0.5c-0.8,0-1.4-0.3-1.8-0.8
	C98.8,282.8,98.6,281.7,98.6,280.2"/>
<polyline class="st2" points="105.2,284.1 105.2,283 106.3,283 106.3,284.1 105.2,284.1 "/>
<path class="st2" d="M107.7,282.1l1-0.1c0.1,0.5,0.2,0.9,0.5,1.1c0.3,0.3,0.6,0.4,1,0.4c0.5,0,0.9-0.2,1.2-0.5
	c0.3-0.4,0.5-0.8,0.5-1.4c0-0.5-0.2-1-0.5-1.3s-0.7-0.5-1.2-0.5c-0.3,0-0.6,0.1-0.8,0.2c-0.3,0.1-0.5,0.3-0.6,0.5l-0.9-0.1l0.8-4
	h3.9v0.9h-3.1l-0.4,2.1c0.5-0.3,1-0.5,1.5-0.5c0.7,0,1.3,0.2,1.7,0.7c0.5,0.5,0.7,1.1,0.7,1.8c0,0.7-0.2,1.3-0.6,1.8
	c-0.5,0.6-1.2,0.9-2.1,0.9c-0.7,0-1.3-0.2-1.7-0.6C108,283.3,107.8,282.7,107.7,282.1"/>
<g>
	<defs>
		<rect id="SVGID_5_" x="48.9" y="0.6" width="357.1" height="266.1"/>
	</defs>
	<clipPath id="SVGID_6_">
		<use xlink:href="#SVGID_5_"  style="overflow:visible;"/>
	</clipPath>
	<line class="st4" x1="146.3" y1="266.8" x2="146.3" y2="0.6"/>
</g>
<path class="st2" d="M142.8,284.1h-1V278c-0.2,0.2-0.5,0.5-0.9,0.7c-0.4,0.2-0.7,0.4-1,0.5v-0.9c0.5-0.3,1-0.6,1.4-0.9
	c0.4-0.4,0.7-0.7,0.9-1.1h0.6V284.1"/>
<polyline class="st2" points="145.8,284.1 145.8,283 146.9,283 146.9,284.1 145.8,284.1 "/>
<path class="st2" d="M149.3,280.2c0,1.3,0.1,2.2,0.5,2.6c0.3,0.4,0.7,0.6,1.1,0.6c0.4,0,0.8-0.2,1.1-0.6c0.3-0.4,0.5-1.3,0.5-2.6
	s-0.2-2.2-0.5-2.6c-0.3-0.4-0.7-0.6-1.1-0.6c-0.5,0-0.8,0.2-1.1,0.6C149.5,278.1,149.3,279,149.3,280.2 M148.3,280.2
	c0-0.9,0.1-1.7,0.3-2.2c0.2-0.6,0.5-1,0.8-1.3c0.4-0.3,0.9-0.5,1.4-0.5c0.4,0,0.8,0.1,1.1,0.3c0.3,0.2,0.6,0.4,0.8,0.7
	c0.2,0.3,0.4,0.7,0.5,1.2c0.1,0.5,0.2,1.1,0.2,1.9c0,0.9-0.1,1.7-0.3,2.2c-0.2,0.6-0.5,1-0.8,1.3c-0.4,0.3-0.9,0.5-1.4,0.5
	c-0.8,0-1.4-0.3-1.8-0.8C148.6,282.8,148.3,281.7,148.3,280.2"/>
<g>
	<defs>
		<rect id="SVGID_7_" x="48.9" y="0.6" width="357.1" height="266.1"/>
	</defs>
	<clipPath id="SVGID_8_">
		<use xlink:href="#SVGID_7_"  style="overflow:visible;"/>
	</clipPath>
	<line class="st5" x1="186.9" y1="266.8" x2="186.9" y2="0.6"/>
</g>
<path class="st2" d="M183.4,284.1h-1V278c-0.2,0.2-0.5,0.5-0.9,0.7c-0.4,0.2-0.7,0.4-1,0.5v-0.9c0.5-0.3,1-0.6,1.4-0.9
	c0.4-0.4,0.7-0.7,0.9-1.1h0.6V284.1"/>
<polyline class="st2" points="186.4,284.1 186.4,283 187.5,283 187.5,284.1 186.4,284.1 "/>
<path class="st2" d="M188.9,282.1l1-0.1c0.1,0.5,0.2,0.9,0.5,1.1c0.3,0.3,0.6,0.4,1,0.4c0.5,0,0.9-0.2,1.2-0.5
	c0.3-0.4,0.5-0.8,0.5-1.4c0-0.5-0.2-1-0.5-1.3c-0.3-0.3-0.7-0.5-1.2-0.5c-0.3,0-0.6,0.1-0.8,0.2c-0.3,0.1-0.5,0.3-0.6,0.5l-0.9-0.1
	l0.8-4h3.9v0.9h-3.1l-0.4,2.1c0.5-0.3,1-0.5,1.5-0.5c0.7,0,1.3,0.2,1.7,0.7c0.5,0.5,0.7,1.1,0.7,1.8c0,0.7-0.2,1.3-0.6,1.8
	c-0.5,0.6-1.2,0.9-2.1,0.9c-0.7,0-1.3-0.2-1.7-0.6C189.2,283.3,188.9,282.7,188.9,282.1"/>
<g>
	<defs>
		<rect id="SVGID_9_" x="48.9" y="0.6" width="357.1" height="266.1"/>
	</defs>
	<clipPath id="SVGID_10_">
		<use xlink:href="#SVGID_9_"  style="overflow:visible;"/>
	</clipPath>
	<line class="st6" x1="227.5" y1="266.8" x2="227.5" y2="0.6"/>
</g>
<path class="st2" d="M225.4,283.2v0.9h-5.2c0-0.2,0-0.5,0.1-0.7c0.1-0.4,0.3-0.7,0.6-1c0.3-0.3,0.7-0.7,1.3-1.2
	c0.9-0.7,1.4-1.2,1.7-1.7c0.3-0.4,0.5-0.8,0.5-1.2c0-0.4-0.1-0.7-0.4-1c-0.3-0.3-0.6-0.4-1.1-0.4c-0.5,0-0.8,0.1-1.1,0.4
	c-0.3,0.3-0.4,0.7-0.4,1.2l-1-0.1c0.1-0.7,0.3-1.3,0.8-1.7c0.4-0.4,1-0.6,1.8-0.6s1.4,0.2,1.8,0.6s0.7,0.9,0.7,1.6
	c0,0.3-0.1,0.6-0.2,0.9c-0.1,0.3-0.3,0.6-0.6,1c-0.3,0.3-0.8,0.8-1.5,1.4c-0.6,0.5-1,0.8-1.1,1c-0.2,0.2-0.3,0.4-0.4,0.5H225.4"/>
<polyline class="st2" points="227,284.1 227,283 228.1,283 228.1,284.1 227,284.1 "/>
<path class="st2" d="M230.5,280.2c0,1.3,0.1,2.2,0.5,2.6c0.3,0.4,0.7,0.6,1.1,0.6c0.4,0,0.8-0.2,1.1-0.6c0.3-0.4,0.5-1.3,0.5-2.6
	s-0.2-2.2-0.5-2.6c-0.3-0.4-0.7-0.6-1.1-0.6c-0.5,0-0.8,0.2-1.1,0.6C230.6,278.1,230.5,279,230.5,280.2 M229.5,280.2
	c0-0.9,0.1-1.7,0.3-2.2c0.2-0.6,0.5-1,0.8-1.3c0.4-0.3,0.9-0.5,1.4-0.5c0.4,0,0.8,0.1,1.1,0.3c0.3,0.2,0.6,0.4,0.8,0.7
	c0.2,0.3,0.4,0.7,0.5,1.2c0.1,0.5,0.2,1.1,0.2,1.9c0,0.9-0.1,1.7-0.3,2.2c-0.2,0.6-0.5,1-0.8,1.3c-0.4,0.3-0.9,0.5-1.4,0.5
	c-0.8,0-1.4-0.3-1.8-0.8C229.7,282.8,229.5,281.7,229.5,280.2"/>
<g>
	<defs>
		<rect id="SVGID_11_" x="48.9" y="0.6" width="357.1" height="266.1"/>
	</defs>
	<clipPath id="SVGID_12_">
		<use xlink:href="#SVGID_11_"  style="overflow:visible;"/>
	</clipPath>
	<line class="st7" x1="268.1" y1="266.8" x2="268.1" y2="0.6"/>
</g>
<path class="st2" d="M266,283.2v0.9h-5.2c0-0.2,0-0.5,0.1-0.7c0.1-0.4,0.3-0.7,0.6-1c0.3-0.3,0.7-0.7,1.3-1.2
	c0.9-0.7,1.4-1.2,1.7-1.7c0.3-0.4,0.5-0.8,0.5-1.2c0-0.4-0.1-0.7-0.4-1c-0.3-0.3-0.6-0.4-1.1-0.4c-0.5,0-0.8,0.1-1.1,0.4
	c-0.3,0.3-0.4,0.7-0.4,1.2l-1-0.1c0.1-0.7,0.3-1.3,0.8-1.7c0.4-0.4,1-0.6,1.8-0.6s1.4,0.2,1.8,0.6s0.7,0.9,0.7,1.6
	c0,0.3-0.1,0.6-0.2,0.9c-0.1,0.3-0.3,0.6-0.6,1c-0.3,0.3-0.8,0.8-1.5,1.4c-0.6,0.5-1,0.8-1.1,1c-0.2,0.2-0.3,0.4-0.4,0.5H266"/>
<polyline class="st2" points="267.5,284.1 267.5,283 268.6,283 268.6,284.1 267.5,284.1 "/>
<path class="st2" d="M270.1,282.1l1-0.1c0.1,0.5,0.2,0.9,0.5,1.1c0.3,0.3,0.6,0.4,1,0.4c0.5,0,0.9-0.2,1.2-0.5
	c0.3-0.4,0.5-0.8,0.5-1.4c0-0.5-0.2-1-0.5-1.3c-0.3-0.3-0.7-0.5-1.2-0.5c-0.3,0-0.6,0.1-0.8,0.2c-0.3,0.1-0.5,0.3-0.6,0.5l-0.9-0.1
	l0.8-4h3.9v0.9h-3.1l-0.4,2.1c0.5-0.3,1-0.5,1.5-0.5c0.7,0,1.3,0.2,1.7,0.7c0.5,0.5,0.7,1.1,0.7,1.8c0,0.7-0.2,1.3-0.6,1.8
	c-0.5,0.6-1.2,0.9-2.1,0.9c-0.7,0-1.3-0.2-1.7-0.6C270.4,283.3,270.1,282.7,270.1,282.1"/>
<g>
	<defs>
		<rect id="SVGID_13_" x="48.9" y="0.6" width="357.1" height="266.1"/>
	</defs>
	<clipPath id="SVGID_14_">
		<use xlink:href="#SVGID_13_"  style="overflow:visible;"/>
	</clipPath>
	<line class="st8" x1="308.7" y1="266.8" x2="308.7" y2="0.6"/>
</g>
<path class="st2" d="M301.5,282.1l1-0.1c0.1,0.6,0.3,0.9,0.6,1.2s0.6,0.4,1,0.4c0.5,0,0.8-0.2,1.1-0.5c0.3-0.3,0.5-0.7,0.5-1.2
	c0-0.4-0.2-0.8-0.4-1.1s-0.7-0.4-1.1-0.4c-0.2,0-0.4,0-0.7,0.1l0.1-0.8c0.1,0,0.1,0,0.2,0c0.4,0,0.8-0.1,1.1-0.3
	c0.3-0.2,0.5-0.5,0.5-1c0-0.4-0.1-0.6-0.4-0.9c-0.2-0.2-0.6-0.4-0.9-0.4s-0.7,0.1-0.9,0.4c-0.3,0.2-0.4,0.6-0.5,1.1l-1-0.2
	c0.1-0.6,0.4-1.2,0.8-1.5c0.4-0.4,0.9-0.5,1.6-0.5c0.4,0,0.8,0.1,1.2,0.3c0.4,0.2,0.6,0.4,0.8,0.7c0.2,0.3,0.3,0.7,0.3,1
	c0,0.4-0.1,0.7-0.3,0.9c-0.2,0.3-0.5,0.5-0.8,0.7c0.5,0.1,0.8,0.3,1.1,0.7c0.3,0.3,0.4,0.8,0.4,1.3c0,0.7-0.3,1.3-0.8,1.7
	c-0.5,0.5-1.1,0.7-1.9,0.7c-0.7,0-1.3-0.2-1.7-0.6C301.8,283.2,301.5,282.7,301.5,282.1"/>
<polyline class="st2" points="308.1,284.1 308.1,283 309.2,283 309.2,284.1 308.1,284.1 "/>
<path class="st2" d="M311.6,280.2c0,1.3,0.1,2.2,0.5,2.6c0.3,0.4,0.7,0.6,1.1,0.6c0.4,0,0.8-0.2,1.1-0.6c0.3-0.4,0.5-1.3,0.5-2.6
	s-0.2-2.2-0.5-2.6c-0.3-0.4-0.7-0.6-1.1-0.6c-0.5,0-0.8,0.2-1.1,0.6C311.8,278.1,311.6,279,311.6,280.2 M310.6,280.2
	c0-0.9,0.1-1.7,0.3-2.2c0.2-0.6,0.5-1,0.8-1.3s0.9-0.5,1.4-0.5c0.4,0,0.8,0.1,1.1,0.3c0.3,0.2,0.6,0.4,0.8,0.7
	c0.2,0.3,0.4,0.7,0.5,1.2c0.1,0.5,0.2,1.1,0.2,1.9c0,0.9-0.1,1.7-0.3,2.2c-0.2,0.6-0.5,1-0.8,1.3c-0.4,0.3-0.9,0.5-1.4,0.5
	c-0.8,0-1.4-0.3-1.8-0.8C310.9,282.8,310.6,281.7,310.6,280.2"/>
<g>
	<defs>
		<rect id="SVGID_15_" x="48.9" y="0.6" width="357.1" height="266.1"/>
	</defs>
	<clipPath id="SVGID_16_">
		<use xlink:href="#SVGID_15_"  style="overflow:visible;"/>
	</clipPath>
	<line class="st9" x1="349.2" y1="266.8" x2="349.2" y2="0.6"/>
</g>
<path class="st2" d="M342,282.1l1-0.1c0.1,0.6,0.3,0.9,0.6,1.2s0.6,0.4,1,0.4c0.5,0,0.8-0.2,1.1-0.5c0.3-0.3,0.5-0.7,0.5-1.2
	c0-0.4-0.2-0.8-0.4-1.1s-0.7-0.4-1.1-0.4c-0.2,0-0.4,0-0.7,0.1l0.1-0.8c0.1,0,0.1,0,0.2,0c0.4,0,0.8-0.1,1.1-0.3
	c0.3-0.2,0.5-0.5,0.5-1c0-0.4-0.1-0.6-0.4-0.9c-0.2-0.2-0.6-0.4-0.9-0.4s-0.7,0.1-0.9,0.4c-0.3,0.2-0.4,0.6-0.5,1.1l-1-0.2
	c0.1-0.6,0.4-1.2,0.8-1.5c0.4-0.4,0.9-0.5,1.6-0.5c0.4,0,0.8,0.1,1.2,0.3c0.4,0.2,0.6,0.4,0.8,0.7c0.2,0.3,0.3,0.7,0.3,1
	c0,0.4-0.1,0.7-0.3,0.9c-0.2,0.3-0.5,0.5-0.8,0.7c0.5,0.1,0.8,0.3,1.1,0.7c0.3,0.3,0.4,0.8,0.4,1.3c0,0.7-0.3,1.3-0.8,1.7
	c-0.5,0.5-1.1,0.7-1.9,0.7c-0.7,0-1.3-0.2-1.7-0.6C342.4,283.2,342.1,282.7,342,282.1"/>
<polyline class="st2" points="348.7,284.1 348.7,283 349.8,283 349.8,284.1 348.7,284.1 "/>
<path class="st2" d="M351.2,282.1l1-0.1c0.1,0.5,0.2,0.9,0.5,1.1c0.3,0.3,0.6,0.4,1,0.4c0.5,0,0.9-0.2,1.2-0.5
	c0.3-0.4,0.5-0.8,0.5-1.4c0-0.5-0.2-1-0.5-1.3c-0.3-0.3-0.7-0.5-1.2-0.5c-0.3,0-0.6,0.1-0.8,0.2c-0.3,0.1-0.5,0.3-0.6,0.5l-0.9-0.1
	l0.8-4h3.9v0.9h-3.1l-0.4,2.1c0.5-0.3,1-0.5,1.5-0.5c0.7,0,1.3,0.2,1.7,0.7c0.5,0.5,0.7,1.1,0.7,1.8c0,0.7-0.2,1.3-0.6,1.8
	c-0.5,0.6-1.2,0.9-2.1,0.9c-0.7,0-1.3-0.2-1.7-0.6C351.5,283.3,351.3,282.7,351.2,282.1"/>
<g>
	<defs>
		<rect id="SVGID_17_" x="48.9" y="0.6" width="357.1" height="266.1"/>
	</defs>
	<clipPath id="SVGID_18_">
		<use xlink:href="#SVGID_17_"  style="overflow:visible;"/>
	</clipPath>
	<line class="st10" x1="389.8" y1="266.8" x2="389.8" y2="0.6"/>
</g>
<path class="st2" d="M385.7,281.4v-3.6l-2.5,3.6H385.7 M385.7,284.1v-1.9h-3.4v-0.9l3.6-5.1h0.8v5.1h1.1v0.9h-1.1v1.9H385.7"/>
<polyline class="st2" points="389.3,284.1 389.3,283 390.4,283 390.4,284.1 389.3,284.1 "/>
<path class="st2" d="M392.8,280.2c0,1.3,0.1,2.2,0.5,2.6c0.3,0.4,0.7,0.6,1.1,0.6c0.4,0,0.8-0.2,1.1-0.6c0.3-0.4,0.5-1.3,0.5-2.6
	s-0.2-2.2-0.5-2.6c-0.3-0.4-0.7-0.6-1.1-0.6c-0.5,0-0.8,0.2-1.1,0.6C393,278.1,392.8,279,392.8,280.2 M391.8,280.2
	c0-0.9,0.1-1.7,0.3-2.2c0.2-0.6,0.5-1,0.8-1.3s0.9-0.5,1.4-0.5c0.4,0,0.8,0.1,1.1,0.3c0.3,0.2,0.6,0.4,0.8,0.7
	c0.2,0.3,0.4,0.7,0.5,1.2c0.1,0.5,0.2,1.1,0.2,1.9c0,0.9-0.1,1.7-0.3,2.2c-0.2,0.6-0.5,1-0.8,1.3c-0.4,0.3-0.9,0.5-1.4,0.5
	c-0.8,0-1.4-0.3-1.8-0.8C392.1,282.8,391.8,281.7,391.8,280.2"/>
<polyline class="st2" points="205.3,299.1 205.3,291.5 202.4,291.5 202.4,290.5 209.3,290.5 209.3,291.5 206.4,291.5 206.4,299.1 
	205.3,299.1 "/>
<path class="st2" d="M210.3,299.1v-6.2h1.1v6.2H210.3 M210.3,291.7v-1.2h1.1v1.2H210.3"/>
<path class="st2" d="M212.9,299.1v-6.2h0.9v0.9c0.2-0.3,0.4-0.5,0.8-0.7c0.3-0.2,0.7-0.3,1.1-0.3c0.5,0,0.8,0.1,1.1,0.3
	c0.3,0.2,0.5,0.5,0.6,0.8c0.5-0.7,1.1-1.1,1.9-1.1c0.6,0,1.1,0.2,1.4,0.5s0.5,0.9,0.5,1.6v4.3h-1.1v-3.9c0-0.4,0-0.7-0.1-0.9
	c-0.1-0.2-0.2-0.3-0.4-0.5c-0.2-0.1-0.4-0.2-0.6-0.2c-0.4,0-0.8,0.2-1.1,0.4c-0.3,0.3-0.4,0.8-0.4,1.4v3.6h-1.1v-4
	c0-0.5-0.1-0.8-0.3-1.1c-0.2-0.2-0.5-0.3-0.8-0.3c-0.3,0-0.6,0.1-0.8,0.2c-0.3,0.2-0.4,0.4-0.5,0.7c-0.1,0.3-0.2,0.7-0.2,1.3v3.2
	H212.9"/>
<path class="st2" d="M223.7,295.3h3.5c0-0.5-0.2-0.9-0.4-1.2c-0.3-0.4-0.8-0.6-1.3-0.6c-0.5,0-0.9,0.2-1.2,0.5
	C224,294.4,223.8,294.8,223.7,295.3 M227.2,297l1.1,0.1c-0.2,0.6-0.5,1.1-1,1.5c-0.5,0.3-1.1,0.5-1.8,0.5c-0.9,0-1.6-0.3-2.2-0.8
	c-0.5-0.6-0.8-1.3-0.8-2.4c0-1,0.3-1.9,0.8-2.4c0.5-0.6,1.2-0.9,2.1-0.9c0.8,0,1.5,0.3,2,0.9s0.8,1.4,0.8,2.4c0,0.1,0,0.2,0,0.3
	h-4.6c0,0.7,0.2,1.2,0.6,1.6c0.3,0.4,0.8,0.5,1.3,0.5c0.4,0,0.7-0.1,1-0.3C226.8,297.8,227,297.5,227.2,297"/>
<path class="st2" d="M235,301.6c-0.6-0.7-1.1-1.6-1.5-2.6c-0.4-1-0.6-2-0.6-3.1c0-0.9,0.1-1.8,0.4-2.7c0.3-1,0.9-2,1.6-3h0.8
	c-0.5,0.8-0.8,1.4-0.9,1.7c-0.2,0.5-0.4,1.1-0.6,1.7c-0.2,0.7-0.3,1.5-0.3,2.2c0,1.9,0.6,3.7,1.8,5.6H235"/>
<path class="st2" d="M237.9,296c0,0.8,0.2,1.4,0.5,1.8c0.3,0.4,0.7,0.6,1.2,0.6c0.5,0,0.9-0.2,1.2-0.6c0.3-0.4,0.5-1,0.5-1.8
	c0-0.8-0.2-1.4-0.5-1.8c-0.3-0.4-0.7-0.6-1.2-0.6c-0.5,0-0.9,0.2-1.2,0.6C238.1,294.6,237.9,295.2,237.9,296 M236.9,301.4v-8.6h1
	v0.8c0.2-0.3,0.5-0.6,0.8-0.7c0.3-0.2,0.6-0.2,1-0.2c0.5,0,1,0.1,1.4,0.4c0.4,0.3,0.7,0.7,0.9,1.2c0.2,0.5,0.3,1,0.3,1.6
	c0,0.6-0.1,1.2-0.3,1.7c-0.2,0.5-0.6,0.9-1,1.2c-0.4,0.3-0.9,0.4-1.4,0.4c-0.4,0-0.7-0.1-0.9-0.2c-0.3-0.1-0.5-0.3-0.7-0.6v3H236.9"
	/>
<path class="st2" d="M243.2,297.2l1-0.2c0,0.4,0.2,0.7,0.5,1c0.3,0.2,0.6,0.3,1.1,0.3s0.8-0.1,1.1-0.3c0.2-0.2,0.3-0.4,0.3-0.7
	c0-0.2-0.1-0.4-0.3-0.6c-0.1-0.1-0.5-0.2-1.1-0.4c-0.8-0.2-1.3-0.4-1.6-0.5c-0.3-0.1-0.5-0.3-0.7-0.6c-0.2-0.3-0.2-0.5-0.2-0.8
	c0-0.3,0.1-0.5,0.2-0.8c0.1-0.2,0.3-0.4,0.5-0.6c0.2-0.1,0.4-0.2,0.7-0.3c0.3-0.1,0.6-0.1,0.9-0.1c0.5,0,0.9,0.1,1.3,0.2
	c0.4,0.1,0.6,0.3,0.8,0.6c0.2,0.2,0.3,0.6,0.4,1l-1,0.1c0-0.3-0.2-0.6-0.4-0.7c-0.2-0.2-0.5-0.3-0.9-0.3c-0.5,0-0.8,0.1-1,0.2
	c-0.2,0.2-0.3,0.3-0.3,0.6c0,0.1,0,0.3,0.1,0.4c0.1,0.1,0.2,0.2,0.4,0.3c0.1,0,0.4,0.1,0.9,0.3c0.7,0.2,1.3,0.4,1.6,0.5
	c0.3,0.1,0.5,0.3,0.7,0.6c0.2,0.2,0.3,0.5,0.3,0.9c0,0.4-0.1,0.7-0.3,1c-0.2,0.3-0.5,0.5-0.9,0.7s-0.8,0.3-1.3,0.3
	c-0.8,0-1.4-0.2-1.8-0.5C243.6,298.4,243.3,297.9,243.2,297.2"/>
<path class="st2" d="M250.3,301.6h-0.8c1.2-1.9,1.8-3.7,1.8-5.6c0-0.7-0.1-1.5-0.3-2.2c-0.1-0.6-0.3-1.1-0.6-1.7
	c-0.2-0.3-0.5-0.9-0.9-1.8h0.8c0.7,1,1.3,2,1.6,3c0.3,0.9,0.5,1.8,0.5,2.7c0,1.1-0.2,2.1-0.6,3.1C251.4,300,250.9,300.8,250.3,301.6
	"/>
<g>
	<defs>
		<rect id="SVGID_19_" x="48.9" y="0.6" width="357.1" height="266.1"/>
	</defs>
	<clipPath id="SVGID_20_">
		<use xlink:href="#SVGID_19_"  style="overflow:visible;"/>
	</clipPath>
	<line class="st11" x1="48.9" y1="254.7" x2="406.1" y2="254.7"/>
</g>
<path class="st2" d="M19.5,254.7c0,1.3,0.1,2.2,0.5,2.6c0.3,0.4,0.7,0.6,1.1,0.6c0.4,0,0.8-0.2,1.1-0.6c0.3-0.4,0.5-1.3,0.5-2.6
	c0-1.3-0.2-2.2-0.5-2.6c-0.3-0.4-0.7-0.6-1.1-0.6c-0.5,0-0.8,0.2-1.1,0.6C19.6,252.5,19.5,253.4,19.5,254.7 M18.5,254.7
	c0-0.9,0.1-1.7,0.3-2.2c0.2-0.6,0.5-1,0.8-1.3c0.4-0.3,0.9-0.5,1.4-0.5c0.4,0,0.8,0.1,1.1,0.3c0.3,0.2,0.6,0.4,0.8,0.7
	c0.2,0.3,0.4,0.7,0.5,1.2c0.1,0.5,0.2,1.1,0.2,1.9c0,0.9-0.1,1.7-0.3,2.2s-0.5,1-0.8,1.3c-0.4,0.3-0.9,0.5-1.4,0.5
	c-0.8,0-1.4-0.3-1.8-0.8C18.7,257.3,18.5,256.2,18.5,254.7"/>
<polyline class="st2" points="25.1,258.6 25.1,257.5 26.2,257.5 26.2,258.6 25.1,258.6 "/>
<path class="st2" d="M28.6,254.7c0,1.3,0.1,2.2,0.5,2.6c0.3,0.4,0.7,0.6,1.1,0.6c0.4,0,0.8-0.2,1.1-0.6c0.3-0.4,0.5-1.3,0.5-2.6
	c0-1.3-0.2-2.2-0.5-2.6c-0.3-0.4-0.7-0.6-1.1-0.6c-0.5,0-0.8,0.2-1.1,0.6C28.8,252.5,28.6,253.4,28.6,254.7 M27.6,254.7
	c0-0.9,0.1-1.7,0.3-2.2c0.2-0.6,0.5-1,0.8-1.3s0.9-0.5,1.4-0.5c0.4,0,0.8,0.1,1.1,0.3c0.3,0.2,0.6,0.4,0.8,0.7
	c0.2,0.3,0.4,0.7,0.5,1.2c0.1,0.5,0.2,1.1,0.2,1.9c0,0.9-0.1,1.7-0.3,2.2s-0.5,1-0.8,1.3c-0.4,0.3-0.9,0.5-1.4,0.5
	c-0.8,0-1.4-0.3-1.8-0.8C27.9,257.3,27.6,256.2,27.6,254.7"/>
<path class="st2" d="M34.7,254.7c0,1.3,0.1,2.2,0.5,2.6c0.3,0.4,0.7,0.6,1.1,0.6c0.4,0,0.8-0.2,1.1-0.6c0.3-0.4,0.5-1.3,0.5-2.6
	c0-1.3-0.2-2.2-0.5-2.6c-0.3-0.4-0.7-0.6-1.1-0.6c-0.5,0-0.8,0.2-1.1,0.6C34.9,252.5,34.7,253.4,34.7,254.7 M33.8,254.7
	c0-0.9,0.1-1.7,0.3-2.2c0.2-0.6,0.5-1,0.8-1.3s0.9-0.5,1.4-0.5c0.4,0,0.8,0.1,1.1,0.3c0.3,0.2,0.6,0.4,0.8,0.7s0.4,0.7,0.5,1.2
	c0.1,0.5,0.2,1.1,0.2,1.9c0,0.9-0.1,1.7-0.3,2.2s-0.5,1-0.8,1.3c-0.4,0.3-0.9,0.5-1.4,0.5c-0.8,0-1.4-0.3-1.8-0.8
	C34,257.3,33.8,256.2,33.8,254.7"/>
<g>
	<defs>
		<rect id="SVGID_21_" x="48.9" y="0.6" width="357.1" height="266.1"/>
	</defs>
	<clipPath id="SVGID_22_">
		<use xlink:href="#SVGID_21_"  style="overflow:visible;"/>
	</clipPath>
	<line class="st12" x1="48.9" y1="221.7" x2="406.1" y2="221.7"/>
</g>
<path class="st2" d="M19.5,221.8c0,1.3,0.1,2.2,0.5,2.6c0.3,0.4,0.7,0.6,1.1,0.6c0.4,0,0.8-0.2,1.1-0.6c0.3-0.4,0.5-1.3,0.5-2.6
	c0-1.3-0.2-2.2-0.5-2.6c-0.3-0.4-0.7-0.6-1.1-0.6c-0.5,0-0.8,0.2-1.1,0.6C19.6,219.6,19.5,220.5,19.5,221.8 M18.5,221.8
	c0-0.9,0.1-1.7,0.3-2.2c0.2-0.6,0.5-1,0.8-1.3c0.4-0.3,0.9-0.5,1.4-0.5c0.4,0,0.8,0.1,1.1,0.3c0.3,0.2,0.6,0.4,0.8,0.7
	c0.2,0.3,0.4,0.7,0.5,1.2c0.1,0.5,0.2,1.1,0.2,1.9c0,0.9-0.1,1.7-0.3,2.2c-0.2,0.6-0.5,1-0.8,1.3s-0.9,0.5-1.4,0.5
	c-0.8,0-1.4-0.3-1.8-0.8C18.7,224.3,18.5,223.3,18.5,221.8"/>
<polyline class="st2" points="25.1,225.7 25.1,224.6 26.2,224.6 26.2,225.7 25.1,225.7 "/>
<path class="st2" d="M28.6,221.8c0,1.3,0.1,2.2,0.5,2.6c0.3,0.4,0.7,0.6,1.1,0.6c0.4,0,0.8-0.2,1.1-0.6c0.3-0.4,0.5-1.3,0.5-2.6
	c0-1.3-0.2-2.2-0.5-2.6c-0.3-0.4-0.7-0.6-1.1-0.6c-0.5,0-0.8,0.2-1.1,0.6C28.8,219.6,28.6,220.5,28.6,221.8 M27.6,221.8
	c0-0.9,0.1-1.7,0.3-2.2c0.2-0.6,0.5-1,0.8-1.3s0.9-0.5,1.4-0.5c0.4,0,0.8,0.1,1.1,0.3c0.3,0.2,0.6,0.4,0.8,0.7
	c0.2,0.3,0.4,0.7,0.5,1.2c0.1,0.5,0.2,1.1,0.2,1.9c0,0.9-0.1,1.7-0.3,2.2c-0.2,0.6-0.5,1-0.8,1.3c-0.4,0.3-0.9,0.5-1.4,0.5
	c-0.8,0-1.4-0.3-1.8-0.8C27.9,224.3,27.6,223.3,27.6,221.8"/>
<path class="st2" d="M37.4,225.7h-1v-6.2c-0.2,0.2-0.6,0.5-0.9,0.7c-0.4,0.2-0.7,0.4-1,0.5v-0.9c0.5-0.3,1-0.6,1.4-0.9
	c0.4-0.4,0.7-0.7,0.9-1.1h0.6V225.7"/>
<g>
	<defs>
		<rect id="SVGID_23_" x="48.9" y="0.6" width="357.1" height="266.1"/>
	</defs>
	<clipPath id="SVGID_24_">
		<use xlink:href="#SVGID_23_"  style="overflow:visible;"/>
	</clipPath>
	<line class="st13" x1="48.9" y1="188.8" x2="406.1" y2="188.8"/>
</g>
<path class="st2" d="M19.5,188.8c0,1.3,0.1,2.2,0.5,2.6c0.3,0.4,0.7,0.6,1.1,0.6c0.4,0,0.8-0.2,1.1-0.6c0.3-0.4,0.5-1.3,0.5-2.6
	s-0.2-2.2-0.5-2.6c-0.3-0.4-0.7-0.6-1.1-0.6c-0.5,0-0.8,0.2-1.1,0.6C19.6,186.7,19.5,187.5,19.5,188.8 M18.5,188.8
	c0-0.9,0.1-1.7,0.3-2.2c0.2-0.6,0.5-1,0.8-1.3c0.4-0.3,0.9-0.5,1.4-0.5c0.4,0,0.8,0.1,1.1,0.3c0.3,0.2,0.6,0.4,0.8,0.7
	c0.2,0.3,0.4,0.7,0.5,1.2c0.1,0.5,0.2,1.1,0.2,1.9c0,0.9-0.1,1.7-0.3,2.2c-0.2,0.6-0.5,1-0.8,1.3s-0.9,0.5-1.4,0.5
	c-0.8,0-1.4-0.3-1.8-0.8C18.7,191.4,18.5,190.3,18.5,188.8"/>
<polyline class="st2" points="25.1,192.7 25.1,191.6 26.2,191.6 26.2,192.7 25.1,192.7 "/>
<path class="st2" d="M28.6,188.8c0,1.3,0.1,2.2,0.5,2.6c0.3,0.4,0.7,0.6,1.1,0.6c0.4,0,0.8-0.2,1.1-0.6c0.3-0.4,0.5-1.3,0.5-2.6
	s-0.2-2.2-0.5-2.6c-0.3-0.4-0.7-0.6-1.1-0.6c-0.5,0-0.8,0.2-1.1,0.6C28.8,186.7,28.6,187.5,28.6,188.8 M27.6,188.8
	c0-0.9,0.1-1.7,0.3-2.2c0.2-0.6,0.5-1,0.8-1.3s0.9-0.5,1.4-0.5c0.4,0,0.8,0.1,1.1,0.3c0.3,0.2,0.6,0.4,0.8,0.7
	c0.2,0.3,0.4,0.7,0.5,1.2c0.1,0.5,0.2,1.1,0.2,1.9c0,0.9-0.1,1.7-0.3,2.2c-0.2,0.6-0.5,1-0.8,1.3c-0.4,0.3-0.9,0.5-1.4,0.5
	c-0.8,0-1.4-0.3-1.8-0.8C27.9,191.4,27.6,190.3,27.6,188.8"/>
<path class="st2" d="M38.8,191.8v0.9h-5.2c0-0.2,0-0.5,0.1-0.7c0.1-0.4,0.3-0.7,0.6-1c0.3-0.3,0.7-0.7,1.3-1.2
	c0.9-0.7,1.4-1.2,1.7-1.7c0.3-0.4,0.5-0.8,0.5-1.2c0-0.4-0.1-0.7-0.4-1c-0.3-0.3-0.6-0.4-1.1-0.4c-0.5,0-0.8,0.1-1.1,0.4
	c-0.3,0.3-0.4,0.7-0.4,1.2l-1-0.1c0.1-0.7,0.3-1.3,0.8-1.7c0.4-0.4,1-0.6,1.8-0.6s1.4,0.2,1.8,0.6c0.4,0.4,0.7,0.9,0.7,1.6
	c0,0.3-0.1,0.6-0.2,0.9c-0.1,0.3-0.3,0.6-0.6,1c-0.3,0.3-0.8,0.8-1.5,1.4c-0.6,0.5-1,0.8-1.1,1s-0.3,0.4-0.4,0.5H38.8"/>
<g>
	<defs>
		<rect id="SVGID_25_" x="48.9" y="0.6" width="357.1" height="266.1"/>
	</defs>
	<clipPath id="SVGID_26_">
		<use xlink:href="#SVGID_25_"  style="overflow:visible;"/>
	</clipPath>
	<line class="st14" x1="48.9" y1="155.8" x2="406.1" y2="155.8"/>
</g>
<path class="st2" d="M19.5,155.9c0,1.3,0.1,2.2,0.5,2.6c0.3,0.4,0.7,0.6,1.1,0.6c0.4,0,0.8-0.2,1.1-0.6c0.3-0.4,0.5-1.3,0.5-2.6
	c0-1.3-0.2-2.2-0.5-2.6c-0.3-0.4-0.7-0.6-1.1-0.6c-0.5,0-0.8,0.2-1.1,0.6C19.6,153.7,19.5,154.6,19.5,155.9 M18.5,155.9
	c0-0.9,0.1-1.7,0.3-2.2c0.2-0.6,0.5-1,0.8-1.3c0.4-0.3,0.9-0.5,1.4-0.5c0.4,0,0.8,0.1,1.1,0.3c0.3,0.2,0.6,0.4,0.8,0.7
	c0.2,0.3,0.4,0.7,0.5,1.2c0.1,0.5,0.2,1.1,0.2,1.9c0,0.9-0.1,1.7-0.3,2.2c-0.2,0.6-0.5,1-0.8,1.3s-0.9,0.5-1.4,0.5
	c-0.8,0-1.4-0.3-1.8-0.8C18.7,158.4,18.5,157.4,18.5,155.9"/>
<polyline class="st2" points="25.1,159.8 25.1,158.7 26.2,158.7 26.2,159.8 25.1,159.8 "/>
<path class="st2" d="M28.6,155.9c0,1.3,0.1,2.2,0.5,2.6c0.3,0.4,0.7,0.6,1.1,0.6c0.4,0,0.8-0.2,1.1-0.6c0.3-0.4,0.5-1.3,0.5-2.6
	c0-1.3-0.2-2.2-0.5-2.6c-0.3-0.4-0.7-0.6-1.1-0.6c-0.5,0-0.8,0.2-1.1,0.6C28.8,153.7,28.6,154.6,28.6,155.9 M27.6,155.9
	c0-0.9,0.1-1.7,0.3-2.2c0.2-0.6,0.5-1,0.8-1.3s0.9-0.5,1.4-0.5c0.4,0,0.8,0.1,1.1,0.3c0.3,0.2,0.6,0.4,0.8,0.7
	c0.2,0.3,0.4,0.7,0.5,1.2c0.1,0.5,0.2,1.1,0.2,1.9c0,0.9-0.1,1.7-0.3,2.2c-0.2,0.6-0.5,1-0.8,1.3c-0.4,0.3-0.9,0.5-1.4,0.5
	c-0.8,0-1.4-0.3-1.8-0.8C27.9,158.4,27.6,157.4,27.6,155.9"/>
<path class="st2" d="M33.8,157.7l1-0.1c0.1,0.6,0.3,0.9,0.6,1.2c0.3,0.2,0.6,0.4,1,0.4c0.5,0,0.8-0.2,1.1-0.5
	c0.3-0.3,0.5-0.7,0.5-1.2c0-0.4-0.2-0.8-0.4-1.1c-0.3-0.3-0.7-0.4-1.1-0.4c-0.2,0-0.4,0-0.7,0.1l0.1-0.8c0.1,0,0.1,0,0.2,0
	c0.4,0,0.8-0.1,1.1-0.3c0.3-0.2,0.5-0.6,0.5-1c0-0.4-0.1-0.6-0.4-0.9s-0.6-0.4-0.9-0.4c-0.4,0-0.7,0.1-0.9,0.4
	c-0.3,0.2-0.4,0.6-0.5,1.1l-1-0.2c0.1-0.6,0.4-1.2,0.8-1.5c0.4-0.4,0.9-0.5,1.6-0.5c0.4,0,0.8,0.1,1.2,0.3c0.4,0.2,0.6,0.4,0.8,0.7
	c0.2,0.3,0.3,0.7,0.3,1c0,0.4-0.1,0.7-0.3,0.9c-0.2,0.3-0.5,0.5-0.8,0.7c0.5,0.1,0.8,0.3,1.1,0.7c0.3,0.3,0.4,0.8,0.4,1.3
	c0,0.7-0.3,1.3-0.8,1.7c-0.5,0.5-1.1,0.7-1.9,0.7c-0.7,0-1.3-0.2-1.7-0.6C34.1,158.9,33.8,158.4,33.8,157.7"/>
<g>
	<defs>
		<rect id="SVGID_27_" x="48.9" y="0.6" width="357.1" height="266.1"/>
	</defs>
	<clipPath id="SVGID_28_">
		<use xlink:href="#SVGID_27_"  style="overflow:visible;"/>
	</clipPath>
	<line class="st15" x1="48.9" y1="122.9" x2="406.1" y2="122.9"/>
</g>
<path class="st2" d="M19.5,123c0,1.3,0.1,2.2,0.5,2.6c0.3,0.4,0.7,0.6,1.1,0.6c0.4,0,0.8-0.2,1.1-0.6c0.3-0.4,0.5-1.3,0.5-2.6
	c0-1.3-0.2-2.2-0.5-2.6c-0.3-0.4-0.7-0.6-1.1-0.6c-0.5,0-0.8,0.2-1.1,0.6C19.6,120.8,19.5,121.7,19.5,123 M18.5,123
	c0-0.9,0.1-1.7,0.3-2.2c0.2-0.6,0.5-1,0.8-1.3c0.4-0.3,0.9-0.5,1.4-0.5c0.4,0,0.8,0.1,1.1,0.3c0.3,0.2,0.6,0.4,0.8,0.7
	c0.2,0.3,0.4,0.7,0.5,1.2c0.1,0.5,0.2,1.1,0.2,1.9c0,0.9-0.1,1.7-0.3,2.2c-0.2,0.6-0.5,1-0.8,1.3S21.6,127,21,127
	c-0.8,0-1.4-0.3-1.8-0.8C18.7,125.5,18.5,124.4,18.5,123"/>
<polyline class="st2" points="25.1,126.8 25.1,125.7 26.2,125.7 26.2,126.8 25.1,126.8 "/>
<path class="st2" d="M28.6,123c0,1.3,0.1,2.2,0.5,2.6c0.3,0.4,0.7,0.6,1.1,0.6c0.4,0,0.8-0.2,1.1-0.6c0.3-0.4,0.5-1.3,0.5-2.6
	c0-1.3-0.2-2.2-0.5-2.6c-0.3-0.4-0.7-0.6-1.1-0.6c-0.5,0-0.8,0.2-1.1,0.6C28.8,120.8,28.6,121.7,28.6,123 M27.6,123
	c0-0.9,0.1-1.7,0.3-2.2c0.2-0.6,0.5-1,0.8-1.3s0.9-0.5,1.4-0.5c0.4,0,0.8,0.1,1.1,0.3c0.3,0.2,0.6,0.4,0.8,0.7
	c0.2,0.3,0.4,0.7,0.5,1.2c0.1,0.5,0.2,1.1,0.2,1.9c0,0.9-0.1,1.7-0.3,2.2c-0.2,0.6-0.5,1-0.8,1.3c-0.4,0.3-0.9,0.5-1.4,0.5
	c-0.8,0-1.4-0.3-1.8-0.8C27.9,125.5,27.6,124.4,27.6,123"/>
<path class="st2" d="M36.8,124.1v-3.6l-2.5,3.6H36.8 M36.8,126.8V125h-3.4v-0.9L37,119h0.8v5.1h1.1v0.9h-1.1v1.9H36.8"/>
<g>
	<defs>
		<rect id="SVGID_29_" x="48.9" y="0.6" width="357.1" height="266.1"/>
	</defs>
	<clipPath id="SVGID_30_">
		<use xlink:href="#SVGID_29_"  style="overflow:visible;"/>
	</clipPath>
	<line class="st16" x1="48.9" y1="90" x2="406.1" y2="90"/>
</g>
<path class="st2" d="M19.5,90c0,1.3,0.1,2.2,0.5,2.6c0.3,0.4,0.7,0.6,1.1,0.6c0.4,0,0.8-0.2,1.1-0.6c0.3-0.4,0.5-1.3,0.5-2.6
	c0-1.3-0.2-2.2-0.5-2.6c-0.3-0.4-0.7-0.6-1.1-0.6c-0.5,0-0.8,0.2-1.1,0.6C19.6,87.8,19.5,88.7,19.5,90 M18.5,90
	c0-0.9,0.1-1.7,0.3-2.2c0.2-0.6,0.5-1,0.8-1.3C20,86.1,20.5,86,21,86c0.4,0,0.8,0.1,1.1,0.3c0.3,0.2,0.6,0.4,0.8,0.7
	c0.2,0.3,0.4,0.7,0.5,1.2c0.1,0.5,0.2,1.1,0.2,1.9c0,0.9-0.1,1.7-0.3,2.2c-0.2,0.6-0.5,1-0.8,1.3S21.6,94,21,94
	c-0.8,0-1.4-0.3-1.8-0.8C18.7,92.6,18.5,91.5,18.5,90"/>
<polyline class="st2" points="25.1,93.9 25.1,92.8 26.2,92.8 26.2,93.9 25.1,93.9 "/>
<path class="st2" d="M28.6,90c0,1.3,0.1,2.2,0.5,2.6c0.3,0.4,0.7,0.6,1.1,0.6c0.4,0,0.8-0.2,1.1-0.6c0.3-0.4,0.5-1.3,0.5-2.6
	c0-1.3-0.2-2.2-0.5-2.6c-0.3-0.4-0.7-0.6-1.1-0.6c-0.5,0-0.8,0.2-1.1,0.6C28.8,87.8,28.6,88.7,28.6,90 M27.6,90
	c0-0.9,0.1-1.7,0.3-2.2c0.2-0.6,0.5-1,0.8-1.3s0.9-0.5,1.4-0.5c0.4,0,0.8,0.1,1.1,0.3c0.3,0.2,0.6,0.4,0.8,0.7
	c0.2,0.3,0.4,0.7,0.5,1.2c0.1,0.5,0.2,1.1,0.2,1.9c0,0.9-0.1,1.7-0.3,2.2c-0.2,0.6-0.5,1-0.8,1.3c-0.4,0.3-0.9,0.5-1.4,0.5
	c-0.8,0-1.4-0.3-1.8-0.8C27.9,92.6,27.6,91.5,27.6,90"/>
<path class="st2" d="M33.8,91.8l1-0.1c0.1,0.5,0.2,0.9,0.5,1.1c0.3,0.3,0.6,0.4,1,0.4c0.5,0,0.9-0.2,1.2-0.5
	c0.3-0.4,0.5-0.8,0.5-1.4c0-0.5-0.2-1-0.5-1.3s-0.7-0.5-1.2-0.5c-0.3,0-0.6,0.1-0.8,0.2c-0.3,0.1-0.5,0.3-0.6,0.5l-0.9-0.1l0.8-4
	h3.9v0.9h-3.1L35,89.2c0.5-0.3,1-0.5,1.5-0.5c0.7,0,1.3,0.2,1.7,0.7c0.5,0.5,0.7,1.1,0.7,1.8c0,0.7-0.2,1.3-0.6,1.8
	c-0.5,0.6-1.2,0.9-2.1,0.9c-0.7,0-1.3-0.2-1.7-0.6C34.1,93,33.8,92.5,33.8,91.8"/>
<g>
	<defs>
		<rect id="SVGID_31_" x="48.9" y="0.6" width="357.1" height="266.1"/>
	</defs>
	<clipPath id="SVGID_32_">
		<use xlink:href="#SVGID_31_"  style="overflow:visible;"/>
	</clipPath>
	<line class="st17" x1="48.9" y1="57" x2="406.1" y2="57"/>
</g>
<path class="st2" d="M19.5,57.1c0,1.3,0.1,2.2,0.5,2.6c0.3,0.4,0.7,0.6,1.1,0.6c0.4,0,0.8-0.2,1.1-0.6c0.3-0.4,0.5-1.3,0.5-2.6
	c0-1.3-0.2-2.2-0.5-2.6c-0.3-0.4-0.7-0.6-1.1-0.6c-0.5,0-0.8,0.2-1.1,0.6C19.6,54.9,19.5,55.8,19.5,57.1 M18.5,57.1
	c0-0.9,0.1-1.7,0.3-2.2c0.2-0.6,0.5-1,0.8-1.3c0.4-0.3,0.9-0.5,1.4-0.5c0.4,0,0.8,0.1,1.1,0.3c0.3,0.2,0.6,0.4,0.8,0.7
	c0.2,0.3,0.4,0.7,0.5,1.2c0.1,0.5,0.2,1.1,0.2,1.9c0,0.9-0.1,1.7-0.3,2.2c-0.2,0.6-0.5,1-0.8,1.3s-0.9,0.5-1.4,0.5
	c-0.8,0-1.4-0.3-1.8-0.8C18.7,59.6,18.5,58.6,18.5,57.1"/>
<polyline class="st2" points="25.1,61 25.1,59.9 26.2,59.9 26.2,61 25.1,61 "/>
<path class="st2" d="M28.6,57.1c0,1.3,0.1,2.2,0.5,2.6c0.3,0.4,0.7,0.6,1.1,0.6c0.4,0,0.8-0.2,1.1-0.6c0.3-0.4,0.5-1.3,0.5-2.6
	c0-1.3-0.2-2.2-0.5-2.6c-0.3-0.4-0.7-0.6-1.1-0.6c-0.5,0-0.8,0.2-1.1,0.6C28.8,54.9,28.6,55.8,28.6,57.1 M27.6,57.1
	c0-0.9,0.1-1.7,0.3-2.2c0.2-0.6,0.5-1,0.8-1.3s0.9-0.5,1.4-0.5c0.4,0,0.8,0.1,1.1,0.3c0.3,0.2,0.6,0.4,0.8,0.7
	c0.2,0.3,0.4,0.7,0.5,1.2c0.1,0.5,0.2,1.1,0.2,1.9c0,0.9-0.1,1.7-0.3,2.2c-0.2,0.6-0.5,1-0.8,1.3c-0.4,0.3-0.9,0.5-1.4,0.5
	c-0.8,0-1.4-0.3-1.8-0.8C27.9,59.6,27.6,58.6,27.6,57.1"/>
<path class="st2" d="M34.8,58.4c0,0.3,0.1,0.6,0.2,1c0.1,0.3,0.3,0.5,0.6,0.7c0.3,0.2,0.5,0.2,0.8,0.2c0.4,0,0.7-0.2,1-0.5
	c0.3-0.3,0.4-0.8,0.4-1.3c0-0.5-0.2-1-0.4-1.3c-0.3-0.3-0.6-0.5-1.1-0.5s-0.8,0.2-1.1,0.5C35,57.5,34.8,57.9,34.8,58.4 M38.8,55
	l-1,0.1c-0.1-0.4-0.2-0.6-0.4-0.8c-0.3-0.3-0.6-0.4-1-0.4c-0.3,0-0.6,0.1-0.8,0.3c-0.3,0.2-0.5,0.6-0.7,1c-0.2,0.4-0.3,1-0.3,1.8
	c0.2-0.4,0.5-0.6,0.9-0.8c0.3-0.2,0.7-0.3,1.1-0.3c0.6,0,1.2,0.2,1.6,0.7c0.5,0.5,0.7,1.1,0.7,1.8c0,0.5-0.1,1-0.3,1.4
	c-0.2,0.4-0.5,0.7-0.9,1s-0.8,0.3-1.3,0.3c-0.8,0-1.5-0.3-2-0.9c-0.5-0.6-0.8-1.6-0.8-2.9c0-1.5,0.3-2.6,0.8-3.3
	c0.5-0.6,1.1-0.9,2-0.9c0.6,0,1.1,0.2,1.5,0.5C38.4,53.9,38.7,54.4,38.8,55"/>
<g>
	<defs>
		<rect id="SVGID_33_" x="48.9" y="0.6" width="357.1" height="266.1"/>
	</defs>
	<clipPath id="SVGID_34_">
		<use xlink:href="#SVGID_33_"  style="overflow:visible;"/>
	</clipPath>
	<line class="st18" x1="48.9" y1="24.1" x2="406.1" y2="24.1"/>
</g>
<path class="st2" d="M19.5,24.1c0,1.3,0.1,2.2,0.5,2.6c0.3,0.4,0.7,0.6,1.1,0.6c0.4,0,0.8-0.2,1.1-0.6c0.3-0.4,0.5-1.3,0.5-2.6
	s-0.2-2.2-0.5-2.6c-0.3-0.4-0.7-0.6-1.1-0.6c-0.5,0-0.8,0.2-1.1,0.6C19.6,22,19.5,22.9,19.5,24.1 M18.5,24.1c0-0.9,0.1-1.7,0.3-2.2
	c0.2-0.6,0.5-1,0.8-1.3c0.4-0.3,0.9-0.5,1.4-0.5c0.4,0,0.8,0.1,1.1,0.3c0.3,0.2,0.6,0.4,0.8,0.7c0.2,0.3,0.4,0.7,0.5,1.2
	c0.1,0.5,0.2,1.1,0.2,1.9c0,0.9-0.1,1.7-0.3,2.2c-0.2,0.6-0.5,1-0.8,1.3c-0.4,0.3-0.9,0.5-1.4,0.5c-0.8,0-1.4-0.3-1.8-0.8
	C18.7,26.7,18.5,25.6,18.5,24.1"/>
<polyline class="st2" points="25.1,28 25.1,26.9 26.2,26.9 26.2,28 25.1,28 "/>
<path class="st2" d="M28.6,24.1c0,1.3,0.1,2.2,0.5,2.6c0.3,0.4,0.7,0.6,1.1,0.6c0.4,0,0.8-0.2,1.1-0.6c0.3-0.4,0.5-1.3,0.5-2.6
	s-0.2-2.2-0.5-2.6c-0.3-0.4-0.7-0.6-1.1-0.6c-0.5,0-0.8,0.2-1.1,0.6C28.8,22,28.6,22.9,28.6,24.1 M27.6,24.1c0-0.9,0.1-1.7,0.3-2.2
	c0.2-0.6,0.5-1,0.8-1.3c0.4-0.3,0.9-0.5,1.4-0.5c0.4,0,0.8,0.1,1.1,0.3c0.3,0.2,0.6,0.4,0.8,0.7c0.2,0.3,0.4,0.7,0.5,1.2
	c0.1,0.5,0.2,1.1,0.2,1.9c0,0.9-0.1,1.7-0.3,2.2c-0.2,0.6-0.5,1-0.8,1.3c-0.4,0.3-0.9,0.5-1.4,0.5c-0.8,0-1.4-0.3-1.8-0.8
	C27.9,26.7,27.6,25.6,27.6,24.1"/>
<path class="st2" d="M33.8,21.2v-0.9h5.1V21c-0.5,0.5-1,1.3-1.5,2.1c-0.5,0.9-0.9,1.8-1.1,2.7c-0.2,0.7-0.3,1.4-0.4,2.2h-1
	c0-0.6,0.1-1.4,0.4-2.2c0.2-0.9,0.6-1.7,1-2.5s0.9-1.5,1.4-2.1H33.8"/>
<path class="st2" d="M10.8,221.8H2.2v-1.7l6.1-2c0.6-0.2,1-0.3,1.3-0.4c-0.3-0.1-0.8-0.3-1.4-0.5l-6-2.1v-1.5h8.6v1.1H3.6l7.2,2.5v1
	l-7.3,2.5h7.3V221.8"/>
<path class="st2" d="M7.1,211.1v-3.5c-0.5,0-0.9,0.2-1.2,0.4c-0.4,0.3-0.6,0.8-0.6,1.3c0,0.5,0.2,0.9,0.5,1.2
	C6.1,210.9,6.6,211.1,7.1,211.1 M8.8,207.7l0.1-1.1c0.6,0.2,1.1,0.5,1.5,1c0.3,0.5,0.5,1.1,0.5,1.8c0,0.9-0.3,1.6-0.8,2.2
	s-1.3,0.8-2.4,0.8c-1,0-1.9-0.3-2.4-0.8c-0.6-0.5-0.9-1.2-0.9-2.1c0-0.8,0.3-1.5,0.9-2c0.6-0.5,1.4-0.8,2.4-0.8c0.1,0,0.2,0,0.3,0
	v4.6c0.7,0,1.2-0.2,1.6-0.6c0.4-0.3,0.5-0.8,0.5-1.3c0-0.4-0.1-0.7-0.3-1C9.6,208,9.3,207.8,8.8,207.7"/>
<path class="st2" d="M7.7,201.3c0.2,0.4,0.3,1,0.4,1.7c0.1,0.4,0.1,0.7,0.2,0.9c0.1,0.2,0.2,0.3,0.3,0.4c0.2,0.1,0.3,0.1,0.5,0.1
	c0.3,0,0.5-0.1,0.7-0.3c0.2-0.2,0.3-0.5,0.3-0.9c0-0.4-0.1-0.8-0.3-1.1s-0.4-0.6-0.7-0.7c-0.2-0.1-0.6-0.2-1.1-0.2H7.7 M10.1,201.2
	c0.3,0.4,0.6,0.8,0.7,1.1c0.1,0.4,0.2,0.8,0.2,1.2c0,0.7-0.2,1.2-0.5,1.6c-0.3,0.4-0.8,0.6-1.3,0.6c-0.3,0-0.6-0.1-0.8-0.2
	s-0.5-0.3-0.6-0.6c-0.1-0.2-0.3-0.5-0.3-0.8c0-0.2-0.1-0.5-0.2-0.9c-0.1-0.9-0.2-1.5-0.4-1.9c-0.1,0-0.2,0-0.3,0
	c-0.4,0-0.7,0.1-0.9,0.3c-0.2,0.3-0.4,0.7-0.4,1.2c0,0.5,0.1,0.9,0.3,1.1c0.2,0.2,0.5,0.4,0.9,0.5l-0.1,1c-0.4-0.1-0.8-0.3-1.1-0.5
	c-0.3-0.2-0.5-0.5-0.6-0.9c-0.1-0.4-0.2-0.9-0.2-1.4c0-0.5,0.1-1,0.2-1.3s0.3-0.6,0.5-0.7c0.2-0.2,0.4-0.3,0.7-0.3
	c0.2,0,0.5-0.1,1-0.1h1.4c1,0,1.6,0,1.9-0.1c0.3,0,0.5-0.1,0.7-0.3v1.1C10.6,201.1,10.4,201.2,10.1,201.2"/>
<path class="st2" d="M10.8,198.6H4.6v-0.9h0.9c-0.7-0.5-1-1.1-1-2c0-0.4,0.1-0.7,0.2-1c0.1-0.3,0.3-0.6,0.5-0.7
	c0.2-0.2,0.5-0.3,0.8-0.3c0.2,0,0.5-0.1,1-0.1h3.8v1.1H7c-0.4,0-0.7,0-1,0.1c-0.2,0.1-0.4,0.2-0.5,0.4c-0.1,0.2-0.2,0.5-0.2,0.7
	c0,0.5,0.1,0.9,0.4,1.2c0.3,0.3,0.8,0.5,1.6,0.5h3.4V198.6"/>
<path class="st2" d="M9,189l-0.2-1c0.4,0,0.7-0.2,1-0.5c0.2-0.3,0.3-0.6,0.3-1.1s-0.1-0.8-0.3-1.1c-0.2-0.2-0.4-0.3-0.7-0.3
	c-0.2,0-0.4,0.1-0.6,0.3c-0.1,0.1-0.2,0.5-0.4,1.1c-0.2,0.8-0.4,1.3-0.5,1.6c-0.1,0.3-0.3,0.5-0.6,0.7c-0.3,0.2-0.5,0.2-0.8,0.2
	c-0.3,0-0.5-0.1-0.8-0.2c-0.2-0.1-0.4-0.3-0.6-0.5c-0.1-0.2-0.2-0.4-0.3-0.7c-0.1-0.3-0.1-0.6-0.1-0.9c0-0.5,0.1-0.9,0.2-1.3
	c0.1-0.4,0.3-0.6,0.6-0.8c0.2-0.2,0.6-0.3,1-0.4l0.1,1c-0.3,0-0.6,0.2-0.7,0.4c-0.2,0.2-0.3,0.5-0.3,0.9c0,0.5,0.1,0.8,0.2,1
	c0.2,0.2,0.3,0.3,0.6,0.3c0.1,0,0.3,0,0.4-0.1c0.1-0.1,0.2-0.2,0.3-0.4c0-0.1,0.1-0.4,0.3-0.9c0.2-0.7,0.4-1.3,0.5-1.6
	c0.1-0.3,0.3-0.5,0.6-0.7c0.2-0.2,0.5-0.3,0.9-0.3c0.4,0,0.7,0.1,1,0.3c0.3,0.2,0.5,0.5,0.7,0.9c0.2,0.4,0.3,0.8,0.3,1.3
	c0,0.8-0.2,1.4-0.5,1.8C10.1,188.6,9.6,188.9,9,189"/>
<path class="st2" d="M7.7,181.8c0.8,0,1.4-0.2,1.8-0.5c0.4-0.3,0.6-0.7,0.6-1.2c0-0.4-0.2-0.8-0.6-1.2c-0.4-0.3-1-0.5-1.7-0.5
	c-0.8,0-1.4,0.2-1.9,0.5s-0.6,0.7-0.6,1.2c0,0.5,0.2,0.9,0.6,1.2C6.3,181.7,6.9,181.8,7.7,181.8 M13.2,178.6h-3
	c0.2,0.2,0.4,0.4,0.6,0.7c0.1,0.3,0.2,0.6,0.2,0.9c0,0.7-0.3,1.4-0.9,1.9c-0.6,0.5-1.4,0.8-2.4,0.8c-0.6,0-1.2-0.1-1.7-0.3
	c-0.5-0.2-0.9-0.5-1.1-0.9c-0.3-0.4-0.4-0.9-0.4-1.4c0-0.8,0.3-1.4,1-1.8H4.6v-0.9h8.6V178.6"/>
<path class="st2" d="M10.8,171.8H9.9c0.7,0.5,1,1.2,1,2c0,0.4-0.1,0.7-0.2,1s-0.3,0.6-0.5,0.7c-0.2,0.2-0.5,0.3-0.8,0.3
	c-0.2,0-0.5,0.1-1,0.1H4.6v-1.1h3.5c0.6,0,0.9,0,1.1-0.1c0.3-0.1,0.5-0.2,0.6-0.4c0.2-0.2,0.2-0.5,0.2-0.8c0-0.3-0.1-0.6-0.2-0.9
	c-0.2-0.3-0.4-0.5-0.7-0.6c-0.3-0.1-0.7-0.2-1.2-0.2H4.6v-1.1h6.2V171.8"/>
<path class="st2" d="M7.7,165.2c0.2,0.4,0.3,1,0.4,1.7c0.1,0.4,0.1,0.7,0.2,0.9c0.1,0.2,0.2,0.3,0.3,0.4c0.2,0.1,0.3,0.1,0.5,0.1
	c0.3,0,0.5-0.1,0.7-0.3c0.2-0.2,0.3-0.5,0.3-0.9s-0.1-0.8-0.3-1.1s-0.4-0.6-0.7-0.7c-0.2-0.1-0.6-0.2-1.1-0.2H7.7 M10.1,165.2
	c0.3,0.4,0.6,0.8,0.7,1.1c0.1,0.4,0.2,0.8,0.2,1.2c0,0.7-0.2,1.2-0.5,1.6c-0.3,0.4-0.8,0.6-1.3,0.6c-0.3,0-0.6-0.1-0.8-0.2
	s-0.5-0.3-0.6-0.6c-0.1-0.2-0.3-0.5-0.3-0.8c0-0.2-0.1-0.5-0.2-0.9c-0.1-0.9-0.2-1.5-0.4-1.9c-0.1,0-0.2,0-0.3,0
	c-0.4,0-0.7,0.1-0.9,0.3c-0.2,0.3-0.4,0.7-0.4,1.2c0,0.5,0.1,0.9,0.3,1.1c0.2,0.2,0.5,0.4,0.9,0.5l-0.1,1c-0.4-0.1-0.8-0.3-1.1-0.5
	c-0.3-0.2-0.5-0.5-0.6-0.9s-0.2-0.9-0.2-1.4c0-0.5,0.1-1,0.2-1.3s0.3-0.6,0.5-0.7c0.2-0.2,0.4-0.3,0.7-0.3c0.2,0,0.5-0.1,1-0.1h1.4
	c1,0,1.6,0,1.9-0.1s0.5-0.1,0.7-0.3v1.1C10.6,165.1,10.4,165.1,10.1,165.2"/>
<path class="st2" d="M10.8,162.5H4.6v-0.9h0.9c-0.4-0.2-0.7-0.5-0.9-0.7c-0.1-0.2-0.2-0.4-0.2-0.7c0-0.4,0.1-0.7,0.3-1.1l1,0.4
	c-0.1,0.3-0.2,0.5-0.2,0.8c0,0.2,0.1,0.4,0.2,0.6c0.1,0.2,0.3,0.3,0.6,0.4c0.4,0.1,0.8,0.2,1.2,0.2h3.3V162.5"/>
<path class="st2" d="M7.1,157.7v-3.5c-0.5,0-0.9,0.2-1.2,0.4c-0.4,0.3-0.6,0.8-0.6,1.3c0,0.5,0.2,0.9,0.5,1.2
	C6.1,157.5,6.6,157.7,7.1,157.7 M8.8,154.3l0.1-1.1c0.6,0.2,1.1,0.5,1.5,1c0.3,0.5,0.5,1.1,0.5,1.8c0,0.9-0.3,1.6-0.8,2.2
	c-0.6,0.5-1.3,0.8-2.4,0.8c-1,0-1.9-0.3-2.4-0.8c-0.6-0.5-0.9-1.2-0.9-2.1c0-0.8,0.3-1.5,0.9-2c0.6-0.5,1.4-0.8,2.4-0.8
	c0.1,0,0.2,0,0.3,0v4.6c0.7,0,1.2-0.2,1.6-0.6c0.4-0.3,0.5-0.8,0.5-1.3c0-0.4-0.1-0.7-0.3-1C9.6,154.7,9.3,154.4,8.8,154.3"/>
<path class="st2" d="M7.7,147.8c0.8,0,1.4-0.2,1.8-0.5c0.4-0.3,0.6-0.7,0.6-1.2c0-0.5-0.2-0.8-0.6-1.2c-0.4-0.3-0.9-0.5-1.7-0.5
	c-0.9,0-1.5,0.2-1.9,0.5c-0.4,0.3-0.6,0.7-0.6,1.2s0.2,0.9,0.6,1.2S6.9,147.8,7.7,147.8 M10.8,144.5H10c0.6,0.4,0.9,1,0.9,1.7
	c0,0.5-0.1,1-0.4,1.4c-0.3,0.4-0.6,0.7-1.1,1c-0.5,0.2-1,0.3-1.7,0.3c-0.6,0-1.2-0.1-1.7-0.3c-0.5-0.2-0.9-0.5-1.2-0.9
	s-0.4-0.9-0.4-1.4c0-0.4,0.1-0.7,0.2-1c0.2-0.3,0.4-0.5,0.6-0.7H2.2v-1.1h8.6V144.5"/>
<path class="st2" d="M10.8,141.9H4.6v-1.1h6.2V141.9 M3.4,141.9H2.2v-1.1h1.2V141.9"/>
<path class="st2" d="M9,139.6l-0.2-1c0.4,0,0.7-0.2,1-0.5c0.2-0.3,0.3-0.6,0.3-1.1s-0.1-0.8-0.3-1.1c-0.2-0.2-0.4-0.3-0.7-0.3
	c-0.2,0-0.4,0.1-0.6,0.3c-0.1,0.1-0.2,0.5-0.4,1.1c-0.2,0.8-0.4,1.3-0.5,1.6c-0.1,0.3-0.3,0.5-0.6,0.7c-0.3,0.2-0.5,0.2-0.8,0.2
	c-0.3,0-0.5-0.1-0.8-0.2c-0.2-0.1-0.4-0.3-0.6-0.5c-0.1-0.2-0.2-0.4-0.3-0.7c-0.1-0.3-0.1-0.6-0.1-0.9c0-0.5,0.1-0.9,0.2-1.3
	c0.1-0.4,0.3-0.6,0.6-0.8c0.2-0.2,0.6-0.3,1-0.4l0.1,1c-0.3,0-0.6,0.2-0.7,0.4c-0.2,0.2-0.3,0.5-0.3,0.9c0,0.5,0.1,0.8,0.2,1
	c0.2,0.2,0.3,0.3,0.6,0.3c0.1,0,0.3,0,0.4-0.1c0.1-0.1,0.2-0.2,0.3-0.4c0-0.1,0.1-0.4,0.3-0.9c0.2-0.7,0.4-1.3,0.5-1.6
	c0.1-0.3,0.3-0.5,0.6-0.7c0.2-0.2,0.5-0.3,0.9-0.3c0.4,0,0.7,0.1,1,0.3c0.3,0.2,0.5,0.5,0.7,0.9c0.2,0.4,0.3,0.8,0.3,1.3
	c0,0.8-0.2,1.4-0.5,1.8C10.1,139.2,9.6,139.5,9,139.6"/>
<path class="st2" d="M7.8,132.2c0.8,0,1.4-0.2,1.8-0.5c0.4-0.3,0.6-0.7,0.6-1.2c0-0.5-0.2-0.9-0.6-1.2s-1-0.5-1.8-0.5
	c-0.8,0-1.4,0.2-1.8,0.5c-0.4,0.3-0.6,0.7-0.6,1.2c0,0.5,0.2,0.9,0.6,1.2C6.4,132.1,7,132.2,7.8,132.2 M13.2,133.2H4.6v-1h0.8
	c-0.3-0.2-0.6-0.5-0.7-0.8c-0.2-0.3-0.2-0.6-0.2-1c0-0.5,0.1-1,0.4-1.4c0.3-0.4,0.7-0.7,1.2-0.9c0.5-0.2,1-0.3,1.6-0.3
	c0.6,0,1.2,0.1,1.7,0.3c0.5,0.2,0.9,0.6,1.2,1c0.3,0.4,0.4,0.9,0.4,1.4c0,0.4-0.1,0.7-0.2,0.9c-0.1,0.3-0.3,0.5-0.6,0.7h3V133.2"/>
<polyline class="st2" points="10.8,126.5 2.2,126.5 2.2,125.5 10.8,125.5 10.8,126.5 "/>
<path class="st2" d="M7.7,119.9c0.2,0.4,0.3,1,0.4,1.7c0.1,0.4,0.1,0.7,0.2,0.9c0.1,0.2,0.2,0.3,0.3,0.4c0.2,0.1,0.3,0.1,0.5,0.1
	c0.3,0,0.5-0.1,0.7-0.3c0.2-0.2,0.3-0.5,0.3-0.9s-0.1-0.8-0.3-1.1s-0.4-0.6-0.7-0.7c-0.2-0.1-0.6-0.2-1.1-0.2H7.7 M10.1,119.8
	c0.3,0.4,0.6,0.8,0.7,1.1c0.1,0.4,0.2,0.8,0.2,1.2c0,0.7-0.2,1.2-0.5,1.6c-0.3,0.4-0.8,0.6-1.3,0.6c-0.3,0-0.6-0.1-0.8-0.2
	s-0.5-0.3-0.6-0.6c-0.1-0.2-0.3-0.5-0.3-0.8c0-0.2-0.1-0.5-0.2-0.9c-0.1-0.9-0.2-1.5-0.4-1.9c-0.1,0-0.2,0-0.3,0
	c-0.4,0-0.7,0.1-0.9,0.3c-0.2,0.3-0.4,0.7-0.4,1.2c0,0.5,0.1,0.9,0.3,1.1c0.2,0.2,0.5,0.4,0.9,0.5l-0.1,1c-0.4-0.1-0.8-0.3-1.1-0.5
	c-0.3-0.2-0.5-0.5-0.6-0.9s-0.2-0.9-0.2-1.4c0-0.5,0.1-1,0.2-1.3s0.3-0.6,0.5-0.7c0.2-0.2,0.4-0.3,0.7-0.3c0.2,0,0.5-0.1,1-0.1h1.4
	c1,0,1.6,0,1.9-0.1s0.5-0.1,0.7-0.3v1.1C10.6,119.7,10.4,119.8,10.1,119.8"/>
<path class="st2" d="M8.5,113.1l0.1-1c0.7,0.1,1.3,0.4,1.7,0.9c0.4,0.5,0.6,1,0.6,1.7c0,0.9-0.3,1.5-0.8,2.1
	c-0.6,0.5-1.3,0.8-2.4,0.8c-0.7,0-1.3-0.1-1.8-0.3c-0.5-0.2-0.9-0.6-1.1-1c-0.3-0.5-0.4-0.9-0.4-1.5c0-0.7,0.2-1.2,0.5-1.7
	c0.3-0.4,0.8-0.7,1.5-0.8l0.2,1c-0.4,0.1-0.7,0.3-0.9,0.5c-0.2,0.3-0.3,0.6-0.3,0.9c0,0.5,0.2,1,0.6,1.3c0.4,0.3,1,0.5,1.8,0.5
	c0.8,0,1.5-0.2,1.8-0.5c0.4-0.3,0.6-0.7,0.6-1.3c0-0.4-0.1-0.8-0.4-1C9.5,113.4,9.1,113.2,8.5,113.1"/>
<path class="st2" d="M7.1,110.4v-3.5c-0.5,0-0.9,0.2-1.2,0.4c-0.4,0.3-0.6,0.8-0.6,1.3c0,0.5,0.2,0.9,0.5,1.2
	C6.1,110.2,6.6,110.3,7.1,110.4 M8.8,106.9l0.1-1.1c0.6,0.2,1.1,0.5,1.5,1c0.3,0.5,0.5,1.1,0.5,1.8c0,0.9-0.3,1.6-0.8,2.2
	c-0.6,0.5-1.3,0.8-2.4,0.8c-1,0-1.9-0.3-2.4-0.8c-0.6-0.5-0.9-1.2-0.9-2.1c0-0.8,0.3-1.5,0.9-2c0.6-0.5,1.4-0.8,2.4-0.8
	c0.1,0,0.2,0,0.3,0v4.6c0.7,0,1.2-0.2,1.6-0.6c0.4-0.3,0.5-0.8,0.5-1.3c0-0.4-0.1-0.7-0.3-1C9.6,107.3,9.3,107.1,8.8,106.9"/>
<path class="st2" d="M10.8,104.5H4.6v-0.9h0.9c-0.3-0.2-0.5-0.4-0.7-0.8c-0.2-0.3-0.3-0.7-0.3-1.1c0-0.5,0.1-0.8,0.3-1.1
	c0.2-0.3,0.5-0.5,0.8-0.6c-0.7-0.5-1.1-1.1-1.1-1.9c0-0.6,0.2-1.1,0.5-1.4s0.9-0.5,1.6-0.5h4.3v1.1H6.9c-0.4,0-0.7,0-0.9,0.1
	c-0.2,0.1-0.3,0.2-0.5,0.4c-0.1,0.2-0.2,0.4-0.2,0.6c0,0.4,0.2,0.8,0.4,1.1c0.3,0.3,0.8,0.4,1.4,0.4h3.6v1.1h-4
	c-0.5,0-0.8,0.1-1.1,0.3c-0.2,0.2-0.3,0.5-0.3,0.8c0,0.3,0.1,0.6,0.2,0.8s0.4,0.4,0.7,0.5c0.3,0.1,0.7,0.2,1.3,0.2h3.2V104.5"/>
<path class="st2" d="M7.1,93.7v-3.5c-0.5,0-0.9,0.2-1.2,0.4c-0.4,0.3-0.6,0.8-0.6,1.3c0,0.5,0.2,0.9,0.5,1.2
	C6.1,93.5,6.6,93.7,7.1,93.7 M8.8,90.2L9,89.2c0.6,0.2,1.1,0.5,1.5,1c0.3,0.5,0.5,1.1,0.5,1.8c0,0.9-0.3,1.6-0.8,2.2
	c-0.6,0.5-1.3,0.8-2.4,0.8c-1,0-1.9-0.3-2.4-0.8c-0.6-0.5-0.9-1.2-0.9-2.1c0-0.8,0.3-1.5,0.9-2c0.6-0.5,1.4-0.8,2.4-0.8
	c0.1,0,0.2,0,0.3,0v4.6c0.7,0,1.2-0.2,1.6-0.6c0.4-0.3,0.5-0.8,0.5-1.3c0-0.4-0.1-0.7-0.3-1C9.6,90.6,9.3,90.4,8.8,90.2"/>
<path class="st2" d="M10.8,87.8H4.6v-0.9h0.9c-0.7-0.5-1-1.1-1-2c0-0.4,0.1-0.7,0.2-1s0.3-0.6,0.5-0.7C5.4,83,5.7,82.9,6,82.8
	c0.2,0,0.5-0.1,1-0.1h3.8v1.1H7c-0.4,0-0.7,0-1,0.1c-0.2,0.1-0.4,0.2-0.5,0.4c-0.1,0.2-0.2,0.5-0.2,0.7c0,0.5,0.1,0.9,0.4,1.2
	c0.3,0.3,0.8,0.5,1.6,0.5h3.4V87.8"/>
<path class="st2" d="M9.9,78.9l0.9-0.2c0,0.3,0.1,0.6,0.1,0.8c0,0.4-0.1,0.7-0.2,0.9c-0.1,0.2-0.3,0.4-0.5,0.4
	C10.1,80.9,9.6,81,9,81H5.4v0.8H4.6V81H3.1l-0.6-1h2.2v-1.1h0.8v1.1h3.6c0.3,0,0.5,0,0.6-0.1c0.1,0,0.2-0.1,0.2-0.2s0.1-0.2,0.1-0.4
	C9.9,79.2,9.9,79,9.9,78.9"/>
<path class="st2" d="M13.3,72.5c-0.7,0.6-1.6,1.1-2.6,1.5c-1,0.4-2,0.6-3.1,0.6c-0.9,0-1.8-0.1-2.7-0.4c-1-0.3-2-0.9-3-1.6v-0.8
	c0.8,0.5,1.4,0.8,1.7,0.9c0.5,0.2,1.1,0.4,1.7,0.6c0.7,0.2,1.5,0.3,2.2,0.3c1.9,0,3.7-0.6,5.6-1.8V72.5"/>
<path class="st2" d="M10.8,70.5H4.6v-0.9h0.9c-0.7-0.5-1-1.1-1-2c0-0.4,0.1-0.7,0.2-1S5,66,5.2,65.8c0.2-0.2,0.5-0.3,0.8-0.3
	c0.2,0,0.5-0.1,1-0.1h3.8v1.1H7c-0.4,0-0.7,0-1,0.1c-0.2,0.1-0.4,0.2-0.5,0.4c-0.1,0.2-0.2,0.5-0.2,0.7c0,0.5,0.1,0.9,0.4,1.2
	c0.3,0.3,0.8,0.5,1.6,0.5h3.4V70.5"/>
<path class="st2" d="M10.8,63.8H4.6v-0.9h0.9c-0.3-0.2-0.5-0.4-0.7-0.8c-0.2-0.3-0.3-0.7-0.3-1.1c0-0.5,0.1-0.8,0.3-1.1
	c0.2-0.3,0.5-0.5,0.8-0.6c-0.7-0.5-1.1-1.1-1.1-1.9c0-0.6,0.2-1.1,0.5-1.4s0.9-0.5,1.6-0.5h4.3v1.1H6.9c-0.4,0-0.7,0-0.9,0.1
	c-0.2,0.1-0.3,0.2-0.5,0.4c-0.1,0.2-0.2,0.4-0.2,0.6c0,0.4,0.2,0.8,0.4,1.1c0.3,0.3,0.8,0.4,1.4,0.4h3.6v1.1h-4
	c-0.5,0-0.8,0.1-1.1,0.3c-0.2,0.2-0.3,0.5-0.3,0.8c0,0.3,0.1,0.6,0.2,0.8s0.4,0.4,0.7,0.5c0.3,0.1,0.7,0.2,1.3,0.2h3.2V63.8"/>
<path class="st2" d="M5.5,52.9V50h0.7v3.9H5.5c-0.3-0.3-0.8-0.7-1.3-1.3c-0.5-0.5-0.9-0.9-1.1-1c-0.3-0.3-0.5-0.5-0.8-0.6
	c-0.2-0.1-0.4-0.2-0.6-0.2c-0.3,0-0.6,0.1-0.8,0.3c-0.2,0.2-0.3,0.5-0.3,0.9c0,0.3,0.1,0.5,0.1,0.8c0.1,0.3,0.2,0.6,0.4,0.9H0.4
	c-0.1-0.3-0.2-0.6-0.3-0.9S0,52.4,0,52.1c0-0.6,0.2-1.1,0.5-1.5S1.2,50,1.7,50c0.3,0,0.5,0.1,0.7,0.1c0.2,0.1,0.5,0.3,0.8,0.5
	c0.1,0.1,0.3,0.3,0.7,0.7C4.3,51.7,4.9,52.2,5.5,52.9"/>
<path class="st2" d="M13.3,47.3v0.8c-1.9-1.2-3.7-1.8-5.6-1.8c-0.7,0-1.5,0.1-2.2,0.3c-0.6,0.1-1.1,0.3-1.7,0.6
	c-0.3,0.2-0.9,0.5-1.8,0.9v-0.8c1-0.7,2-1.3,3-1.6c0.9-0.3,1.8-0.5,2.7-0.5c1.1,0,2.1,0.2,3.1,0.6C11.8,46.3,12.6,46.8,13.3,47.3"/>
<g>
	<defs>
		<rect id="SVGID_35_" x="48.9" y="0.6" width="357.1" height="266.1"/>
	</defs>
	<clipPath id="SVGID_36_">
		<use xlink:href="#SVGID_35_"  style="overflow:visible;"/>
	</clipPath>
	<line class="st19" x1="65.2" y1="254.7" x2="389.8" y2="126.2"/>
</g>
<g>
	<defs>
		<rect id="SVGID_37_" x="48.9" y="0.6" width="357.1" height="266.1"/>
	</defs>
	<clipPath id="SVGID_38_">
		<use xlink:href="#SVGID_37_"  style="overflow:visible;"/>
	</clipPath>
	<line class="st20" x1="65.2" y1="254.7" x2="389.8" y2="12.7"/>
</g>
<line class="st21" x1="48.9" y1="266.8" x2="48.9" y2="0.6"/>
<line class="st21" x1="406.1" y1="266.8" x2="406.1" y2="0.6"/>
<line class="st21" x1="48.9" y1="266.8" x2="406.1" y2="266.8"/>
<line class="st21" x1="48.9" y1="0.6" x2="406.1" y2="0.6"/>
<g>
	<path class="st22" d="M56.6,40.6H123c1.5,0,2.2-0.7,2.2-2.2v-30c0-1.5-0.7-2.2-2.2-2.2H56.6c-1.5,0-2.2,0.7-2.2,2.2v30
		C54.4,39.8,55.2,40.6,56.6,40.6z"/>
	<path class="st23" d="M56.6,40.6H123c1.5,0,2.2-0.7,2.2-2.2v-30c0-1.5-0.7-2.2-2.2-2.2H56.6c-1.5,0-2.2,0.7-2.2,2.2v30
		C54.4,39.8,55.2,40.6,56.6,40.6z"/>
</g>
<line class="st24" x1="58.8" y1="14.6" x2="80.8" y2="14.6"/>
<path class="st2" d="M91.9,15.2h2.7L93.7,13c-0.3-0.7-0.4-1.2-0.6-1.6c-0.1,0.5-0.2,1-0.4,1.5L91.9,15.2 M89.6,18.4l3-7.9h1.1
	l3.2,7.9h-1.2L94.9,16h-3.3l-0.9,2.4H89.6"/>
<path class="st2" d="M97.1,18.4l2.1-3l-1.9-2.7h1.2l0.9,1.3c0.2,0.3,0.3,0.5,0.4,0.6c0.2-0.2,0.3-0.4,0.4-0.6l1-1.4h1.2l-2,2.7
	l2.1,3h-1.2l-1.2-1.8l-0.3-0.5l-1.5,2.3H97.1"/>
<path class="st2" d="M103.2,18.4v-5.7h1v5.7H103.2 M103.2,11.7v-1.1h1v1.1H103.2"/>
<path class="st2" d="M109.3,15.6c-0.4,0.1-0.9,0.3-1.6,0.4c-0.4,0.1-0.7,0.1-0.8,0.2c-0.2,0.1-0.3,0.2-0.4,0.3
	c-0.1,0.1-0.1,0.3-0.1,0.5c0,0.3,0.1,0.5,0.3,0.6c0.2,0.2,0.5,0.3,0.9,0.3s0.7-0.1,1-0.2c0.3-0.2,0.5-0.4,0.6-0.7
	c0.1-0.2,0.2-0.5,0.2-1V15.6 M109.4,17.7c-0.4,0.3-0.7,0.5-1,0.6c-0.3,0.1-0.7,0.2-1.1,0.2c-0.6,0-1.1-0.1-1.4-0.5
	c-0.3-0.3-0.5-0.7-0.5-1.2c0-0.3,0.1-0.5,0.2-0.8c0.1-0.2,0.3-0.4,0.5-0.6c0.2-0.1,0.4-0.2,0.7-0.3c0.2,0,0.5-0.1,0.9-0.1
	c0.8-0.1,1.4-0.2,1.7-0.3c0-0.1,0-0.2,0-0.3c0-0.4-0.1-0.7-0.3-0.8c-0.3-0.2-0.6-0.3-1.1-0.3c-0.5,0-0.8,0.1-1,0.2
	c-0.2,0.2-0.4,0.5-0.5,0.8l-0.9-0.1c0.1-0.4,0.2-0.7,0.4-1c0.2-0.2,0.5-0.4,0.8-0.6c0.4-0.1,0.8-0.2,1.3-0.2c0.5,0,0.9,0.1,1.2,0.2
	c0.3,0.1,0.5,0.3,0.7,0.4c0.1,0.2,0.2,0.4,0.3,0.6c0,0.2,0.1,0.5,0.1,0.9V16c0,0.9,0,1.5,0.1,1.7s0.1,0.5,0.3,0.7h-1
	C109.4,18.2,109.4,18,109.4,17.7"/>
<polyline class="st2" points="111.7,18.4 111.7,10.5 112.7,10.5 112.7,18.4 111.7,18.4 "/>
<line class="st25" x1="58.8" y1="30.1" x2="80.8" y2="30.1"/>
<path class="st2" d="M91.5,29.6h2.2c0.5,0,0.8,0,1.1-0.1s0.5-0.3,0.6-0.5c0.1-0.2,0.2-0.5,0.2-0.7c0-0.4-0.1-0.7-0.4-0.9
	C95,27.1,94.6,27,94,27h-2.5V29.6 M90.5,34v-7.9H94c0.7,0,1.2,0.1,1.6,0.2c0.4,0.1,0.7,0.4,0.9,0.7c0.2,0.4,0.3,0.7,0.3,1.2
	c0,0.6-0.2,1-0.6,1.4c-0.4,0.4-0.9,0.6-1.7,0.7c0.3,0.1,0.5,0.3,0.6,0.4c0.3,0.3,0.6,0.6,0.9,1l1.4,2.1h-1.3l-1-1.6
	c-0.3-0.5-0.6-0.8-0.8-1.1c-0.2-0.3-0.4-0.4-0.5-0.5s-0.3-0.2-0.5-0.2c-0.1,0-0.3,0-0.6,0h-1.2V34H90.5"/>
<path class="st2" d="M101.9,31.1c-0.4,0.1-0.9,0.3-1.6,0.4c-0.4,0.1-0.7,0.1-0.8,0.2c-0.2,0.1-0.3,0.2-0.4,0.3
	c-0.1,0.1-0.1,0.3-0.1,0.5c0,0.3,0.1,0.5,0.3,0.6c0.2,0.2,0.5,0.3,0.9,0.3s0.7-0.1,1-0.2c0.3-0.2,0.5-0.4,0.6-0.7
	c0.1-0.2,0.2-0.5,0.2-1V31.1 M102,33.3c-0.4,0.3-0.7,0.5-1,0.6c-0.3,0.1-0.7,0.2-1.1,0.2c-0.6,0-1.1-0.1-1.4-0.5
	C98.1,33.3,98,33,98,32.5c0-0.3,0.1-0.5,0.2-0.8c0.1-0.2,0.3-0.4,0.5-0.6c0.2-0.1,0.4-0.2,0.7-0.3c0.2,0,0.5-0.1,0.9-0.1
	c0.8-0.1,1.4-0.2,1.7-0.3c0-0.1,0-0.2,0-0.3c0-0.4-0.1-0.7-0.3-0.8c-0.3-0.2-0.6-0.3-1.1-0.3c-0.5,0-0.8,0.1-1,0.2
	c-0.2,0.2-0.4,0.5-0.5,0.8l-0.9-0.1c0.1-0.4,0.2-0.7,0.4-1c0.2-0.2,0.5-0.4,0.8-0.6c0.4-0.1,0.8-0.2,1.3-0.2c0.5,0,0.9,0.1,1.2,0.2
	c0.3,0.1,0.5,0.3,0.7,0.4c0.1,0.2,0.2,0.4,0.3,0.6c0,0.2,0.1,0.5,0.1,0.9v1.3c0,0.9,0,1.5,0.1,1.7s0.1,0.5,0.3,0.7h-1
	C102.1,33.8,102,33.6,102,33.3"/>
<path class="st2" d="M105.1,31.1c0,0.7,0.1,1.3,0.5,1.6c0.3,0.4,0.7,0.5,1.1,0.5c0.4,0,0.8-0.2,1.1-0.5c0.3-0.3,0.5-0.9,0.5-1.6
	c0-0.8-0.2-1.4-0.5-1.7c-0.3-0.4-0.7-0.5-1.1-0.5c-0.4,0-0.8,0.2-1.1,0.5C105.2,29.8,105.1,30.4,105.1,31.1 M108.1,34v-0.7
	c-0.4,0.6-0.9,0.8-1.6,0.8c-0.5,0-0.9-0.1-1.3-0.4c-0.4-0.2-0.7-0.6-0.9-1c-0.2-0.4-0.3-1-0.3-1.6c0-0.6,0.1-1.1,0.3-1.5
	c0.2-0.5,0.5-0.8,0.8-1.1c0.4-0.2,0.8-0.4,1.3-0.4c0.3,0,0.6,0.1,0.9,0.2c0.3,0.1,0.5,0.3,0.6,0.6v-2.8h1V34H108.1"/>
<path class="st2" d="M110.5,34v-5.7h1V34H110.5 M110.5,27.2v-1.1h1v1.1H110.5"/>
<path class="st2" d="M116.6,31.1c-0.4,0.1-0.9,0.3-1.6,0.4c-0.4,0.1-0.7,0.1-0.8,0.2c-0.2,0.1-0.3,0.2-0.4,0.3
	c-0.1,0.1-0.1,0.3-0.1,0.5c0,0.3,0.1,0.5,0.3,0.6c0.2,0.2,0.5,0.3,0.9,0.3s0.7-0.1,1-0.2c0.3-0.2,0.5-0.4,0.6-0.7
	c0.1-0.2,0.2-0.5,0.2-1V31.1 M116.7,33.3c-0.4,0.3-0.7,0.5-1,0.6c-0.3,0.1-0.7,0.2-1.1,0.2c-0.6,0-1.1-0.1-1.4-0.5
	c-0.3-0.3-0.5-0.7-0.5-1.2c0-0.3,0.1-0.5,0.2-0.8c0.1-0.2,0.3-0.4,0.5-0.6c0.2-0.1,0.4-0.2,0.7-0.3c0.2,0,0.5-0.1,0.9-0.1
	c0.8-0.1,1.4-0.2,1.7-0.3c0-0.1,0-0.2,0-0.3c0-0.4-0.1-0.7-0.3-0.8c-0.3-0.2-0.6-0.3-1.1-0.3c-0.5,0-0.8,0.1-1,0.2
	c-0.2,0.2-0.4,0.5-0.5,0.8l-0.9-0.1c0.1-0.4,0.2-0.7,0.4-1c0.2-0.2,0.5-0.4,0.8-0.6c0.4-0.1,0.8-0.2,1.3-0.2c0.5,0,0.9,0.1,1.2,0.2
	c0.3,0.1,0.5,0.3,0.7,0.4c0.1,0.2,0.2,0.4,0.3,0.6c0,0.2,0.1,0.5,0.1,0.9v1.3c0,0.9,0,1.5,0.1,1.7s0.1,0.5,0.3,0.7h-1
	C116.8,33.8,116.7,33.6,116.7,33.3"/>
<polyline class="st2" points="119.1,34 119.1,26.1 120,26.1 120,34 119.1,34 "/>
</svg>
